<ttFont>
    <TTGlyph name=".notdef" xMin="120" yMin="0" xMax="958" yMax="1410">
      <contour>
        <pt x="120" y="1410" on="1"/>
        <pt x="958" y="1410" on="1"/>
        <pt x="958" y="0" on="1"/>
        <pt x="120" y="0" on="1"/>
      </contour>
      <contour>
        <pt x="911" y="47" on="1"/>
        <pt x="911" y="1363" on="1"/>
        <pt x="167" y="1363" on="1"/>
        <pt x="167" y="47" on="1"/>
      </contour>
      <contour>
        <pt x="389" y="674" on="1"/>
        <pt x="389" y="705" on="0"/>
        <pt x="413" y="760" on="0"/>
        <pt x="453" y="800" on="0"/>
        <pt x="508" y="824" on="0"/>
        <pt x="539" y="824" on="1"/>
        <pt x="570" y="824" on="0"/>
        <pt x="625" y="800" on="0"/>
        <pt x="665" y="760" on="0"/>
        <pt x="689" y="705" on="0"/>
        <pt x="689" y="674" on="1"/>
        <pt x="689" y="643" on="0"/>
        <pt x="665" y="588" on="0"/>
        <pt x="625" y="548" on="0"/>
        <pt x="570" y="524" on="0"/>
        <pt x="539" y="524" on="1"/>
        <pt x="508" y="524" on="0"/>
        <pt x="453" y="548" on="0"/>
        <pt x="413" y="588" on="0"/>
        <pt x="389" y="643" on="0"/>
      </contour>
    </TTGlyph>
    <TTGlyph name="A" xMin="5" yMin="0" xMax="1536" yMax="1410">
      <contour>
        <pt x="5" y="47" on="1"/>
        <pt x="5" y="55" on="0"/>
        <pt x="13" y="55" on="1"/>
        <pt x="32" y="56" on="0"/>
        <pt x="83" y="65" on="0"/>
        <pt x="136" y="94" on="0"/>
        <pt x="186" y="151" on="0"/>
        <pt x="203" y="201" on="1"/>
        <pt x="605" y="1367" on="1"/>
        <pt x="605" y="1366" on="0"/>
        <pt x="606" y="1370" on="0"/>
        <pt x="606" y="1372" on="1"/>
        <pt x="606" y="1379" on="0"/>
        <pt x="595" y="1400" on="0"/>
        <pt x="595" y="1405" on="1"/>
        <pt x="595" y="1410" on="0"/>
        <pt x="599" y="1410" on="1"/>
        <pt x="889" y="1410" on="1"/>
        <pt x="891" y="1409" on="0"/>
        <pt x="898" y="1407" on="0"/>
        <pt x="900" y="1402" on="1"/>
        <pt x="1323" y="215" on="1"/>
        <pt x="1333" y="187" on="0"/>
        <pt x="1351" y="147" on="0"/>
        <pt x="1376" y="116" on="0"/>
        <pt x="1414" y="91" on="0"/>
        <pt x="1444" y="78" on="1"/>
        <pt x="1458" y="71" on="0"/>
        <pt x="1506" y="55" on="0"/>
        <pt x="1528" y="55" on="1"/>
        <pt x="1533" y="55" on="0"/>
        <pt x="1536" y="49" on="0"/>
        <pt x="1536" y="46" on="1"/>
        <pt x="1536" y="8" on="1"/>
        <pt x="1536" y="6" on="0"/>
        <pt x="1533" y="0" on="0"/>
        <pt x="1528" y="0" on="1"/>
        <pt x="826" y="0" on="1"/>
        <pt x="821" y="0" on="0"/>
        <pt x="818" y="6" on="0"/>
        <pt x="818" y="8" on="1"/>
        <pt x="818" y="47" on="1"/>
        <pt x="818" y="49" on="0"/>
        <pt x="821" y="55" on="0"/>
        <pt x="826" y="55" on="1"/>
        <pt x="830" y="55" on="0"/>
        <pt x="838" y="56" on="0"/>
        <pt x="840" y="56" on="1"/>
        <pt x="851" y="57" on="0"/>
        <pt x="892" y="59" on="0"/>
        <pt x="940" y="64" on="0"/>
        <pt x="989" y="75" on="0"/>
        <pt x="1029" y="96" on="0"/>
        <pt x="1055" y="130" on="0"/>
        <pt x="1055" y="155" on="1"/>
        <pt x="1055" y="161" on="0"/>
        <pt x="1053" y="169" on="1"/>
        <pt x="922" y="530" on="1"/>
        <pt x="921" y="532" on="0"/>
        <pt x="916" y="546" on="0"/>
        <pt x="905" y="561" on="0"/>
        <pt x="888" y="573" on="0"/>
        <pt x="876" y="573" on="1"/>
        <pt x="515" y="573" on="1"/>
        <pt x="502" y="573" on="0"/>
        <pt x="484" y="561" on="0"/>
        <pt x="472" y="547" on="0"/>
        <pt x="465" y="533" on="0"/>
        <pt x="465" y="532" on="1"/>
        <pt x="433" y="438" on="0"/>
        <pt x="389" y="309" on="0"/>
        <pt x="360" y="225" on="0"/>
        <pt x="344" y="179" on="0"/>
        <pt x="337" y="158" on="0"/>
        <pt x="336" y="153" on="0"/>
        <pt x="336" y="153" on="1"/>
        <pt x="336" y="150" on="0"/>
        <pt x="338" y="143" on="0"/>
        <pt x="339" y="140" on="1"/>
        <pt x="347" y="115" on="0"/>
        <pt x="390" y="82" on="0"/>
        <pt x="446" y="63" on="0"/>
        <pt x="505" y="55" on="0"/>
        <pt x="528" y="55" on="1"/>
        <pt x="554" y="55" on="1"/>
        <pt x="559" y="55" on="0"/>
        <pt x="562" y="49" on="0"/>
        <pt x="562" y="47" on="1"/>
        <pt x="562" y="8" on="1"/>
        <pt x="562" y="6" on="0"/>
        <pt x="559" y="0" on="0"/>
        <pt x="554" y="0" on="1"/>
        <pt x="13" y="0" on="1"/>
        <pt x="5" y="0" on="0"/>
        <pt x="5" y="8" on="1"/>
      </contour>
      <contour>
        <pt x="529" y="717" on="1"/>
        <pt x="527" y="712" on="0"/>
        <pt x="525" y="702" on="0"/>
        <pt x="525" y="697" on="1"/>
        <pt x="525" y="691" on="0"/>
        <pt x="531" y="684" on="0"/>
        <pt x="540" y="684" on="1"/>
        <pt x="840" y="684" on="1"/>
        <pt x="851" y="684" on="0"/>
        <pt x="858" y="693" on="0"/>
        <pt x="858" y="699" on="1"/>
        <pt x="858" y="704" on="0"/>
        <pt x="856" y="712" on="0"/>
        <pt x="854" y="717" on="1"/>
        <pt x="721" y="1082" on="1"/>
        <pt x="716" y="1096" on="0"/>
        <pt x="696" y="1109" on="0"/>
        <pt x="688" y="1109" on="1"/>
        <pt x="680" y="1109" on="0"/>
        <pt x="660" y="1094" on="0"/>
        <pt x="655" y="1081" on="1"/>
      </contour>
    </TTGlyph>
    <TTGlyph name="A.sc" xMin="23" yMin="0" xMax="1035" yMax="945">
      <contour>
        <pt x="23" y="42" on="1"/>
        <pt x="23" y="48" on="0"/>
        <pt x="28" y="48" on="1"/>
        <pt x="41" y="49" on="0"/>
        <pt x="77" y="54" on="0"/>
        <pt x="116" y="74" on="0"/>
        <pt x="152" y="112" on="0"/>
        <pt x="164" y="146" on="1"/>
        <pt x="429" y="916" on="1"/>
        <pt x="429" y="923" on="0"/>
        <pt x="422" y="938" on="0"/>
        <pt x="422" y="941" on="1"/>
        <pt x="422" y="945" on="0"/>
        <pt x="425" y="945" on="1"/>
        <pt x="602" y="945" on="1"/>
        <pt x="603" y="944" on="0"/>
        <pt x="607" y="942" on="0"/>
        <pt x="609" y="939" on="1"/>
        <pt x="885" y="165" on="1"/>
        <pt x="894" y="141" on="0"/>
        <pt x="917" y="99" on="0"/>
        <pt x="951" y="67" on="0"/>
        <pt x="998" y="48" on="0"/>
        <pt x="1030" y="48" on="1"/>
        <pt x="1034" y="48" on="0"/>
        <pt x="1035" y="44" on="0"/>
        <pt x="1035" y="42" on="1"/>
        <pt x="1035" y="5" on="1"/>
        <pt x="1035" y="0" on="0"/>
        <pt x="1030" y="0" on="1"/>
        <pt x="583" y="0" on="1"/>
        <pt x="578" y="0" on="0"/>
        <pt x="578" y="5" on="1"/>
        <pt x="578" y="42" on="1"/>
        <pt x="578" y="44" on="0"/>
        <pt x="579" y="48" on="0"/>
        <pt x="583" y="48" on="1"/>
        <pt x="592" y="48" on="1"/>
        <pt x="603" y="49" on="0"/>
        <pt x="649" y="51" on="0"/>
        <pt x="695" y="63" on="0"/>
        <pt x="729" y="89" on="0"/>
        <pt x="729" y="114" on="1"/>
        <pt x="729" y="118" on="0"/>
        <pt x="728" y="122" on="0"/>
        <pt x="728" y="124" on="1"/>
        <pt x="645" y="357" on="1"/>
        <pt x="644" y="360" on="0"/>
        <pt x="626" y="385" on="0"/>
        <pt x="610" y="385" on="1"/>
        <pt x="357" y="385" on="1"/>
        <pt x="349" y="385" on="0"/>
        <pt x="335" y="377" on="0"/>
        <pt x="326" y="368" on="0"/>
        <pt x="321" y="359" on="0"/>
        <pt x="321" y="358" on="1"/>
        <pt x="238" y="117" on="1"/>
        <pt x="238" y="109" on="0"/>
        <pt x="239" y="105" on="1"/>
        <pt x="245" y="88" on="0"/>
        <pt x="272" y="67" on="0"/>
        <pt x="306" y="53" on="0"/>
        <pt x="343" y="48" on="0"/>
        <pt x="359" y="48" on="1"/>
        <pt x="376" y="48" on="1"/>
        <pt x="380" y="48" on="0"/>
        <pt x="381" y="44" on="0"/>
        <pt x="381" y="42" on="1"/>
        <pt x="381" y="5" on="1"/>
        <pt x="381" y="0" on="0"/>
        <pt x="376" y="0" on="1"/>
        <pt x="28" y="0" on="1"/>
        <pt x="23" y="0" on="0"/>
        <pt x="23" y="5" on="1"/>
      </contour>
      <contour>
        <pt x="369" y="492" on="1"/>
        <pt x="368" y="489" on="0"/>
        <pt x="365" y="482" on="0"/>
        <pt x="365" y="480" on="1"/>
        <pt x="365" y="470" on="0"/>
        <pt x="376" y="470" on="1"/>
        <pt x="587" y="470" on="1"/>
        <pt x="594" y="470" on="0"/>
        <pt x="600" y="477" on="0"/>
        <pt x="600" y="481" on="1"/>
        <pt x="600" y="484" on="0"/>
        <pt x="597" y="490" on="0"/>
        <pt x="596" y="492" on="1"/>
        <pt x="489" y="789" on="1"/>
        <pt x="483" y="806" on="0"/>
        <pt x="480" y="806" on="1"/>
        <pt x="476" y="806" on="0"/>
        <pt x="468" y="787" on="1"/>
      </contour>
    </TTGlyph>
    <TTGlyph name="AE" xMin="5" yMin="0" xMax="1907" yMax="1410">
      <contour>
        <pt x="5" y="22" on="1"/>
        <pt x="5" y="32" on="0"/>
        <pt x="22" y="49" on="0"/>
        <pt x="46" y="61" on="0"/>
        <pt x="74" y="69" on="0"/>
        <pt x="85" y="72" on="1"/>
        <pt x="106" y="77" on="0"/>
        <pt x="141" y="105" on="0"/>
        <pt x="171" y="142" on="0"/>
        <pt x="198" y="184" on="0"/>
        <pt x="212" y="204" on="1"/>
        <pt x="853" y="1267" on="1"/>
        <pt x="865" y="1283" on="0"/>
        <pt x="865" y="1297" on="1"/>
        <pt x="865" y="1310" on="0"/>
        <pt x="849" y="1329" on="0"/>
        <pt x="825" y="1342" on="0"/>
        <pt x="798" y="1349" on="0"/>
        <pt x="788" y="1349" on="1"/>
        <pt x="772" y="1349" on="0"/>
        <pt x="730" y="1350" on="0"/>
        <pt x="686" y="1350" on="1"/>
        <pt x="668" y="1350" on="0"/>
        <pt x="653" y="1372" on="0"/>
        <pt x="653" y="1378" on="1"/>
        <pt x="653" y="1385" on="0"/>
        <pt x="659" y="1410" on="0"/>
        <pt x="671" y="1410" on="1"/>
        <pt x="1762" y="1410" on="1"/>
        <pt x="1780" y="1410" on="0"/>
        <pt x="1796" y="1397" on="0"/>
        <pt x="1798" y="1375" on="1"/>
        <pt x="1816" y="1055" on="1"/>
        <pt x="1816" y="1050" on="0"/>
        <pt x="1799" y="1045" on="0"/>
        <pt x="1792" y="1045" on="1"/>
        <pt x="1784" y="1045" on="0"/>
        <pt x="1768" y="1049" on="0"/>
        <pt x="1765" y="1053" on="1"/>
        <pt x="1758" y="1063" on="0"/>
        <pt x="1752" y="1102" on="0"/>
        <pt x="1745" y="1150" on="0"/>
        <pt x="1732" y="1202" on="0"/>
        <pt x="1706" y="1246" on="0"/>
        <pt x="1661" y="1279" on="0"/>
        <pt x="1626" y="1285" on="1"/>
        <pt x="1269" y="1285" on="1"/>
        <pt x="1256" y="1285" on="0"/>
        <pt x="1256" y="1272" on="1"/>
        <pt x="1256" y="795" on="1"/>
        <pt x="1256" y="785" on="0"/>
        <pt x="1266" y="785" on="1"/>
        <pt x="1552" y="785" on="1"/>
        <pt x="1577" y="785" on="0"/>
        <pt x="1626" y="798" on="0"/>
        <pt x="1663" y="832" on="0"/>
        <pt x="1686" y="893" on="0"/>
        <pt x="1686" y="941" on="1"/>
        <pt x="1686" y="949" on="0"/>
        <pt x="1694" y="949" on="1"/>
        <pt x="1733" y="949" on="1"/>
        <pt x="1741" y="949" on="0"/>
        <pt x="1741" y="941" on="1"/>
        <pt x="1741" y="483" on="1"/>
        <pt x="1741" y="478" on="0"/>
        <pt x="1735" y="475" on="0"/>
        <pt x="1733" y="475" on="1"/>
        <pt x="1694" y="475" on="1"/>
        <pt x="1689" y="475" on="0"/>
        <pt x="1686" y="481" on="0"/>
        <pt x="1686" y="483" on="1"/>
        <pt x="1686" y="539" on="0"/>
        <pt x="1663" y="608" on="0"/>
        <pt x="1625" y="647" on="0"/>
        <pt x="1576" y="660" on="0"/>
        <pt x="1549" y="660" on="1"/>
        <pt x="1266" y="660" on="1"/>
        <pt x="1256" y="660" on="0"/>
        <pt x="1256" y="650" on="1"/>
        <pt x="1256" y="213" on="1"/>
        <pt x="1256" y="184" on="0"/>
        <pt x="1274" y="149" on="0"/>
        <pt x="1305" y="131" on="0"/>
        <pt x="1345" y="125" on="0"/>
        <pt x="1367" y="125" on="1"/>
        <pt x="1640" y="125" on="1"/>
        <pt x="1698" y="125" on="0"/>
        <pt x="1776" y="178" on="0"/>
        <pt x="1824" y="254" on="0"/>
        <pt x="1847" y="336" on="0"/>
        <pt x="1850" y="365" on="1"/>
        <pt x="1852" y="378" on="0"/>
        <pt x="1874" y="393" on="0"/>
        <pt x="1888" y="393" on="1"/>
        <pt x="1893" y="393" on="0"/>
        <pt x="1907" y="385" on="0"/>
        <pt x="1907" y="380" on="1"/>
        <pt x="1874" y="14" on="1"/>
        <pt x="1872" y="9" on="0"/>
        <pt x="1865" y="0" on="0"/>
        <pt x="1860" y="0" on="1"/>
        <pt x="700" y="0" on="1"/>
        <pt x="693" y="0" on="0"/>
        <pt x="693" y="6" on="1"/>
        <pt x="693" y="51" on="1"/>
        <pt x="693" y="52" on="0"/>
        <pt x="695" y="59" on="0"/>
        <pt x="701" y="59" on="1"/>
        <pt x="723" y="59" on="1"/>
        <pt x="765" y="62" on="0"/>
        <pt x="853" y="63" on="0"/>
        <pt x="925" y="84" on="0"/>
        <pt x="971" y="137" on="0"/>
        <pt x="971" y="193" on="1"/>
        <pt x="971" y="555" on="1"/>
        <pt x="640" y="555" on="1"/>
        <pt x="624" y="555" on="0"/>
        <pt x="599" y="543" on="0"/>
        <pt x="581" y="528" on="0"/>
        <pt x="571" y="515" on="0"/>
        <pt x="570" y="514" on="1"/>
        <pt x="359" y="153" on="1"/>
        <pt x="357" y="149" on="0"/>
        <pt x="356" y="140" on="0"/>
        <pt x="356" y="135" on="1"/>
        <pt x="356" y="108" on="0"/>
        <pt x="399" y="79" on="0"/>
        <pt x="460" y="65" on="0"/>
        <pt x="525" y="61" on="0"/>
        <pt x="547" y="59" on="1"/>
        <pt x="557" y="58" on="0"/>
        <pt x="571" y="35" on="0"/>
        <pt x="571" y="28" on="1"/>
        <pt x="571" y="19" on="0"/>
        <pt x="564" y="0" on="0"/>
        <pt x="553" y="0" on="1"/>
        <pt x="21" y="0" on="1"/>
        <pt x="9" y="0" on="0"/>
        <pt x="5" y="14" on="0"/>
      </contour>
      <contour>
        <pt x="971" y="666" on="1"/>
        <pt x="971" y="1099" on="1"/>
        <pt x="971" y="1110" on="0"/>
        <pt x="960" y="1118" on="0"/>
        <pt x="954" y="1118" on="1"/>
        <pt x="940" y="1118" on="0"/>
        <pt x="924" y="1101" on="0"/>
        <pt x="917" y="1090" on="1"/>
        <pt x="673" y="684" on="1"/>
        <pt x="672" y="682" on="0"/>
        <pt x="672" y="679" on="1"/>
        <pt x="672" y="666" on="0"/>
        <pt x="705" y="666" on="1"/>
      </contour>
    </TTGlyph>
    <TTGlyph name="AE.sc" xMin="20" yMin="0" xMax="1350" yMax="945">
      <contour>
        <pt x="20" y="22" on="1"/>
        <pt x="20" y="29" on="0"/>
        <pt x="35" y="42" on="0"/>
        <pt x="57" y="52" on="0"/>
        <pt x="79" y="59" on="0"/>
        <pt x="87" y="61" on="1"/>
        <pt x="99" y="64" on="0"/>
        <pt x="120" y="81" on="0"/>
        <pt x="139" y="105" on="0"/>
        <pt x="156" y="133" on="0"/>
        <pt x="164" y="146" on="1"/>
        <pt x="585" y="847" on="1"/>
        <pt x="589" y="855" on="0"/>
        <pt x="589" y="861" on="1"/>
        <pt x="589" y="870" on="0"/>
        <pt x="575" y="884" on="0"/>
        <pt x="555" y="894" on="0"/>
        <pt x="531" y="899" on="0"/>
        <pt x="522" y="899" on="1"/>
        <pt x="467" y="899" on="1"/>
        <pt x="457" y="899" on="0"/>
        <pt x="454" y="917" on="0"/>
        <pt x="454" y="921" on="1"/>
        <pt x="454" y="926" on="0"/>
        <pt x="458" y="945" on="0"/>
        <pt x="466" y="945" on="1"/>
        <pt x="1254" y="945" on="1"/>
        <pt x="1265" y="945" on="0"/>
        <pt x="1277" y="935" on="0"/>
        <pt x="1278" y="921" on="1"/>
        <pt x="1289" y="727" on="1"/>
        <pt x="1289" y="723" on="0"/>
        <pt x="1272" y="720" on="0"/>
        <pt x="1267" y="720" on="1"/>
        <pt x="1262" y="720" on="0"/>
        <pt x="1246" y="723" on="0"/>
        <pt x="1244" y="726" on="1"/>
        <pt x="1237" y="736" on="0"/>
        <pt x="1233" y="779" on="0"/>
        <pt x="1220" y="826" on="0"/>
        <pt x="1187" y="865" on="0"/>
        <pt x="1151" y="870" on="1"/>
        <pt x="872" y="870" on="1"/>
        <pt x="863" y="870" on="0"/>
        <pt x="863" y="862" on="1"/>
        <pt x="863" y="535" on="1"/>
        <pt x="863" y="529" on="0"/>
        <pt x="870" y="529" on="1"/>
        <pt x="1101" y="529" on="1"/>
        <pt x="1117" y="529" on="0"/>
        <pt x="1148" y="539" on="0"/>
        <pt x="1170" y="563" on="0"/>
        <pt x="1184" y="603" on="0"/>
        <pt x="1184" y="633" on="1"/>
        <pt x="1184" y="638" on="0"/>
        <pt x="1190" y="638" on="1"/>
        <pt x="1227" y="638" on="1"/>
        <pt x="1233" y="638" on="0"/>
        <pt x="1233" y="633" on="1"/>
        <pt x="1233" y="325" on="1"/>
        <pt x="1233" y="322" on="0"/>
        <pt x="1229" y="320" on="0"/>
        <pt x="1227" y="320" on="1"/>
        <pt x="1190" y="320" on="1"/>
        <pt x="1186" y="320" on="0"/>
        <pt x="1184" y="324" on="0"/>
        <pt x="1184" y="325" on="1"/>
        <pt x="1184" y="362" on="0"/>
        <pt x="1169" y="409" on="0"/>
        <pt x="1143" y="435" on="0"/>
        <pt x="1111" y="444" on="0"/>
        <pt x="1093" y="444" on="1"/>
        <pt x="870" y="444" on="1"/>
        <pt x="863" y="444" on="0"/>
        <pt x="863" y="438" on="1"/>
        <pt x="863" y="133" on="1"/>
        <pt x="863" y="113" on="0"/>
        <pt x="875" y="90" on="0"/>
        <pt x="896" y="78" on="0"/>
        <pt x="923" y="75" on="0"/>
        <pt x="938" y="75" on="1"/>
        <pt x="1160" y="75" on="1"/>
        <pt x="1199" y="75" on="0"/>
        <pt x="1251" y="104" on="0"/>
        <pt x="1284" y="147" on="0"/>
        <pt x="1299" y="195" on="0"/>
        <pt x="1301" y="214" on="1"/>
        <pt x="1303" y="231" on="0"/>
        <pt x="1323" y="244" on="0"/>
        <pt x="1332" y="244" on="1"/>
        <pt x="1335" y="244" on="0"/>
        <pt x="1350" y="237" on="0"/>
        <pt x="1350" y="234" on="1"/>
        <pt x="1328" y="9" on="1"/>
        <pt x="1327" y="6" on="0"/>
        <pt x="1322" y="0" on="0"/>
        <pt x="1319" y="0" on="1"/>
        <pt x="528" y="0" on="1"/>
        <pt x="513" y="0" on="0"/>
        <pt x="498" y="18" on="0"/>
        <pt x="498" y="25" on="1"/>
        <pt x="498" y="35" on="0"/>
        <pt x="510" y="49" on="0"/>
        <pt x="518" y="50" on="1"/>
        <pt x="549" y="53" on="0"/>
        <pt x="613" y="54" on="0"/>
        <pt x="665" y="69" on="0"/>
        <pt x="699" y="104" on="0"/>
        <pt x="699" y="141" on="1"/>
        <pt x="699" y="385" on="1"/>
        <pt x="463" y="385" on="1"/>
        <pt x="443" y="385" on="0"/>
        <pt x="412" y="366" on="0"/>
        <pt x="407" y="358" on="1"/>
        <pt x="269" y="127" on="1"/>
        <pt x="265" y="121" on="0"/>
        <pt x="263" y="108" on="0"/>
        <pt x="263" y="103" on="1"/>
        <pt x="263" y="85" on="0"/>
        <pt x="292" y="64" on="0"/>
        <pt x="332" y="53" on="0"/>
        <pt x="373" y="49" on="0"/>
        <pt x="386" y="48" on="1"/>
        <pt x="397" y="47" on="0"/>
        <pt x="400" y="29" on="0"/>
        <pt x="400" y="24" on="1"/>
        <pt x="400" y="18" on="0"/>
        <pt x="395" y="0" on="0"/>
        <pt x="387" y="0" on="1"/>
        <pt x="41" y="0" on="1"/>
        <pt x="25" y="0" on="0"/>
        <pt x="20" y="17" on="0"/>
      </contour>
      <contour>
        <pt x="699" y="459" on="1"/>
        <pt x="699" y="794" on="1"/>
        <pt x="699" y="806" on="0"/>
        <pt x="691" y="806" on="1"/>
        <pt x="680" y="806" on="0"/>
        <pt x="670" y="795" on="0"/>
        <pt x="665" y="787" on="1"/>
        <pt x="476" y="471" on="1"/>
        <pt x="475" y="470" on="0"/>
        <pt x="475" y="467" on="1"/>
        <pt x="475" y="459" on="0"/>
        <pt x="497" y="459" on="1"/>
      </contour>
    </TTGlyph>
    <TTGlyph name="AEacute" xMin="5" yMin="0" xMax="1907" yMax="1970">
      <component glyphName="AE" x="0" y="0" flags="0x1204"/>
      <component glyphName="acute" x="930" y="498" flags="0x1004"/>
    </TTGlyph>
    <TTGlyph name="A_R" xMin="0" yMin="-25" xMax="2115" yMax="1425">
      <contour>
        <pt x="0" y="18" on="1"/>
        <pt x="0" y="28" on="0"/>
        <pt x="15" y="43" on="0"/>
        <pt x="37" y="52" on="0"/>
        <pt x="64" y="57" on="0"/>
        <pt x="75" y="59" on="1"/>
        <pt x="101" y="64" on="0"/>
        <pt x="140" y="89" on="0"/>
        <pt x="170" y="123" on="0"/>
        <pt x="190" y="165" on="0"/>
        <pt x="198" y="186" on="1"/>
        <pt x="322" y="386" on="0"/>
        <pt x="510" y="692" on="0"/>
        <pt x="650" y="920" on="0"/>
        <pt x="747" y="1078" on="0"/>
        <pt x="810" y="1184" on="0"/>
        <pt x="844" y="1245" on="0"/>
        <pt x="861" y="1278" on="0"/>
        <pt x="864" y="1291" on="0"/>
        <pt x="864" y="1297" on="1"/>
        <pt x="864" y="1318" on="0"/>
        <pt x="847" y="1347" on="0"/>
        <pt x="820" y="1365" on="0"/>
        <pt x="786" y="1373" on="0"/>
        <pt x="769" y="1373" on="1"/>
        <pt x="661" y="1373" on="1"/>
        <pt x="658" y="1373" on="0"/>
        <pt x="648" y="1384" on="0"/>
        <pt x="648" y="1390" on="1"/>
        <pt x="648" y="1397" on="0"/>
        <pt x="654" y="1410" on="0"/>
        <pt x="666" y="1410" on="1"/>
        <pt x="756" y="1410" on="1"/>
        <pt x="757" y="1410" on="0"/>
        <pt x="764" y="1410" on="0"/>
        <pt x="786" y="1411" on="0"/>
        <pt x="828" y="1412" on="0"/>
        <pt x="866" y="1413" on="1"/>
        <pt x="977" y="1415" on="0"/>
        <pt x="1198" y="1425" on="0"/>
        <pt x="1309" y="1425" on="1"/>
        <pt x="1410" y="1425" on="1"/>
        <pt x="1496" y="1419" on="0"/>
        <pt x="1648" y="1353" on="0"/>
        <pt x="1761" y="1243" on="0"/>
        <pt x="1826" y="1095" on="0"/>
        <pt x="1826" y="1008" on="1"/>
        <pt x="1826" y="946" on="0"/>
        <pt x="1790" y="849" on="0"/>
        <pt x="1727" y="773" on="0"/>
        <pt x="1640" y="715" on="0"/>
        <pt x="1589" y="692" on="1"/>
        <pt x="1892" y="197" on="1"/>
        <pt x="1930" y="134" on="0"/>
        <pt x="2038" y="40" on="0"/>
        <pt x="2104" y="14" on="1"/>
        <pt x="2112" y="12" on="0"/>
        <pt x="2115" y="5" on="0"/>
        <pt x="2115" y="0" on="1"/>
        <pt x="2115" y="-15" on="0"/>
        <pt x="2099" y="-25" on="0"/>
        <pt x="2082" y="-25" on="1"/>
        <pt x="1997" y="-25" on="0"/>
        <pt x="1851" y="21" on="0"/>
        <pt x="1785" y="80" on="1"/>
        <pt x="1753" y="109" on="0"/>
        <pt x="1695" y="184" on="0"/>
        <pt x="1666" y="231" on="1"/>
        <pt x="1410" y="633" on="1"/>
        <pt x="1407" y="636" on="0"/>
        <pt x="1405" y="637" on="1"/>
        <pt x="1169" y="648" on="1"/>
        <pt x="1168" y="648" on="0"/>
        <pt x="1154" y="648" on="0"/>
        <pt x="1151" y="646" on="1"/>
        <pt x="1148" y="644" on="0"/>
        <pt x="1146" y="640" on="0"/>
        <pt x="1146" y="634" on="1"/>
        <pt x="1146" y="173" on="1"/>
        <pt x="1146" y="146" on="0"/>
        <pt x="1160" y="106" on="0"/>
        <pt x="1193" y="77" on="0"/>
        <pt x="1246" y="59" on="0"/>
        <pt x="1284" y="54" on="1"/>
        <pt x="1290" y="53" on="0"/>
        <pt x="1313" y="49" on="0"/>
        <pt x="1340" y="44" on="0"/>
        <pt x="1366" y="40" on="0"/>
        <pt x="1375" y="40" on="1"/>
        <pt x="1381" y="40" on="0"/>
        <pt x="1383" y="34" on="0"/>
        <pt x="1383" y="32" on="1"/>
        <pt x="1383" y="8" on="1"/>
        <pt x="1383" y="6" on="0"/>
        <pt x="1380" y="0" on="0"/>
        <pt x="1375" y="0" on="1"/>
        <pt x="680" y="0" on="1"/>
        <pt x="669" y="0" on="0"/>
        <pt x="650" y="11" on="0"/>
        <pt x="650" y="22" on="1"/>
        <pt x="650" y="36" on="0"/>
        <pt x="669" y="43" on="0"/>
        <pt x="680" y="44" on="1"/>
        <pt x="726" y="47" on="0"/>
        <pt x="822" y="49" on="0"/>
        <pt x="901" y="71" on="0"/>
        <pt x="951" y="124" on="0"/>
        <pt x="951" y="178" on="1"/>
        <pt x="951" y="623" on="1"/>
        <pt x="626" y="623" on="1"/>
        <pt x="612" y="620" on="0"/>
        <pt x="593" y="607" on="0"/>
        <pt x="581" y="594" on="0"/>
        <pt x="576" y="583" on="0"/>
        <pt x="576" y="582" on="1"/>
        <pt x="311" y="143" on="1"/>
        <pt x="308" y="134" on="0"/>
        <pt x="308" y="125" on="1"/>
        <pt x="308" y="98" on="0"/>
        <pt x="355" y="66" on="0"/>
        <pt x="421" y="48" on="0"/>
        <pt x="490" y="42" on="0"/>
        <pt x="512" y="41" on="1"/>
        <pt x="522" y="39" on="0"/>
        <pt x="536" y="27" on="0"/>
        <pt x="536" y="20" on="1"/>
        <pt x="536" y="11" on="0"/>
        <pt x="529" y="0" on="0"/>
        <pt x="518" y="0" on="1"/>
        <pt x="16" y="0" on="1"/>
        <pt x="4" y="0" on="0"/>
        <pt x="0" y="10" on="0"/>
      </contour>
      <contour>
        <pt x="1148" y="718" on="1"/>
        <pt x="1149" y="710" on="0"/>
        <pt x="1156" y="697" on="0"/>
        <pt x="1167" y="696" on="1"/>
        <pt x="1171" y="696" on="0"/>
        <pt x="1192" y="694" on="0"/>
        <pt x="1220" y="692" on="0"/>
        <pt x="1253" y="690" on="0"/>
        <pt x="1269" y="690" on="1"/>
        <pt x="1368" y="690" on="0"/>
        <pt x="1505" y="738" on="0"/>
        <pt x="1590" y="826" on="0"/>
        <pt x="1627" y="953" on="0"/>
        <pt x="1627" y="1032" on="1"/>
        <pt x="1627" y="1114" on="0"/>
        <pt x="1573" y="1242" on="0"/>
        <pt x="1479" y="1329" on="0"/>
        <pt x="1351" y="1374" on="0"/>
        <pt x="1277" y="1374" on="1"/>
        <pt x="1263" y="1374" on="0"/>
        <pt x="1239" y="1373" on="0"/>
        <pt x="1215" y="1372" on="0"/>
        <pt x="1188" y="1371" on="0"/>
        <pt x="1171" y="1370" on="1"/>
        <pt x="1165" y="1370" on="0"/>
        <pt x="1146" y="1365" on="0"/>
        <pt x="1146" y="1354" on="1"/>
        <pt x="1146" y="748" on="1"/>
      </contour>
      <contour>
        <pt x="627" y="735" on="1"/>
        <pt x="626" y="733" on="0"/>
        <pt x="626" y="729" on="1"/>
        <pt x="626" y="716" on="0"/>
        <pt x="658" y="716" on="1"/>
        <pt x="951" y="716" on="1"/>
        <pt x="951" y="1185" on="1"/>
        <pt x="944" y="1204" on="0"/>
        <pt x="939" y="1204" on="1"/>
        <pt x="936" y="1204" on="0"/>
        <pt x="924" y="1200" on="0"/>
        <pt x="911" y="1193" on="0"/>
        <pt x="899" y="1182" on="0"/>
        <pt x="897" y="1176" on="1"/>
        <pt x="635" y="750" on="1"/>
      </contour>
    </TTGlyph>
    <TTGlyph name="Aacute" xMin="5" yMin="0" xMax="1536" yMax="1971">
      <component glyphName="A" x="0" y="0" flags="0x1204"/>
      <component glyphName="acute" x="529" y="499" flags="0x1004"/>
    </TTGlyph>
    <TTGlyph name="Aacute.sc" xMin="23" yMin="0" xMax="1035" yMax="1327">
      <component glyphName="A.sc" x="0" y="0" flags="0x1204"/>
      <component glyphName="Acute.sc" x="120" y="0" flags="0x1004"/>
    </TTGlyph>
    <TTGlyph name="Abreve" xMin="5" yMin="0" xMax="1536" yMax="1970">
      <component glyphName="A" x="0" y="0" flags="0x1204"/>
      <component glyphName="breve" x="358" y="542" flags="0x1004"/>
    </TTGlyph>
    <TTGlyph name="Acircumflex" xMin="5" yMin="0" xMax="1536" yMax="1970">
      <component glyphName="A" x="0" y="0" flags="0x1204"/>
      <component glyphName="circumflex" x="415" y="497" flags="0x1004"/>
    </TTGlyph>
    <TTGlyph name="Acircumflex.sc" xMin="23" yMin="0" xMax="1035" yMax="1327">
      <component glyphName="A.sc" x="0" y="0" flags="0x1204"/>
      <component glyphName="Circumflex.sc" x="-11" y="0" flags="0x1004"/>
    </TTGlyph>
    <TTGlyph name="Acute" xMin="114" yMin="1624" xMax="583" yMax="1969">
      <contour>
        <pt x="118" y="1676" on="1"/>
        <pt x="114" y="1684" on="0"/>
        <pt x="114" y="1690" on="1"/>
        <pt x="114" y="1698" on="0"/>
        <pt x="123" y="1707" on="0"/>
        <pt x="128" y="1711" on="1"/>
        <pt x="414" y="1936" on="1"/>
        <pt x="457" y="1969" on="0"/>
        <pt x="495" y="1969" on="1"/>
        <pt x="514" y="1969" on="0"/>
        <pt x="546" y="1953" on="0"/>
        <pt x="570" y="1927" on="0"/>
        <pt x="583" y="1894" on="0"/>
        <pt x="583" y="1876" on="1"/>
        <pt x="583" y="1854" on="0"/>
        <pt x="566" y="1817" on="0"/>
        <pt x="539" y="1789" on="0"/>
        <pt x="505" y="1768" on="0"/>
        <pt x="489" y="1761" on="1"/>
        <pt x="169" y="1626" on="1"/>
        <pt x="163" y="1624" on="0"/>
        <pt x="159" y="1624" on="1"/>
        <pt x="150" y="1624" on="0"/>
        <pt x="133" y="1634" on="0"/>
        <pt x="131" y="1643" on="1"/>
      </contour>
    </TTGlyph>
    <TTGlyph name="Acute.sc" xMin="382" yMin="1120" xMax="667" yMax="1327">
      <contour>
        <pt x="382" y="1148" on="1"/>
        <pt x="382" y="1150" on="0"/>
        <pt x="385" y="1153" on="1"/>
        <pt x="573" y="1307" on="1"/>
        <pt x="587" y="1318" on="0"/>
        <pt x="610" y="1327" on="0"/>
        <pt x="621" y="1327" on="1"/>
        <pt x="641" y="1327" on="0"/>
        <pt x="667" y="1297" on="0"/>
        <pt x="667" y="1278" on="1"/>
        <pt x="667" y="1253" on="0"/>
        <pt x="631" y="1223" on="0"/>
        <pt x="612" y="1215" on="1"/>
        <pt x="533" y="1179" on="0"/>
        <pt x="447" y="1140" on="0"/>
        <pt x="407" y="1122" on="0"/>
        <pt x="399" y="1120" on="0"/>
        <pt x="399" y="1120" on="1"/>
        <pt x="395" y="1120" on="0"/>
        <pt x="393" y="1123" on="1"/>
      </contour>
    </TTGlyph>
    <TTGlyph name="Adieresis" xMin="5" yMin="0" xMax="1536" yMax="1937">
      <component glyphName="A" x="0" y="0" flags="0x1204"/>
      <component glyphName="dieresis" x="339" y="571" flags="0x1004"/>
    </TTGlyph>
    <TTGlyph name="Adieresis.sc" xMin="23" yMin="0" xMax="1035" yMax="1277">
      <component glyphName="A.sc" x="0" y="0" flags="0x1204"/>
      <component glyphName="Dieresis.sc" x="-9" y="0" flags="0x1004"/>
    </TTGlyph>
    <TTGlyph name="Agrave" xMin="5" yMin="0" xMax="1536" yMax="1970">
      <component glyphName="A" x="0" y="0" flags="0x1204"/>
      <component glyphName="grave" x="343" y="498" flags="0x1004"/>
    </TTGlyph>
    <TTGlyph name="Agrave.sc" xMin="23" yMin="0" xMax="1035" yMax="1327">
      <component glyphName="A.sc" x="0" y="0" flags="0x1204"/>
      <component glyphName="Gravesmall" x="-114" y="0" flags="0x1004"/>
    </TTGlyph>
    <TTGlyph name="Alpha" xMin="5" yMin="0" xMax="1536" yMax="1410">
      <component glyphName="A" x="0" y="0" flags="0x1204"/>
    </TTGlyph>
    <TTGlyph name="Alphatonos" xMin="-3" yMin="0" xMax="1528" yMax="1453">
      <component glyphName="A" x="-8" y="0" flags="0x1004"/>
      <component glyphName="tonos" x="-129" y="-69" flags="0x1004"/>
    </TTGlyph>
    <TTGlyph name="Amacron" xMin="5" yMin="0" xMax="1536" yMax="1884">
      <component glyphName="A" x="0" y="0" flags="0x1204"/>
      <component glyphName="macron" x="389" y="542" flags="0x1004"/>
    </TTGlyph>
    <TTGlyph name="Amacron.sc" xMin="23" yMin="0" xMax="1035" yMax="1240">
      <component glyphName="A.sc" x="0" y="0" flags="0x1204"/>
      <component glyphName="Macron.sc" x="-9" y="0" flags="0x1004"/>
    </TTGlyph>
    <TTGlyph name="Aogonek" xMin="5" yMin="-532" xMax="1536" yMax="1410">
      <component glyphName="A" x="0" y="0" flags="0x1204"/>
      <component glyphName="ogonek" x="859" y="0" flags="0x1004"/>
    </TTGlyph>
    <TTGlyph name="Aring" xMin="5" yMin="0" xMax="1536" yMax="2014">
      <component glyphName="A" x="0" y="0" flags="0x1204"/>
      <component glyphName="ring" x="379" y="537" flags="0x1004"/>
    </TTGlyph>
    <TTGlyph name="Aring.sc" xMin="23" yMin="0" xMax="1035" yMax="1327">
      <component glyphName="A.sc" x="0" y="0" flags="0x1204"/>
      <component glyphName="Ring.sc" x="-4" y="0" flags="0x1004"/>
    </TTGlyph>
    <TTGlyph name="Aringacute" xMin="5" yMin="0" xMax="1536" yMax="2038">
      <contour>
        <pt x="648" y="1826" on="1"/>
        <pt x="648" y="1829" on="0"/>
        <pt x="651" y="1832" on="1"/>
        <pt x="877" y="2014" on="1"/>
        <pt x="892" y="2027" on="0"/>
        <pt x="921" y="2038" on="0"/>
        <pt x="933" y="2038" on="1"/>
        <pt x="945" y="2038" on="0"/>
        <pt x="967" y="2023" on="0"/>
        <pt x="983" y="2001" on="0"/>
        <pt x="993" y="1975" on="0"/>
        <pt x="993" y="1964" on="1"/>
        <pt x="993" y="1935" on="0"/>
        <pt x="956" y="1893" on="0"/>
        <pt x="933" y="1883" on="1"/>
        <pt x="680" y="1773" on="1"/>
        <pt x="680" y="1772" on="0"/>
        <pt x="677" y="1772" on="1"/>
        <pt x="672" y="1772" on="0"/>
        <pt x="670" y="1776" on="1"/>
      </contour>
      <contour>
        <pt x="603" y="1600" on="1"/>
        <pt x="603" y="1630" on="0"/>
        <pt x="626" y="1684" on="0"/>
        <pt x="666" y="1725" on="0"/>
        <pt x="720" y="1748" on="0"/>
        <pt x="750" y="1748" on="1"/>
        <pt x="780" y="1748" on="0"/>
        <pt x="833" y="1725" on="0"/>
        <pt x="874" y="1684" on="0"/>
        <pt x="897" y="1630" on="0"/>
        <pt x="897" y="1600" on="1"/>
        <pt x="897" y="1570" on="0"/>
        <pt x="874" y="1516" on="0"/>
        <pt x="833" y="1476" on="0"/>
        <pt x="780" y="1453" on="0"/>
        <pt x="750" y="1453" on="1"/>
        <pt x="720" y="1453" on="0"/>
        <pt x="666" y="1476" on="0"/>
        <pt x="626" y="1516" on="0"/>
        <pt x="603" y="1570" on="0"/>
      </contour>
      <contour>
        <pt x="680" y="1600" on="1"/>
        <pt x="680" y="1571" on="0"/>
        <pt x="721" y="1530" on="0"/>
        <pt x="750" y="1530" on="1"/>
        <pt x="779" y="1530" on="0"/>
        <pt x="820" y="1571" on="0"/>
        <pt x="820" y="1600" on="1"/>
        <pt x="820" y="1629" on="0"/>
        <pt x="779" y="1670" on="0"/>
        <pt x="750" y="1670" on="1"/>
        <pt x="721" y="1670" on="0"/>
        <pt x="680" y="1629" on="0"/>
      </contour>
      <contour>
        <pt x="5" y="47" on="1"/>
        <pt x="5" y="55" on="0"/>
        <pt x="13" y="55" on="1"/>
        <pt x="32" y="56" on="0"/>
        <pt x="83" y="65" on="0"/>
        <pt x="136" y="94" on="0"/>
        <pt x="186" y="151" on="0"/>
        <pt x="203" y="201" on="1"/>
        <pt x="605" y="1367" on="1"/>
        <pt x="605" y="1366" on="0"/>
        <pt x="606" y="1370" on="0"/>
        <pt x="606" y="1372" on="1"/>
        <pt x="606" y="1379" on="0"/>
        <pt x="595" y="1400" on="0"/>
        <pt x="595" y="1405" on="1"/>
        <pt x="595" y="1410" on="0"/>
        <pt x="599" y="1410" on="1"/>
        <pt x="889" y="1410" on="1"/>
        <pt x="891" y="1409" on="0"/>
        <pt x="898" y="1407" on="0"/>
        <pt x="900" y="1402" on="1"/>
        <pt x="1323" y="215" on="1"/>
        <pt x="1333" y="187" on="0"/>
        <pt x="1351" y="147" on="0"/>
        <pt x="1376" y="116" on="0"/>
        <pt x="1414" y="91" on="0"/>
        <pt x="1444" y="78" on="1"/>
        <pt x="1458" y="71" on="0"/>
        <pt x="1506" y="55" on="0"/>
        <pt x="1528" y="55" on="1"/>
        <pt x="1533" y="55" on="0"/>
        <pt x="1536" y="49" on="0"/>
        <pt x="1536" y="46" on="1"/>
        <pt x="1536" y="8" on="1"/>
        <pt x="1536" y="6" on="0"/>
        <pt x="1533" y="0" on="0"/>
        <pt x="1528" y="0" on="1"/>
        <pt x="826" y="0" on="1"/>
        <pt x="821" y="0" on="0"/>
        <pt x="818" y="6" on="0"/>
        <pt x="818" y="8" on="1"/>
        <pt x="818" y="47" on="1"/>
        <pt x="818" y="49" on="0"/>
        <pt x="821" y="55" on="0"/>
        <pt x="826" y="55" on="1"/>
        <pt x="830" y="55" on="0"/>
        <pt x="838" y="56" on="0"/>
        <pt x="840" y="56" on="1"/>
        <pt x="851" y="57" on="0"/>
        <pt x="892" y="59" on="0"/>
        <pt x="940" y="64" on="0"/>
        <pt x="989" y="75" on="0"/>
        <pt x="1029" y="96" on="0"/>
        <pt x="1055" y="130" on="0"/>
        <pt x="1055" y="155" on="1"/>
        <pt x="1055" y="161" on="0"/>
        <pt x="1053" y="169" on="1"/>
        <pt x="922" y="530" on="1"/>
        <pt x="921" y="532" on="0"/>
        <pt x="916" y="546" on="0"/>
        <pt x="905" y="561" on="0"/>
        <pt x="888" y="573" on="0"/>
        <pt x="876" y="573" on="1"/>
        <pt x="515" y="573" on="1"/>
        <pt x="502" y="573" on="0"/>
        <pt x="484" y="561" on="0"/>
        <pt x="472" y="547" on="0"/>
        <pt x="465" y="533" on="0"/>
        <pt x="465" y="532" on="1"/>
        <pt x="433" y="438" on="0"/>
        <pt x="389" y="309" on="0"/>
        <pt x="360" y="225" on="0"/>
        <pt x="344" y="179" on="0"/>
        <pt x="337" y="158" on="0"/>
        <pt x="336" y="153" on="0"/>
        <pt x="336" y="153" on="1"/>
        <pt x="336" y="150" on="0"/>
        <pt x="338" y="143" on="0"/>
        <pt x="339" y="140" on="1"/>
        <pt x="347" y="115" on="0"/>
        <pt x="390" y="82" on="0"/>
        <pt x="446" y="63" on="0"/>
        <pt x="505" y="55" on="0"/>
        <pt x="528" y="55" on="1"/>
        <pt x="554" y="55" on="1"/>
        <pt x="559" y="55" on="0"/>
        <pt x="562" y="49" on="0"/>
        <pt x="562" y="47" on="1"/>
        <pt x="562" y="8" on="1"/>
        <pt x="562" y="6" on="0"/>
        <pt x="559" y="0" on="0"/>
        <pt x="554" y="0" on="1"/>
        <pt x="13" y="0" on="1"/>
        <pt x="5" y="0" on="0"/>
        <pt x="5" y="8" on="1"/>
      </contour>
      <contour>
        <pt x="529" y="717" on="1"/>
        <pt x="527" y="712" on="0"/>
        <pt x="525" y="702" on="0"/>
        <pt x="525" y="697" on="1"/>
        <pt x="525" y="691" on="0"/>
        <pt x="531" y="684" on="0"/>
        <pt x="540" y="684" on="1"/>
        <pt x="840" y="684" on="1"/>
        <pt x="851" y="684" on="0"/>
        <pt x="858" y="693" on="0"/>
        <pt x="858" y="699" on="1"/>
        <pt x="858" y="704" on="0"/>
        <pt x="856" y="712" on="0"/>
        <pt x="854" y="717" on="1"/>
        <pt x="721" y="1082" on="1"/>
        <pt x="716" y="1096" on="0"/>
        <pt x="696" y="1109" on="0"/>
        <pt x="688" y="1109" on="1"/>
        <pt x="680" y="1109" on="0"/>
        <pt x="660" y="1094" on="0"/>
        <pt x="655" y="1081" on="1"/>
      </contour>
    </TTGlyph>
    <TTGlyph name="Atilde" xMin="5" yMin="0" xMax="1536" yMax="1948">
      <component glyphName="A" x="0" y="0" flags="0x1204"/>
      <component glyphName="tilde" x="394" y="560" flags="0x1004"/>
    </TTGlyph>
    <TTGlyph name="Atilde.sc" xMin="23" yMin="0" xMax="1035" yMax="1327">
      <component glyphName="A.sc" x="0" y="0" flags="0x1204"/>
      <component glyphName="Tilde.sc" x="-14" y="0" flags="0x1004"/>
    </TTGlyph>
    <TTGlyph name="B" xMin="10" yMin="0" xMax="1377" yMax="1428">
      <contour>
        <pt x="10" y="47" on="1"/>
        <pt x="10" y="49" on="0"/>
        <pt x="13" y="55" on="0"/>
        <pt x="18" y="55" on="1"/>
        <pt x="37" y="55" on="0"/>
        <pt x="95" y="59" on="0"/>
        <pt x="160" y="70" on="0"/>
        <pt x="226" y="90" on="0"/>
        <pt x="278" y="120" on="0"/>
        <pt x="311" y="162" on="0"/>
        <pt x="311" y="191" on="1"/>
        <pt x="311" y="1216" on="1"/>
        <pt x="311" y="1267" on="0"/>
        <pt x="281" y="1324" on="0"/>
        <pt x="230" y="1352" on="0"/>
        <pt x="162" y="1359" on="0"/>
        <pt x="123" y="1359" on="1"/>
        <pt x="66" y="1359" on="1"/>
        <pt x="61" y="1359" on="0"/>
        <pt x="58" y="1365" on="0"/>
        <pt x="58" y="1367" on="1"/>
        <pt x="58" y="1407" on="1"/>
        <pt x="58" y="1409" on="0"/>
        <pt x="61" y="1415" on="0"/>
        <pt x="66" y="1415" on="1"/>
        <pt x="67" y="1415" on="0"/>
        <pt x="86" y="1416" on="0"/>
        <pt x="134" y="1416" on="0"/>
        <pt x="216" y="1417" on="0"/>
        <pt x="282" y="1417" on="1"/>
        <pt x="296" y="1417" on="0"/>
        <pt x="365" y="1419" on="0"/>
        <pt x="454" y="1421" on="0"/>
        <pt x="553" y="1424" on="0"/>
        <pt x="642" y="1426" on="0"/>
        <pt x="712" y="1428" on="0"/>
        <pt x="728" y="1428" on="1"/>
        <pt x="779" y="1428" on="0"/>
        <pt x="904" y="1421" on="0"/>
        <pt x="1031" y="1397" on="0"/>
        <pt x="1151" y="1352" on="0"/>
        <pt x="1244" y="1277" on="0"/>
        <pt x="1300" y="1167" on="0"/>
        <pt x="1300" y="1090" on="1"/>
        <pt x="1300" y="1044" on="0"/>
        <pt x="1271" y="968" on="0"/>
        <pt x="1226" y="909" on="0"/>
        <pt x="1174" y="866" on="0"/>
        <pt x="1129" y="837" on="0"/>
        <pt x="1096" y="823" on="0"/>
        <pt x="1094" y="822" on="1"/>
        <pt x="1151" y="790" on="0"/>
        <pt x="1254" y="714" on="0"/>
        <pt x="1332" y="619" on="0"/>
        <pt x="1377" y="505" on="0"/>
        <pt x="1377" y="436" on="1"/>
        <pt x="1377" y="355" on="0"/>
        <pt x="1333" y="231" on="0"/>
        <pt x="1261" y="139" on="0"/>
        <pt x="1168" y="76" on="0"/>
        <pt x="1070" y="35" on="0"/>
        <pt x="973" y="12" on="0"/>
        <pt x="893" y="2" on="0"/>
        <pt x="838" y="0" on="0"/>
        <pt x="830" y="0" on="1"/>
        <pt x="18" y="0" on="1"/>
        <pt x="13" y="0" on="0"/>
        <pt x="10" y="6" on="0"/>
        <pt x="10" y="8" on="1"/>
      </contour>
      <contour>
        <pt x="601" y="266" on="1"/>
        <pt x="601" y="227" on="0"/>
        <pt x="641" y="164" on="0"/>
        <pt x="703" y="119" on="0"/>
        <pt x="780" y="94" on="0"/>
        <pt x="818" y="94" on="1"/>
        <pt x="882" y="94" on="0"/>
        <pt x="980" y="142" on="0"/>
        <pt x="1044" y="228" on="0"/>
        <pt x="1077" y="347" on="0"/>
        <pt x="1077" y="418" on="1"/>
        <pt x="1077" y="503" on="0"/>
        <pt x="1025" y="631" on="0"/>
        <pt x="931" y="717" on="0"/>
        <pt x="801" y="760" on="0"/>
        <pt x="723" y="760" on="1"/>
        <pt x="614" y="760" on="1"/>
        <pt x="604" y="760" on="0"/>
        <pt x="601" y="753" on="0"/>
        <pt x="601" y="749" on="1"/>
      </contour>
      <contour>
        <pt x="778" y="852" on="1"/>
        <pt x="826" y="852" on="0"/>
        <pt x="909" y="887" on="0"/>
        <pt x="970" y="949" on="0"/>
        <pt x="1005" y="1034" on="0"/>
        <pt x="1005" y="1084" on="1"/>
        <pt x="1005" y="1160" on="0"/>
        <pt x="968" y="1259" on="0"/>
        <pt x="896" y="1317" on="0"/>
        <pt x="789" y="1340" on="0"/>
        <pt x="719" y="1340" on="1"/>
        <pt x="704" y="1340" on="0"/>
        <pt x="663" y="1336" on="0"/>
        <pt x="625" y="1325" on="0"/>
        <pt x="599" y="1305" on="0"/>
        <pt x="599" y="1289" on="1"/>
        <pt x="599" y="871" on="1"/>
        <pt x="599" y="868" on="0"/>
        <pt x="605" y="852" on="0"/>
        <pt x="622" y="852" on="1"/>
      </contour>
    </TTGlyph>
    <TTGlyph name="B.sc" xMin="26" yMin="0" xMax="944" yMax="972">
      <contour>
        <pt x="26" y="42" on="1"/>
        <pt x="26" y="44" on="0"/>
        <pt x="29" y="48" on="0"/>
        <pt x="32" y="48" on="1"/>
        <pt x="51" y="48" on="0"/>
        <pt x="117" y="55" on="0"/>
        <pt x="181" y="74" on="0"/>
        <pt x="228" y="110" on="0"/>
        <pt x="228" y="139" on="1"/>
        <pt x="228" y="814" on="1"/>
        <pt x="225" y="848" on="0"/>
        <pt x="205" y="887" on="0"/>
        <pt x="172" y="906" on="0"/>
        <pt x="128" y="910" on="0"/>
        <pt x="102" y="910" on="1"/>
        <pt x="64" y="910" on="1"/>
        <pt x="59" y="910" on="0"/>
        <pt x="59" y="916" on="1"/>
        <pt x="59" y="959" on="1"/>
        <pt x="59" y="964" on="0"/>
        <pt x="64" y="964" on="1"/>
        <pt x="65" y="964" on="0"/>
        <pt x="78" y="964" on="0"/>
        <pt x="109" y="965" on="0"/>
        <pt x="165" y="965" on="0"/>
        <pt x="209" y="965" on="1"/>
        <pt x="218" y="965" on="0"/>
        <pt x="265" y="966" on="0"/>
        <pt x="324" y="968" on="0"/>
        <pt x="391" y="969" on="0"/>
        <pt x="451" y="971" on="0"/>
        <pt x="498" y="972" on="0"/>
        <pt x="509" y="972" on="1"/>
        <pt x="543" y="972" on="0"/>
        <pt x="627" y="965" on="0"/>
        <pt x="713" y="945" on="0"/>
        <pt x="793" y="911" on="0"/>
        <pt x="855" y="857" on="0"/>
        <pt x="893" y="781" on="0"/>
        <pt x="893" y="730" on="1"/>
        <pt x="893" y="683" on="0"/>
        <pt x="851" y="616" on="0"/>
        <pt x="800" y="572" on="0"/>
        <pt x="757" y="551" on="0"/>
        <pt x="755" y="550" on="1"/>
        <pt x="793" y="529" on="0"/>
        <pt x="862" y="478" on="0"/>
        <pt x="914" y="415" on="0"/>
        <pt x="944" y="338" on="0"/>
        <pt x="944" y="292" on="1"/>
        <pt x="944" y="219" on="0"/>
        <pt x="898" y="119" on="0"/>
        <pt x="826" y="55" on="0"/>
        <pt x="739" y="19" on="0"/>
        <pt x="658" y="3" on="0"/>
        <pt x="592" y="0" on="0"/>
        <pt x="578" y="0" on="1"/>
        <pt x="32" y="0" on="1"/>
        <pt x="28" y="0" on="0"/>
        <pt x="26" y="4" on="0"/>
        <pt x="26" y="5" on="1"/>
      </contour>
      <contour>
        <pt x="393" y="169" on="1"/>
        <pt x="393" y="143" on="0"/>
        <pt x="419" y="104" on="0"/>
        <pt x="461" y="77" on="0"/>
        <pt x="513" y="64" on="0"/>
        <pt x="538" y="64" on="1"/>
        <pt x="585" y="64" on="0"/>
        <pt x="670" y="95" on="0"/>
        <pt x="734" y="152" on="0"/>
        <pt x="772" y="232" on="0"/>
        <pt x="772" y="280" on="1"/>
        <pt x="772" y="337" on="0"/>
        <pt x="731" y="424" on="0"/>
        <pt x="660" y="483" on="0"/>
        <pt x="563" y="512" on="0"/>
        <pt x="508" y="512" on="1"/>
        <pt x="401" y="512" on="1"/>
        <pt x="395" y="512" on="0"/>
        <pt x="393" y="507" on="0"/>
        <pt x="393" y="505" on="1"/>
      </contour>
      <contour>
        <pt x="392" y="587" on="1"/>
        <pt x="392" y="585" on="0"/>
        <pt x="395" y="574" on="0"/>
        <pt x="406" y="574" on="1"/>
        <pt x="571" y="574" on="1"/>
        <pt x="604" y="574" on="0"/>
        <pt x="659" y="596" on="0"/>
        <pt x="700" y="637" on="0"/>
        <pt x="723" y="693" on="0"/>
        <pt x="723" y="727" on="1"/>
        <pt x="723" y="777" on="0"/>
        <pt x="691" y="849" on="0"/>
        <pt x="633" y="896" on="0"/>
        <pt x="553" y="918" on="0"/>
        <pt x="505" y="918" on="1"/>
        <pt x="470" y="916" on="0"/>
        <pt x="427" y="916" on="0"/>
        <pt x="401" y="912" on="0"/>
        <pt x="392" y="899" on="0"/>
        <pt x="392" y="884" on="1"/>
        <pt x="392" y="627" on="1"/>
      </contour>
    </TTGlyph>
    <TTGlyph name="Beta" xMin="10" yMin="0" xMax="1377" yMax="1428">
      <component glyphName="B" x="0" y="0" flags="0x1204"/>
    </TTGlyph>
    <TTGlyph name="Breve.sc" xMin="343" yMin="1101" xMax="707" yMax="1310">
      <contour>
        <pt x="526" y="1101" on="1"/>
        <pt x="487" y="1101" on="0"/>
        <pt x="421" y="1136" on="0"/>
        <pt x="371" y="1194" on="0"/>
        <pt x="343" y="1269" on="0"/>
        <pt x="343" y="1310" on="1"/>
        <pt x="364" y="1310" on="1"/>
        <pt x="364" y="1280" on="0"/>
        <pt x="396" y="1233" on="0"/>
        <pt x="444" y="1199" on="0"/>
        <pt x="501" y="1181" on="0"/>
        <pt x="526" y="1181" on="1"/>
        <pt x="551" y="1181" on="0"/>
        <pt x="607" y="1206" on="0"/>
        <pt x="654" y="1245" on="0"/>
        <pt x="685" y="1290" on="0"/>
        <pt x="685" y="1310" on="1"/>
        <pt x="707" y="1310" on="1"/>
        <pt x="707" y="1273" on="0"/>
        <pt x="678" y="1198" on="0"/>
        <pt x="628" y="1138" on="0"/>
        <pt x="562" y="1101" on="0"/>
      </contour>
    </TTGlyph>
    <TTGlyph name="C" xMin="105" yMin="-27" xMax="1512" yMax="1452">
      <contour>
        <pt x="105" y="696" on="1"/>
        <pt x="105" y="808" on="0"/>
        <pt x="161" y="1007" on="0"/>
        <pt x="263" y="1175" on="0"/>
        <pt x="407" y="1309" on="0"/>
        <pt x="582" y="1402" on="0"/>
        <pt x="782" y="1452" on="0"/>
        <pt x="891" y="1452" on="1"/>
        <pt x="983" y="1452" on="0"/>
        <pt x="1154" y="1419" on="0"/>
        <pt x="1245" y="1397" on="1"/>
        <pt x="1260" y="1393" on="0"/>
        <pt x="1293" y="1381" on="0"/>
        <pt x="1322" y="1370" on="0"/>
        <pt x="1346" y="1362" on="0"/>
        <pt x="1352" y="1362" on="1"/>
        <pt x="1354" y="1362" on="0"/>
        <pt x="1377" y="1370" on="0"/>
        <pt x="1382" y="1370" on="1"/>
        <pt x="1428" y="1370" on="1"/>
        <pt x="1440" y="1370" on="0"/>
        <pt x="1440" y="1353" on="1"/>
        <pt x="1440" y="1027" on="1"/>
        <pt x="1440" y="1021" on="0"/>
        <pt x="1431" y="1017" on="0"/>
        <pt x="1416" y="1017" on="1"/>
        <pt x="1413" y="1017" on="0"/>
        <pt x="1388" y="1018" on="0"/>
        <pt x="1385" y="1023" on="1"/>
        <pt x="1383" y="1026" on="0"/>
        <pt x="1372" y="1044" on="0"/>
        <pt x="1359" y="1063" on="0"/>
        <pt x="1348" y="1080" on="0"/>
        <pt x="1347" y="1083" on="1"/>
        <pt x="1309" y="1158" on="0"/>
        <pt x="1219" y="1261" on="0"/>
        <pt x="1110" y="1325" on="0"/>
        <pt x="982" y="1354" on="0"/>
        <pt x="907" y="1354" on="1"/>
        <pt x="812" y="1354" on="0"/>
        <pt x="665" y="1310" on="0"/>
        <pt x="555" y="1230" on="0"/>
        <pt x="480" y="1118" on="0"/>
        <pt x="433" y="985" on="0"/>
        <pt x="412" y="834" on="0"/>
        <pt x="412" y="754" on="1"/>
        <pt x="412" y="669" on="0"/>
        <pt x="436" y="502" on="0"/>
        <pt x="490" y="351" on="0"/>
        <pt x="575" y="222" on="0"/>
        <pt x="695" y="127" on="0"/>
        <pt x="855" y="73" on="0"/>
        <pt x="956" y="73" on="1"/>
        <pt x="1041" y="73" on="0"/>
        <pt x="1188" y="124" on="0"/>
        <pt x="1310" y="211" on="0"/>
        <pt x="1405" y="324" on="0"/>
        <pt x="1439" y="386" on="1"/>
        <pt x="1441" y="391" on="0"/>
        <pt x="1446" y="392" on="0"/>
        <pt x="1451" y="392" on="1"/>
        <pt x="1502" y="392" on="1"/>
        <pt x="1505" y="392" on="0"/>
        <pt x="1512" y="387" on="0"/>
        <pt x="1512" y="379" on="1"/>
        <pt x="1512" y="376" on="0"/>
        <pt x="1503" y="351" on="0"/>
        <pt x="1498" y="342" on="1"/>
        <pt x="1360" y="38" on="1"/>
        <pt x="1358" y="35" on="0"/>
        <pt x="1350" y="31" on="0"/>
        <pt x="1347" y="31" on="1"/>
        <pt x="1323" y="31" on="0"/>
        <pt x="1304" y="39" on="0"/>
        <pt x="1294" y="39" on="1"/>
        <pt x="1264" y="39" on="0"/>
        <pt x="1165" y="18" on="0"/>
        <pt x="1050" y="-6" on="0"/>
        <pt x="933" y="-27" on="0"/>
        <pt x="887" y="-27" on="1"/>
        <pt x="782" y="-27" on="0"/>
        <pt x="584" y="19" on="0"/>
        <pt x="410" y="106" on="0"/>
        <pt x="266" y="233" on="0"/>
        <pt x="162" y="393" on="0"/>
        <pt x="105" y="586" on="0"/>
      </contour>
    </TTGlyph>
    <TTGlyph name="C.sc" xMin="97" yMin="-18" xMax="1066" yMax="972">
      <contour>
        <pt x="97" y="466" on="1"/>
        <pt x="97" y="578" on="0"/>
        <pt x="180" y="764" on="0"/>
        <pt x="327" y="898" on="0"/>
        <pt x="527" y="972" on="0"/>
        <pt x="644" y="972" on="1"/>
        <pt x="707" y="972" on="0"/>
        <pt x="820" y="950" on="0"/>
        <pt x="881" y="936" on="1"/>
        <pt x="901" y="930" on="0"/>
        <pt x="945" y="912" on="0"/>
        <pt x="953" y="912" on="1"/>
        <pt x="954" y="912" on="0"/>
        <pt x="970" y="918" on="0"/>
        <pt x="973" y="918" on="1"/>
        <pt x="1014" y="918" on="1"/>
        <pt x="1023" y="918" on="0"/>
        <pt x="1023" y="906" on="1"/>
        <pt x="1023" y="698" on="1"/>
        <pt x="1023" y="694" on="0"/>
        <pt x="1007" y="691" on="0"/>
        <pt x="996" y="691" on="1"/>
        <pt x="994" y="691" on="0"/>
        <pt x="977" y="692" on="0"/>
        <pt x="975" y="695" on="1"/>
        <pt x="972" y="700" on="0"/>
        <pt x="962" y="721" on="0"/>
        <pt x="960" y="726" on="1"/>
        <pt x="935" y="776" on="0"/>
        <pt x="871" y="845" on="0"/>
        <pt x="794" y="887" on="0"/>
        <pt x="705" y="906" on="0"/>
        <pt x="655" y="906" on="1"/>
        <pt x="560" y="906" on="0"/>
        <pt x="420" y="849" on="0"/>
        <pt x="328" y="744" on="0"/>
        <pt x="284" y="596" on="0"/>
        <pt x="284" y="505" on="1"/>
        <pt x="284" y="410" on="0"/>
        <pt x="334" y="247" on="0"/>
        <pt x="435" y="128" on="0"/>
        <pt x="586" y="60" on="0"/>
        <pt x="688" y="60" on="1"/>
        <pt x="741" y="60" on="0"/>
        <pt x="841" y="86" on="0"/>
        <pt x="927" y="134" on="0"/>
        <pt x="998" y="204" on="0"/>
        <pt x="1022" y="249" on="1"/>
        <pt x="1024" y="253" on="0"/>
        <pt x="1029" y="253" on="1"/>
        <pt x="1059" y="253" on="1"/>
        <pt x="1066" y="253" on="0"/>
        <pt x="1066" y="244" on="1"/>
        <pt x="1066" y="239" on="0"/>
        <pt x="1062" y="228" on="0"/>
        <pt x="1043" y="187" on="0"/>
        <pt x="1004" y="103" on="0"/>
        <pt x="969" y="25" on="1"/>
        <pt x="968" y="23" on="0"/>
        <pt x="963" y="21" on="0"/>
        <pt x="961" y="21" on="1"/>
        <pt x="945" y="25" on="0"/>
        <pt x="912" y="26" on="0"/>
        <pt x="904" y="26" on="1"/>
        <pt x="884" y="26" on="0"/>
        <pt x="821" y="12" on="0"/>
        <pt x="748" y="-4" on="0"/>
        <pt x="673" y="-18" on="0"/>
        <pt x="642" y="-18" on="1"/>
        <pt x="528" y="-18" on="0"/>
        <pt x="329" y="50" on="0"/>
        <pt x="182" y="176" on="0"/>
        <pt x="97" y="355" on="0"/>
      </contour>
    </TTGlyph>
    <TTGlyph name="Cacute" xMin="105" yMin="-27" xMax="1512" yMax="1970">
      <component glyphName="C" x="0" y="0" flags="0x1204"/>
      <component glyphName="acute" x="570" y="498" flags="0x1004"/>
    </TTGlyph>
    <TTGlyph name="Caron" xMin="36" yMin="1559" xMax="586" yMax="1949">
      <contour>
        <pt x="553" y="1945" on="1"/>
        <pt x="557" y="1949" on="0"/>
        <pt x="561" y="1949" on="1"/>
        <pt x="564" y="1949" on="0"/>
        <pt x="572" y="1941" on="0"/>
        <pt x="580" y="1930" on="0"/>
        <pt x="586" y="1920" on="0"/>
        <pt x="586" y="1917" on="1"/>
        <pt x="586" y="1912" on="0"/>
        <pt x="579" y="1902" on="1"/>
        <pt x="331" y="1581" on="1"/>
        <pt x="325" y="1573" on="0"/>
        <pt x="310" y="1559" on="0"/>
        <pt x="305" y="1559" on="1"/>
        <pt x="300" y="1559" on="0"/>
        <pt x="285" y="1574" on="0"/>
        <pt x="280" y="1581" on="1"/>
        <pt x="43" y="1902" on="1"/>
        <pt x="36" y="1912" on="0"/>
        <pt x="36" y="1917" on="1"/>
        <pt x="36" y="1920" on="0"/>
        <pt x="42" y="1930" on="0"/>
        <pt x="50" y="1941" on="0"/>
        <pt x="58" y="1949" on="0"/>
        <pt x="61" y="1949" on="1"/>
        <pt x="63" y="1949" on="0"/>
        <pt x="69" y="1947" on="0"/>
        <pt x="71" y="1945" on="1"/>
        <pt x="285" y="1721" on="1"/>
        <pt x="288" y="1718" on="0"/>
        <pt x="303" y="1700" on="0"/>
        <pt x="305" y="1700" on="1"/>
        <pt x="307" y="1700" on="0"/>
        <pt x="323" y="1718" on="0"/>
        <pt x="326" y="1721" on="1"/>
      </contour>
    </TTGlyph>
    <TTGlyph name="Caron.sc" xMin="340" yMin="1066" xMax="709" yMax="1327">
      <contour>
        <pt x="687" y="1324" on="1"/>
        <pt x="690" y="1327" on="0"/>
        <pt x="692" y="1327" on="1"/>
        <pt x="695" y="1327" on="0"/>
        <pt x="709" y="1309" on="0"/>
        <pt x="709" y="1306" on="1"/>
        <pt x="709" y="1302" on="0"/>
        <pt x="703" y="1296" on="1"/>
        <pt x="538" y="1080" on="1"/>
        <pt x="533" y="1075" on="0"/>
        <pt x="524" y="1066" on="0"/>
        <pt x="521" y="1066" on="1"/>
        <pt x="517" y="1066" on="0"/>
        <pt x="507" y="1075" on="0"/>
        <pt x="504" y="1080" on="1"/>
        <pt x="344" y="1296" on="1"/>
        <pt x="340" y="1301" on="0"/>
        <pt x="340" y="1306" on="1"/>
        <pt x="340" y="1309" on="0"/>
        <pt x="353" y="1327" on="0"/>
        <pt x="357" y="1327" on="1"/>
        <pt x="360" y="1327" on="0"/>
        <pt x="363" y="1324" on="1"/>
        <pt x="418" y="1267" on="0"/>
        <pt x="480" y="1201" on="0"/>
        <pt x="512" y="1168" on="0"/>
        <pt x="520" y="1160" on="0"/>
        <pt x="521" y="1160" on="1"/>
      </contour>
    </TTGlyph>
    <TTGlyph name="Ccaron" xMin="105" yMin="-27" xMax="1512" yMax="1970">
      <component glyphName="C" x="0" y="0" flags="0x1204"/>
      <component glyphName="caron" x="540" y="497" flags="0x1004"/>
    </TTGlyph>
    <TTGlyph name="Ccedilla" xMin="105" yMin="-537" xMax="1512" yMax="1452">
      <contour>
        <pt x="105" y="696" on="1"/>
        <pt x="105" y="808" on="0"/>
        <pt x="161" y="1007" on="0"/>
        <pt x="263" y="1175" on="0"/>
        <pt x="407" y="1309" on="0"/>
        <pt x="582" y="1402" on="0"/>
        <pt x="782" y="1452" on="0"/>
        <pt x="891" y="1452" on="1"/>
        <pt x="983" y="1452" on="0"/>
        <pt x="1154" y="1419" on="0"/>
        <pt x="1245" y="1397" on="1"/>
        <pt x="1260" y="1393" on="0"/>
        <pt x="1293" y="1381" on="0"/>
        <pt x="1322" y="1370" on="0"/>
        <pt x="1346" y="1362" on="0"/>
        <pt x="1352" y="1362" on="1"/>
        <pt x="1354" y="1362" on="0"/>
        <pt x="1377" y="1370" on="0"/>
        <pt x="1382" y="1370" on="1"/>
        <pt x="1428" y="1370" on="1"/>
        <pt x="1440" y="1370" on="0"/>
        <pt x="1440" y="1353" on="1"/>
        <pt x="1440" y="1027" on="1"/>
        <pt x="1440" y="1021" on="0"/>
        <pt x="1431" y="1017" on="0"/>
        <pt x="1416" y="1017" on="1"/>
        <pt x="1413" y="1017" on="0"/>
        <pt x="1388" y="1018" on="0"/>
        <pt x="1385" y="1023" on="1"/>
        <pt x="1383" y="1026" on="0"/>
        <pt x="1372" y="1044" on="0"/>
        <pt x="1359" y="1063" on="0"/>
        <pt x="1348" y="1080" on="0"/>
        <pt x="1347" y="1083" on="1"/>
        <pt x="1309" y="1158" on="0"/>
        <pt x="1219" y="1261" on="0"/>
        <pt x="1110" y="1325" on="0"/>
        <pt x="982" y="1354" on="0"/>
        <pt x="907" y="1354" on="1"/>
        <pt x="812" y="1354" on="0"/>
        <pt x="665" y="1310" on="0"/>
        <pt x="555" y="1230" on="0"/>
        <pt x="480" y="1118" on="0"/>
        <pt x="433" y="985" on="0"/>
        <pt x="412" y="834" on="0"/>
        <pt x="412" y="754" on="1"/>
        <pt x="412" y="669" on="0"/>
        <pt x="436" y="502" on="0"/>
        <pt x="490" y="351" on="0"/>
        <pt x="575" y="222" on="0"/>
        <pt x="695" y="127" on="0"/>
        <pt x="855" y="73" on="0"/>
        <pt x="956" y="73" on="1"/>
        <pt x="1041" y="73" on="0"/>
        <pt x="1188" y="124" on="0"/>
        <pt x="1310" y="211" on="0"/>
        <pt x="1405" y="324" on="0"/>
        <pt x="1439" y="386" on="1"/>
        <pt x="1441" y="391" on="0"/>
        <pt x="1446" y="392" on="0"/>
        <pt x="1451" y="392" on="1"/>
        <pt x="1502" y="392" on="1"/>
        <pt x="1505" y="392" on="0"/>
        <pt x="1512" y="387" on="0"/>
        <pt x="1512" y="379" on="1"/>
        <pt x="1512" y="376" on="0"/>
        <pt x="1503" y="351" on="0"/>
        <pt x="1498" y="342" on="1"/>
        <pt x="1360" y="38" on="1"/>
        <pt x="1358" y="35" on="0"/>
        <pt x="1350" y="31" on="0"/>
        <pt x="1347" y="31" on="1"/>
        <pt x="1323" y="31" on="0"/>
        <pt x="1304" y="39" on="0"/>
        <pt x="1294" y="39" on="1"/>
        <pt x="1265" y="39" on="0"/>
        <pt x="1171" y="20" on="0"/>
        <pt x="1062" y="-3" on="0"/>
        <pt x="949" y="-24" on="0"/>
        <pt x="902" y="-26" on="1"/>
        <pt x="798" y="-150" on="1"/>
        <pt x="837" y="-165" on="0"/>
        <pt x="889" y="-209" on="0"/>
        <pt x="920" y="-253" on="0"/>
        <pt x="933" y="-293" on="0"/>
        <pt x="933" y="-305" on="1"/>
        <pt x="933" y="-367" on="0"/>
        <pt x="867" y="-455" on="0"/>
        <pt x="762" y="-511" on="0"/>
        <pt x="633" y="-537" on="0"/>
        <pt x="569" y="-537" on="1"/>
        <pt x="529" y="-537" on="0"/>
        <pt x="474" y="-521" on="0"/>
        <pt x="474" y="-489" on="1"/>
        <pt x="474" y="-481" on="0"/>
        <pt x="493" y="-458" on="0"/>
        <pt x="513" y="-450" on="1"/>
        <pt x="521" y="-447" on="0"/>
        <pt x="551" y="-442" on="0"/>
        <pt x="568" y="-439" on="1"/>
        <pt x="592" y="-435" on="0"/>
        <pt x="649" y="-423" on="0"/>
        <pt x="697" y="-398" on="0"/>
        <pt x="730" y="-357" on="0"/>
        <pt x="730" y="-324" on="1"/>
        <pt x="730" y="-302" on="0"/>
        <pt x="694" y="-268" on="0"/>
        <pt x="644" y="-243" on="0"/>
        <pt x="590" y="-229" on="0"/>
        <pt x="571" y="-227" on="1"/>
        <pt x="742" y="-15" on="1"/>
        <pt x="608" y="6" on="0"/>
        <pt x="376" y="124" on="0"/>
        <pt x="204" y="307" on="0"/>
        <pt x="105" y="550" on="0"/>
      </contour>
    </TTGlyph>
    <TTGlyph name="Ccedilla.sc" xMin="97" yMin="-372" xMax="1066" yMax="972">
      <component glyphName="C.sc" x="0" y="0" flags="0x1204"/>
      <component glyphName="Cedilla.sc" x="0" y="0" flags="0x1004"/>
    </TTGlyph>
    <TTGlyph name="Ccircumflex" xMin="105" yMin="-27" xMax="1512" yMax="1970">
      <component glyphName="C" x="0" y="0" flags="0x1204"/>
      <component glyphName="circumflex" x="560" y="497" flags="0x1004"/>
    </TTGlyph>
    <TTGlyph name="Cdotaccent" xMin="105" yMin="-27" xMax="1512" yMax="1937">
      <component glyphName="C" x="0" y="0" flags="0x1204"/>
      <component glyphName="dotaccent" x="480" y="571" flags="0x1004"/>
    </TTGlyph>
    <TTGlyph name="Cedilla.sc" xMin="395" yMin="-372" xMax="655" yMax="-16">
      <contour>
        <pt x="650" y="-16" on="1"/>
        <pt x="562" y="-119" on="1"/>
        <pt x="589" y="-127" on="0"/>
        <pt x="625" y="-154" on="0"/>
        <pt x="646" y="-184" on="0"/>
        <pt x="655" y="-212" on="0"/>
        <pt x="655" y="-221" on="1"/>
        <pt x="651" y="-259" on="0"/>
        <pt x="610" y="-313" on="0"/>
        <pt x="548" y="-349" on="0"/>
        <pt x="472" y="-368" on="0"/>
        <pt x="433" y="-372" on="1"/>
        <pt x="415" y="-372" on="0"/>
        <pt x="395" y="-365" on="0"/>
        <pt x="395" y="-351" on="1"/>
        <pt x="395" y="-344" on="0"/>
        <pt x="397" y="-338" on="0"/>
        <pt x="405" y="-333" on="1"/>
        <pt x="417" y="-326" on="0"/>
        <pt x="470" y="-316" on="0"/>
        <pt x="524" y="-296" on="0"/>
        <pt x="566" y="-263" on="0"/>
        <pt x="566" y="-233" on="1"/>
        <pt x="566" y="-216" on="0"/>
        <pt x="543" y="-190" on="0"/>
        <pt x="512" y="-172" on="0"/>
        <pt x="477" y="-161" on="0"/>
        <pt x="465" y="-160" on="1"/>
        <pt x="582" y="-16" on="1"/>
      </contour>
    </TTGlyph>
    <TTGlyph name="Chi" xMin="5" yMin="0" xMax="1720" yMax="1410">
      <component glyphName="X" x="0" y="0" flags="0x1204"/>
    </TTGlyph>
    <TTGlyph name="Circumflex.sc" xMin="340" yMin="1066" xMax="709" yMax="1327">
      <contour>
        <pt x="534" y="1219" on="1"/>
        <pt x="532" y="1221" on="0"/>
        <pt x="523" y="1233" on="0"/>
        <pt x="521" y="1233" on="1"/>
        <pt x="519" y="1233" on="0"/>
        <pt x="509" y="1221" on="0"/>
        <pt x="507" y="1219" on="1"/>
        <pt x="363" y="1069" on="1"/>
        <pt x="360" y="1066" on="0"/>
        <pt x="357" y="1066" on="1"/>
        <pt x="353" y="1066" on="0"/>
        <pt x="340" y="1084" on="0"/>
        <pt x="340" y="1088" on="1"/>
        <pt x="340" y="1092" on="0"/>
        <pt x="344" y="1097" on="1"/>
        <pt x="504" y="1314" on="1"/>
        <pt x="508" y="1318" on="0"/>
        <pt x="517" y="1327" on="0"/>
        <pt x="521" y="1327" on="1"/>
        <pt x="524" y="1327" on="0"/>
        <pt x="533" y="1317" on="0"/>
        <pt x="538" y="1312" on="1"/>
        <pt x="703" y="1097" on="1"/>
        <pt x="709" y="1091" on="0"/>
        <pt x="709" y="1088" on="1"/>
        <pt x="709" y="1084" on="0"/>
        <pt x="695" y="1066" on="0"/>
        <pt x="692" y="1066" on="1"/>
        <pt x="690" y="1066" on="0"/>
        <pt x="687" y="1069" on="1"/>
      </contour>
    </TTGlyph>
    <TTGlyph name="Copt-ph" xMin="125" yMin="0" xMax="1799" yMax="1645">
      <contour>
        <pt x="125" y="1245" on="1"/>
        <pt x="125" y="1328" on="0"/>
        <pt x="188" y="1474" on="0"/>
        <pt x="296" y="1582" on="0"/>
        <pt x="442" y="1645" on="0"/>
        <pt x="525" y="1645" on="1"/>
        <pt x="1399" y="1645" on="1"/>
        <pt x="1482" y="1645" on="0"/>
        <pt x="1628" y="1582" on="0"/>
        <pt x="1736" y="1474" on="0"/>
        <pt x="1799" y="1328" on="0"/>
        <pt x="1799" y="1245" on="1"/>
        <pt x="1799" y="400" on="1"/>
        <pt x="1799" y="317" on="0"/>
        <pt x="1736" y="171" on="0"/>
        <pt x="1627" y="63" on="0"/>
        <pt x="1481" y="0" on="0"/>
        <pt x="1398" y="0" on="1"/>
        <pt x="526" y="0" on="1"/>
        <pt x="443" y="0" on="0"/>
        <pt x="297" y="63" on="0"/>
        <pt x="188" y="171" on="0"/>
        <pt x="125" y="317" on="0"/>
        <pt x="125" y="400" on="1"/>
      </contour>
      <contour>
        <pt x="526" y="1495" on="1"/>
        <pt x="474" y="1495" on="0"/>
        <pt x="383" y="1456" on="0"/>
        <pt x="315" y="1388" on="0"/>
        <pt x="275" y="1297" on="0"/>
        <pt x="275" y="1245" on="1"/>
        <pt x="275" y="400" on="1"/>
        <pt x="275" y="348" on="0"/>
        <pt x="315" y="257" on="0"/>
        <pt x="384" y="189" on="0"/>
        <pt x="475" y="150" on="0"/>
        <pt x="526" y="150" on="1"/>
        <pt x="1398" y="150" on="1"/>
        <pt x="1449" y="150" on="0"/>
        <pt x="1540" y="189" on="0"/>
        <pt x="1609" y="257" on="0"/>
        <pt x="1649" y="348" on="0"/>
        <pt x="1649" y="400" on="1"/>
        <pt x="1649" y="1245" on="1"/>
        <pt x="1649" y="1297" on="0"/>
        <pt x="1609" y="1388" on="0"/>
        <pt x="1541" y="1456" on="0"/>
        <pt x="1450" y="1495" on="0"/>
        <pt x="1398" y="1495" on="1"/>
      </contour>
      <contour>
        <pt x="818" y="426" on="1"/>
        <pt x="786" y="426" on="0"/>
        <pt x="739" y="402" on="0"/>
        <pt x="694" y="373" on="0"/>
        <pt x="642" y="349" on="0"/>
        <pt x="606" y="349" on="1"/>
        <pt x="576" y="349" on="0"/>
        <pt x="509" y="382" on="0"/>
        <pt x="451" y="436" on="0"/>
        <pt x="413" y="505" on="0"/>
        <pt x="413" y="541" on="1"/>
        <pt x="413" y="597" on="0"/>
        <pt x="470" y="659" on="0"/>
        <pt x="523" y="659" on="1"/>
        <pt x="544" y="659" on="0"/>
        <pt x="587" y="650" on="0"/>
        <pt x="621" y="630" on="0"/>
        <pt x="643" y="598" on="0"/>
        <pt x="643" y="576" on="1"/>
        <pt x="643" y="553" on="0"/>
        <pt x="620" y="483" on="0"/>
        <pt x="586" y="444" on="1"/>
        <pt x="597" y="442" on="0"/>
        <pt x="617" y="440" on="0"/>
        <pt x="627" y="440" on="1"/>
        <pt x="674" y="440" on="0"/>
        <pt x="741" y="480" on="0"/>
        <pt x="787" y="550" on="0"/>
        <pt x="815" y="646" on="0"/>
        <pt x="829" y="755" on="0"/>
        <pt x="834" y="874" on="0"/>
        <pt x="834" y="933" on="1"/>
        <pt x="834" y="1068" on="0"/>
        <pt x="765" y="1212" on="0"/>
        <pt x="693" y="1212" on="1"/>
        <pt x="686" y="1212" on="0"/>
        <pt x="674" y="1212" on="0"/>
        <pt x="666" y="1210" on="1"/>
        <pt x="686" y="1193" on="0"/>
        <pt x="707" y="1143" on="0"/>
        <pt x="707" y="1117" on="1"/>
        <pt x="707" y="1096" on="0"/>
        <pt x="694" y="1058" on="0"/>
        <pt x="670" y="1028" on="0"/>
        <pt x="634" y="1010" on="0"/>
        <pt x="610" y="1010" on="1"/>
        <pt x="587" y="1010" on="0"/>
        <pt x="541" y="1026" on="0"/>
        <pt x="505" y="1056" on="0"/>
        <pt x="482" y="1101" on="0"/>
        <pt x="482" y="1131" on="1"/>
        <pt x="482" y="1148" on="0"/>
        <pt x="486" y="1185" on="0"/>
        <pt x="490" y="1206" on="1"/>
        <pt x="517" y="1239" on="0"/>
        <pt x="566" y="1287" on="0"/>
        <pt x="625" y="1319" on="0"/>
        <pt x="698" y="1335" on="0"/>
        <pt x="749" y="1335" on="1"/>
        <pt x="860" y="1335" on="0"/>
        <pt x="1021" y="1274" on="0"/>
        <pt x="1137" y="1169" on="0"/>
        <pt x="1216" y="1028" on="0"/>
        <pt x="1276" y="866" on="0"/>
        <pt x="1325" y="691" on="0"/>
        <pt x="1352" y="606" on="1"/>
        <pt x="1362" y="586" on="0"/>
        <pt x="1401" y="540" on="0"/>
        <pt x="1449" y="492" on="0"/>
        <pt x="1500" y="445" on="0"/>
        <pt x="1541" y="402" on="0"/>
        <pt x="1568" y="365" on="0"/>
        <pt x="1568" y="351" on="1"/>
        <pt x="1568" y="336" on="0"/>
        <pt x="1530" y="319" on="0"/>
        <pt x="1484" y="319" on="1"/>
        <pt x="1439" y="319" on="0"/>
        <pt x="1368" y="335" on="0"/>
        <pt x="1304" y="369" on="0"/>
        <pt x="1241" y="422" on="0"/>
        <pt x="1204" y="460" on="1"/>
        <pt x="1188" y="449" on="0"/>
        <pt x="1137" y="412" on="0"/>
        <pt x="1081" y="376" on="0"/>
        <pt x="1027" y="349" on="0"/>
        <pt x="1007" y="349" on="1"/>
        <pt x="975" y="349" on="0"/>
        <pt x="933" y="373" on="0"/>
        <pt x="894" y="402" on="0"/>
        <pt x="850" y="426" on="0"/>
      </contour>
      <contour>
        <pt x="1011" y="415" on="1"/>
        <pt x="1049" y="415" on="0"/>
        <pt x="1107" y="463" on="0"/>
        <pt x="1145" y="542" on="0"/>
        <pt x="1164" y="642" on="0"/>
        <pt x="1164" y="695" on="1"/>
        <pt x="1164" y="800" on="0"/>
        <pt x="1103" y="991" on="0"/>
        <pt x="1003" y="1138" on="0"/>
        <pt x="872" y="1227" on="0"/>
        <pt x="802" y="1229" on="1"/>
        <pt x="823" y="1216" on="0"/>
        <pt x="862" y="1158" on="0"/>
        <pt x="894" y="1078" on="0"/>
        <pt x="913" y="983" on="0"/>
        <pt x="913" y="932" on="1"/>
        <pt x="913" y="885" on="0"/>
        <pt x="904" y="801" on="0"/>
        <pt x="890" y="709" on="0"/>
        <pt x="873" y="604" on="0"/>
        <pt x="865" y="537" on="1"/>
        <pt x="865" y="526" on="0"/>
        <pt x="889" y="485" on="0"/>
        <pt x="929" y="445" on="0"/>
        <pt x="982" y="415" on="0"/>
      </contour>
    </TTGlyph>
    <TTGlyph name="D" xMin="45" yMin="0" xMax="1664" yMax="1422">
      <contour>
        <pt x="53" y="0" on="1"/>
        <pt x="47" y="0" on="0"/>
        <pt x="45" y="7" on="0"/>
        <pt x="45" y="8" on="1"/>
        <pt x="45" y="51" on="1"/>
        <pt x="45" y="52" on="0"/>
        <pt x="47" y="59" on="0"/>
        <pt x="53" y="59" on="1"/>
        <pt x="75" y="59" on="1"/>
        <pt x="96" y="59" on="0"/>
        <pt x="158" y="64" on="0"/>
        <pt x="216" y="87" on="0"/>
        <pt x="257" y="134" on="0"/>
        <pt x="257" y="175" on="1"/>
        <pt x="257" y="1241" on="1"/>
        <pt x="257" y="1272" on="0"/>
        <pt x="230" y="1315" on="0"/>
        <pt x="189" y="1342" on="0"/>
        <pt x="139" y="1354" on="0"/>
        <pt x="117" y="1354" on="1"/>
        <pt x="53" y="1354" on="1"/>
        <pt x="47" y="1354" on="0"/>
        <pt x="45" y="1361" on="0"/>
        <pt x="45" y="1362" on="1"/>
        <pt x="45" y="1405" on="1"/>
        <pt x="45" y="1406" on="0"/>
        <pt x="47" y="1413" on="0"/>
        <pt x="53" y="1413" on="1"/>
        <pt x="75" y="1413" on="1"/>
        <pt x="486" y="1420" on="1"/>
        <pt x="544" y="1421" on="0"/>
        <pt x="679" y="1422" on="0"/>
        <pt x="737" y="1422" on="1"/>
        <pt x="800" y="1422" on="0"/>
        <pt x="900" y="1419" on="0"/>
        <pt x="992" y="1410" on="0"/>
        <pt x="1086" y="1396" on="0"/>
        <pt x="1144" y="1384" on="1"/>
        <pt x="1255" y="1361" on="0"/>
        <pt x="1446" y="1237" on="0"/>
        <pt x="1585" y="1061" on="0"/>
        <pt x="1664" y="847" on="0"/>
        <pt x="1664" y="735" on="1"/>
        <pt x="1664" y="627" on="0"/>
        <pt x="1604" y="434" on="0"/>
        <pt x="1497" y="271" on="0"/>
        <pt x="1350" y="140" on="0"/>
        <pt x="1174" y="49" on="0"/>
        <pt x="976" y="0" on="0"/>
        <pt x="872" y="0" on="1"/>
        <pt x="82" y="0" on="1"/>
      </contour>
      <contour>
        <pt x="542" y="155" on="1"/>
        <pt x="542" y="126" on="0"/>
        <pt x="579" y="94" on="0"/>
        <pt x="640" y="79" on="0"/>
        <pt x="722" y="77" on="0"/>
        <pt x="767" y="77" on="1"/>
        <pt x="1064" y="77" on="0"/>
        <pt x="1361" y="405" on="0"/>
        <pt x="1361" y="719" on="1"/>
        <pt x="1361" y="857" on="0"/>
        <pt x="1294" y="1087" on="0"/>
        <pt x="1157" y="1253" on="0"/>
        <pt x="950" y="1345" on="0"/>
        <pt x="809" y="1345" on="1"/>
        <pt x="567" y="1345" on="1"/>
        <pt x="552" y="1345" on="0"/>
        <pt x="542" y="1332" on="0"/>
        <pt x="542" y="1318" on="1"/>
        <pt x="542" y="160" on="1"/>
      </contour>
    </TTGlyph>
    <TTGlyph name="D.sc" xMin="53" yMin="0" xMax="1130" yMax="973">
      <contour>
        <pt x="58" y="0" on="1"/>
        <pt x="54" y="0" on="0"/>
        <pt x="53" y="4" on="0"/>
        <pt x="53" y="5" on="1"/>
        <pt x="53" y="45" on="1"/>
        <pt x="53" y="46" on="0"/>
        <pt x="54" y="50" on="0"/>
        <pt x="58" y="50" on="1"/>
        <pt x="72" y="50" on="1"/>
        <pt x="86" y="50" on="0"/>
        <pt x="128" y="54" on="0"/>
        <pt x="167" y="69" on="0"/>
        <pt x="194" y="101" on="0"/>
        <pt x="194" y="128" on="1"/>
        <pt x="194" y="831" on="1"/>
        <pt x="194" y="852" on="0"/>
        <pt x="176" y="880" on="0"/>
        <pt x="149" y="898" on="0"/>
        <pt x="116" y="906" on="0"/>
        <pt x="101" y="906" on="1"/>
        <pt x="58" y="906" on="1"/>
        <pt x="54" y="906" on="0"/>
        <pt x="53" y="911" on="0"/>
        <pt x="53" y="912" on="1"/>
        <pt x="53" y="951" on="1"/>
        <pt x="53" y="955" on="0"/>
        <pt x="58" y="955" on="1"/>
        <pt x="320" y="967" on="1"/>
        <pt x="359" y="969" on="0"/>
        <pt x="450" y="973" on="0"/>
        <pt x="488" y="973" on="1"/>
        <pt x="531" y="973" on="0"/>
        <pt x="604" y="971" on="0"/>
        <pt x="673" y="966" on="0"/>
        <pt x="742" y="956" on="0"/>
        <pt x="781" y="948" on="1"/>
        <pt x="856" y="933" on="0"/>
        <pt x="984" y="843" on="0"/>
        <pt x="1077" y="717" on="0"/>
        <pt x="1130" y="567" on="0"/>
        <pt x="1130" y="492" on="1"/>
        <pt x="1130" y="384" on="0"/>
        <pt x="1042" y="203" on="0"/>
        <pt x="895" y="72" on="0"/>
        <pt x="704" y="0" on="0"/>
        <pt x="600" y="0" on="1"/>
        <pt x="77" y="0" on="1"/>
      </contour>
      <contour>
        <pt x="357" y="115" on="1"/>
        <pt x="357" y="95" on="0"/>
        <pt x="382" y="74" on="0"/>
        <pt x="423" y="65" on="0"/>
        <pt x="478" y="63" on="0"/>
        <pt x="508" y="63" on="1"/>
        <pt x="615" y="63" on="0"/>
        <pt x="782" y="115" on="0"/>
        <pt x="896" y="220" on="0"/>
        <pt x="956" y="377" on="0"/>
        <pt x="956" y="482" on="1"/>
        <pt x="956" y="574" on="0"/>
        <pt x="902" y="731" on="0"/>
        <pt x="799" y="845" on="0"/>
        <pt x="651" y="910" on="0"/>
        <pt x="557" y="910" on="1"/>
        <pt x="374" y="910" on="1"/>
        <pt x="357" y="910" on="0"/>
        <pt x="357" y="892" on="1"/>
        <pt x="357" y="119" on="1"/>
      </contour>
    </TTGlyph>
    <TTGlyph name="Dcaron" xMin="45" yMin="0" xMax="1664" yMax="1970">
      <component glyphName="D" x="0" y="0" flags="0x1204"/>
      <component glyphName="caron" x="500" y="497" flags="0x1004"/>
    </TTGlyph>
    <TTGlyph name="Delta" xMin="29" yMin="0" xMax="1278" yMax="1410">
      <contour>
        <pt x="597" y="1410" on="1"/>
        <pt x="727" y="1410" on="1"/>
        <pt x="1278" y="0" on="1"/>
        <pt x="29" y="0" on="1"/>
      </contour>
      <contour>
        <pt x="983" y="164" on="1"/>
        <pt x="611" y="1116" on="1"/>
        <pt x="227" y="164" on="1"/>
      </contour>
    </TTGlyph>
    <TTGlyph name="Dieresis" xMin="33" yMin="1682" xMax="666" yMax="1916">
      <contour>
        <pt x="549" y="1682" on="1"/>
        <pt x="525" y="1682" on="0"/>
        <pt x="482" y="1700" on="0"/>
        <pt x="450" y="1731" on="0"/>
        <pt x="432" y="1773" on="0"/>
        <pt x="432" y="1797" on="1"/>
        <pt x="432" y="1822" on="0"/>
        <pt x="450" y="1865" on="0"/>
        <pt x="482" y="1897" on="0"/>
        <pt x="525" y="1916" on="0"/>
        <pt x="549" y="1916" on="1"/>
        <pt x="574" y="1916" on="0"/>
        <pt x="617" y="1897" on="0"/>
        <pt x="649" y="1865" on="0"/>
        <pt x="666" y="1822" on="0"/>
        <pt x="666" y="1797" on="1"/>
        <pt x="666" y="1773" on="0"/>
        <pt x="649" y="1731" on="0"/>
        <pt x="617" y="1700" on="0"/>
        <pt x="574" y="1682" on="0"/>
      </contour>
      <contour>
        <pt x="150" y="1682" on="1"/>
        <pt x="125" y="1682" on="0"/>
        <pt x="82" y="1700" on="0"/>
        <pt x="51" y="1731" on="0"/>
        <pt x="33" y="1773" on="0"/>
        <pt x="33" y="1797" on="1"/>
        <pt x="33" y="1822" on="0"/>
        <pt x="51" y="1865" on="0"/>
        <pt x="82" y="1897" on="0"/>
        <pt x="125" y="1916" on="0"/>
        <pt x="150" y="1916" on="1"/>
        <pt x="175" y="1916" on="0"/>
        <pt x="218" y="1897" on="0"/>
        <pt x="249" y="1865" on="0"/>
        <pt x="267" y="1822" on="0"/>
        <pt x="267" y="1797" on="1"/>
        <pt x="267" y="1773" on="0"/>
        <pt x="249" y="1731" on="0"/>
        <pt x="218" y="1700" on="0"/>
        <pt x="175" y="1682" on="0"/>
      </contour>
    </TTGlyph>
    <TTGlyph name="Dieresis.sc" xMin="313" yMin="1119" xMax="737" yMax="1277">
      <contour>
        <pt x="658" y="1119" on="1"/>
        <pt x="626" y="1119" on="0"/>
        <pt x="581" y="1164" on="0"/>
        <pt x="581" y="1197" on="1"/>
        <pt x="581" y="1230" on="0"/>
        <pt x="626" y="1277" on="0"/>
        <pt x="658" y="1277" on="1"/>
        <pt x="693" y="1277" on="0"/>
        <pt x="737" y="1230" on="0"/>
        <pt x="737" y="1197" on="1"/>
        <pt x="737" y="1164" on="0"/>
        <pt x="693" y="1119" on="0"/>
      </contour>
      <contour>
        <pt x="392" y="1119" on="1"/>
        <pt x="359" y="1119" on="0"/>
        <pt x="313" y="1164" on="0"/>
        <pt x="313" y="1197" on="1"/>
        <pt x="313" y="1230" on="0"/>
        <pt x="359" y="1277" on="0"/>
        <pt x="392" y="1277" on="1"/>
        <pt x="425" y="1277" on="0"/>
        <pt x="469" y="1230" on="0"/>
        <pt x="469" y="1197" on="1"/>
        <pt x="469" y="1164" on="0"/>
        <pt x="425" y="1119" on="0"/>
      </contour>
    </TTGlyph>
    <TTGlyph name="DieresisAcute" xMin="33" yMin="1682" xMax="666" yMax="1916">
      <contour>
        <pt x="549" y="1682" on="1"/>
        <pt x="525" y="1682" on="0"/>
        <pt x="482" y="1700" on="0"/>
        <pt x="450" y="1731" on="0"/>
        <pt x="432" y="1773" on="0"/>
        <pt x="432" y="1797" on="1"/>
        <pt x="432" y="1822" on="0"/>
        <pt x="450" y="1865" on="0"/>
        <pt x="482" y="1897" on="0"/>
        <pt x="525" y="1916" on="0"/>
        <pt x="549" y="1916" on="1"/>
        <pt x="574" y="1916" on="0"/>
        <pt x="617" y="1897" on="0"/>
        <pt x="649" y="1865" on="0"/>
        <pt x="666" y="1822" on="0"/>
        <pt x="666" y="1797" on="1"/>
        <pt x="666" y="1773" on="0"/>
        <pt x="649" y="1731" on="0"/>
        <pt x="617" y="1700" on="0"/>
        <pt x="574" y="1682" on="0"/>
      </contour>
      <contour>
        <pt x="150" y="1682" on="1"/>
        <pt x="125" y="1682" on="0"/>
        <pt x="82" y="1700" on="0"/>
        <pt x="51" y="1731" on="0"/>
        <pt x="33" y="1773" on="0"/>
        <pt x="33" y="1797" on="1"/>
        <pt x="33" y="1822" on="0"/>
        <pt x="51" y="1865" on="0"/>
        <pt x="82" y="1897" on="0"/>
        <pt x="125" y="1916" on="0"/>
        <pt x="150" y="1916" on="1"/>
        <pt x="175" y="1916" on="0"/>
        <pt x="218" y="1897" on="0"/>
        <pt x="249" y="1865" on="0"/>
        <pt x="267" y="1822" on="0"/>
        <pt x="267" y="1797" on="1"/>
        <pt x="267" y="1773" on="0"/>
        <pt x="249" y="1731" on="0"/>
        <pt x="218" y="1700" on="0"/>
        <pt x="175" y="1682" on="0"/>
      </contour>
    </TTGlyph>
    <TTGlyph name="DieresisGrave" xMin="33" yMin="1682" xMax="666" yMax="1916">
      <contour>
        <pt x="549" y="1682" on="1"/>
        <pt x="525" y="1682" on="0"/>
        <pt x="482" y="1700" on="0"/>
        <pt x="450" y="1731" on="0"/>
        <pt x="432" y="1773" on="0"/>
        <pt x="432" y="1797" on="1"/>
        <pt x="432" y="1822" on="0"/>
        <pt x="450" y="1865" on="0"/>
        <pt x="482" y="1897" on="0"/>
        <pt x="525" y="1916" on="0"/>
        <pt x="549" y="1916" on="1"/>
        <pt x="574" y="1916" on="0"/>
        <pt x="617" y="1897" on="0"/>
        <pt x="649" y="1865" on="0"/>
        <pt x="666" y="1822" on="0"/>
        <pt x="666" y="1797" on="1"/>
        <pt x="666" y="1773" on="0"/>
        <pt x="649" y="1731" on="0"/>
        <pt x="617" y="1700" on="0"/>
        <pt x="574" y="1682" on="0"/>
      </contour>
      <contour>
        <pt x="150" y="1682" on="1"/>
        <pt x="125" y="1682" on="0"/>
        <pt x="82" y="1700" on="0"/>
        <pt x="51" y="1731" on="0"/>
        <pt x="33" y="1773" on="0"/>
        <pt x="33" y="1797" on="1"/>
        <pt x="33" y="1822" on="0"/>
        <pt x="51" y="1865" on="0"/>
        <pt x="82" y="1897" on="0"/>
        <pt x="125" y="1916" on="0"/>
        <pt x="150" y="1916" on="1"/>
        <pt x="175" y="1916" on="0"/>
        <pt x="218" y="1897" on="0"/>
        <pt x="249" y="1865" on="0"/>
        <pt x="267" y="1822" on="0"/>
        <pt x="267" y="1797" on="1"/>
        <pt x="267" y="1773" on="0"/>
        <pt x="249" y="1731" on="0"/>
        <pt x="218" y="1700" on="0"/>
        <pt x="175" y="1682" on="0"/>
      </contour>
    </TTGlyph>
    <TTGlyph name="Dotaccent.sc" xMin="402" yMin="1076" xMax="648" yMax="1322">
      <contour>
        <pt x="525" y="1076" on="1"/>
        <pt x="471" y="1076" on="0"/>
        <pt x="402" y="1143" on="0"/>
        <pt x="402" y="1197" on="1"/>
        <pt x="402" y="1224" on="0"/>
        <pt x="420" y="1269" on="0"/>
        <pt x="453" y="1303" on="0"/>
        <pt x="498" y="1322" on="0"/>
        <pt x="525" y="1322" on="1"/>
        <pt x="552" y="1322" on="0"/>
        <pt x="597" y="1303" on="0"/>
        <pt x="630" y="1269" on="0"/>
        <pt x="648" y="1224" on="0"/>
        <pt x="648" y="1197" on="1"/>
        <pt x="648" y="1143" on="0"/>
        <pt x="579" y="1076" on="0"/>
      </contour>
    </TTGlyph>
    <TTGlyph name="E" xMin="7" yMin="0" xMax="1221" yMax="1410">
      <contour>
        <pt x="7" y="51" on="1"/>
        <pt x="7" y="52" on="0"/>
        <pt x="9" y="59" on="0"/>
        <pt x="15" y="59" on="1"/>
        <pt x="37" y="59" on="1"/>
        <pt x="79" y="62" on="0"/>
        <pt x="167" y="63" on="0"/>
        <pt x="239" y="84" on="0"/>
        <pt x="285" y="137" on="0"/>
        <pt x="285" y="193" on="1"/>
        <pt x="285" y="1217" on="1"/>
        <pt x="285" y="1256" on="0"/>
        <pt x="253" y="1305" on="0"/>
        <pt x="201" y="1335" on="0"/>
        <pt x="135" y="1350" on="0"/>
        <pt x="101" y="1355" on="1"/>
        <pt x="80" y="1355" on="1"/>
        <pt x="75" y="1355" on="0"/>
        <pt x="72" y="1361" on="0"/>
        <pt x="72" y="1363" on="1"/>
        <pt x="72" y="1402" on="1"/>
        <pt x="72" y="1404" on="0"/>
        <pt x="75" y="1410" on="0"/>
        <pt x="80" y="1410" on="1"/>
        <pt x="1076" y="1410" on="1"/>
        <pt x="1094" y="1410" on="0"/>
        <pt x="1110" y="1397" on="0"/>
        <pt x="1112" y="1375" on="1"/>
        <pt x="1130" y="1055" on="1"/>
        <pt x="1130" y="1050" on="0"/>
        <pt x="1113" y="1045" on="0"/>
        <pt x="1106" y="1045" on="1"/>
        <pt x="1098" y="1045" on="0"/>
        <pt x="1082" y="1049" on="0"/>
        <pt x="1079" y="1053" on="1"/>
        <pt x="1072" y="1063" on="0"/>
        <pt x="1066" y="1102" on="0"/>
        <pt x="1059" y="1150" on="0"/>
        <pt x="1046" y="1202" on="0"/>
        <pt x="1020" y="1246" on="0"/>
        <pt x="975" y="1279" on="0"/>
        <pt x="940" y="1285" on="1"/>
        <pt x="583" y="1285" on="1"/>
        <pt x="570" y="1285" on="0"/>
        <pt x="570" y="1272" on="1"/>
        <pt x="570" y="795" on="1"/>
        <pt x="570" y="785" on="0"/>
        <pt x="580" y="785" on="1"/>
        <pt x="866" y="785" on="1"/>
        <pt x="891" y="785" on="0"/>
        <pt x="940" y="798" on="0"/>
        <pt x="977" y="832" on="0"/>
        <pt x="1000" y="893" on="0"/>
        <pt x="1000" y="941" on="1"/>
        <pt x="1000" y="949" on="0"/>
        <pt x="1008" y="949" on="1"/>
        <pt x="1047" y="949" on="1"/>
        <pt x="1055" y="949" on="0"/>
        <pt x="1055" y="941" on="1"/>
        <pt x="1055" y="483" on="1"/>
        <pt x="1055" y="478" on="0"/>
        <pt x="1049" y="475" on="0"/>
        <pt x="1047" y="475" on="1"/>
        <pt x="1008" y="475" on="1"/>
        <pt x="1003" y="475" on="0"/>
        <pt x="1000" y="481" on="0"/>
        <pt x="1000" y="483" on="1"/>
        <pt x="1000" y="539" on="0"/>
        <pt x="977" y="608" on="0"/>
        <pt x="939" y="647" on="0"/>
        <pt x="890" y="660" on="0"/>
        <pt x="863" y="660" on="1"/>
        <pt x="580" y="660" on="1"/>
        <pt x="570" y="660" on="0"/>
        <pt x="570" y="650" on="1"/>
        <pt x="570" y="213" on="1"/>
        <pt x="570" y="184" on="0"/>
        <pt x="588" y="149" on="0"/>
        <pt x="619" y="131" on="0"/>
        <pt x="659" y="125" on="0"/>
        <pt x="681" y="125" on="1"/>
        <pt x="954" y="125" on="1"/>
        <pt x="1012" y="125" on="0"/>
        <pt x="1090" y="178" on="0"/>
        <pt x="1138" y="254" on="0"/>
        <pt x="1161" y="336" on="0"/>
        <pt x="1164" y="365" on="1"/>
        <pt x="1166" y="378" on="0"/>
        <pt x="1188" y="393" on="0"/>
        <pt x="1202" y="393" on="1"/>
        <pt x="1207" y="393" on="0"/>
        <pt x="1221" y="385" on="0"/>
        <pt x="1221" y="380" on="1"/>
        <pt x="1188" y="14" on="1"/>
        <pt x="1186" y="9" on="0"/>
        <pt x="1179" y="0" on="0"/>
        <pt x="1174" y="0" on="1"/>
        <pt x="15" y="0" on="1"/>
        <pt x="9" y="0" on="0"/>
        <pt x="7" y="7" on="0"/>
        <pt x="7" y="8" on="1"/>
        <pt x="7" y="22" on="1"/>
      </contour>
    </TTGlyph>
    <TTGlyph name="E.sc" xMin="24" yMin="0" xMax="862" yMax="945">
      <contour>
        <pt x="24" y="45" on="1"/>
        <pt x="24" y="46" on="0"/>
        <pt x="25" y="50" on="0"/>
        <pt x="30" y="50" on="1"/>
        <pt x="45" y="50" on="1"/>
        <pt x="73" y="52" on="0"/>
        <pt x="132" y="53" on="0"/>
        <pt x="180" y="67" on="0"/>
        <pt x="211" y="103" on="0"/>
        <pt x="211" y="141" on="1"/>
        <pt x="211" y="804" on="1"/>
        <pt x="211" y="830" on="0"/>
        <pt x="189" y="863" on="0"/>
        <pt x="154" y="883" on="0"/>
        <pt x="110" y="893" on="0"/>
        <pt x="87" y="897" on="1"/>
        <pt x="74" y="897" on="1"/>
        <pt x="70" y="897" on="0"/>
        <pt x="68" y="901" on="0"/>
        <pt x="68" y="902" on="1"/>
        <pt x="68" y="939" on="1"/>
        <pt x="68" y="941" on="0"/>
        <pt x="70" y="945" on="0"/>
        <pt x="74" y="945" on="1"/>
        <pt x="765" y="945" on="1"/>
        <pt x="777" y="945" on="0"/>
        <pt x="789" y="936" on="0"/>
        <pt x="790" y="921" on="1"/>
        <pt x="801" y="727" on="1"/>
        <pt x="801" y="723" on="0"/>
        <pt x="784" y="720" on="0"/>
        <pt x="779" y="720" on="1"/>
        <pt x="774" y="720" on="0"/>
        <pt x="758" y="723" on="0"/>
        <pt x="756" y="726" on="1"/>
        <pt x="749" y="736" on="0"/>
        <pt x="745" y="779" on="0"/>
        <pt x="732" y="826" on="0"/>
        <pt x="699" y="865" on="0"/>
        <pt x="664" y="870" on="1"/>
        <pt x="384" y="870" on="1"/>
        <pt x="375" y="870" on="0"/>
        <pt x="375" y="862" on="1"/>
        <pt x="375" y="531" on="1"/>
        <pt x="375" y="524" on="0"/>
        <pt x="382" y="524" on="1"/>
        <pt x="613" y="524" on="1"/>
        <pt x="630" y="524" on="0"/>
        <pt x="663" y="531" on="0"/>
        <pt x="688" y="552" on="0"/>
        <pt x="704" y="592" on="0"/>
        <pt x="704" y="624" on="1"/>
        <pt x="704" y="629" on="0"/>
        <pt x="709" y="629" on="1"/>
        <pt x="746" y="629" on="1"/>
        <pt x="751" y="629" on="0"/>
        <pt x="751" y="624" on="1"/>
        <pt x="751" y="337" on="1"/>
        <pt x="751" y="332" on="0"/>
        <pt x="746" y="332" on="1"/>
        <pt x="709" y="332" on="1"/>
        <pt x="705" y="332" on="0"/>
        <pt x="704" y="336" on="0"/>
        <pt x="704" y="337" on="1"/>
        <pt x="704" y="374" on="0"/>
        <pt x="688" y="419" on="0"/>
        <pt x="663" y="443" on="0"/>
        <pt x="629" y="450" on="0"/>
        <pt x="611" y="450" on="1"/>
        <pt x="382" y="450" on="1"/>
        <pt x="375" y="450" on="0"/>
        <pt x="375" y="443" on="1"/>
        <pt x="375" y="133" on="1"/>
        <pt x="375" y="113" on="0"/>
        <pt x="387" y="90" on="0"/>
        <pt x="408" y="78" on="0"/>
        <pt x="434" y="75" on="0"/>
        <pt x="449" y="75" on="1"/>
        <pt x="673" y="75" on="1"/>
        <pt x="712" y="75" on="0"/>
        <pt x="763" y="107" on="0"/>
        <pt x="795" y="154" on="0"/>
        <pt x="811" y="205" on="0"/>
        <pt x="813" y="225" on="1"/>
        <pt x="815" y="233" on="0"/>
        <pt x="829" y="244" on="0"/>
        <pt x="839" y="244" on="1"/>
        <pt x="841" y="244" on="0"/>
        <pt x="862" y="237" on="0"/>
        <pt x="862" y="234" on="1"/>
        <pt x="840" y="9" on="1"/>
        <pt x="839" y="6" on="0"/>
        <pt x="834" y="0" on="0"/>
        <pt x="831" y="0" on="1"/>
        <pt x="30" y="0" on="1"/>
        <pt x="25" y="0" on="0"/>
        <pt x="24" y="4" on="0"/>
        <pt x="24" y="5" on="1"/>
        <pt x="24" y="15" on="1"/>
      </contour>
    </TTGlyph>
    <TTGlyph name="Eacute" xMin="7" yMin="0" xMax="1221" yMax="1970">
      <component glyphName="E" x="0" y="0" flags="0x1204"/>
      <component glyphName="acute" x="395" y="498" flags="0x1004"/>
    </TTGlyph>
    <TTGlyph name="Eacute.sc" xMin="24" yMin="0" xMax="862" yMax="1327">
      <component glyphName="E.sc" x="0" y="0" flags="0x1204"/>
      <component glyphName="Acute.sc" x="0" y="0" flags="0x1004"/>
    </TTGlyph>
    <TTGlyph name="Ebreve" xMin="7" yMin="0" xMax="1221" yMax="1970">
      <component glyphName="E" x="0" y="0" flags="0x1204"/>
      <component glyphName="breve" x="284" y="542" flags="0x1004"/>
    </TTGlyph>
    <TTGlyph name="Ecaron" xMin="7" yMin="0" xMax="1221" yMax="1970">
      <component glyphName="E" x="0" y="0" flags="0x1204"/>
      <component glyphName="caron" x="345" y="497" flags="0x1004"/>
    </TTGlyph>
    <TTGlyph name="Ecircumflex" xMin="7" yMin="0" xMax="1221" yMax="1994">
      <component glyphName="E" x="0" y="0" flags="0x1204"/>
      <component glyphName="circumflex" x="355" y="521" flags="0x1004"/>
    </TTGlyph>
    <TTGlyph name="Ecircumflex.sc" xMin="24" yMin="0" xMax="862" yMax="1327">
      <component glyphName="E.sc" x="0" y="0" flags="0x1204"/>
      <component glyphName="Circumflex.sc" x="-69" y="0" flags="0x1004"/>
    </TTGlyph>
    <TTGlyph name="Edieresis" xMin="7" yMin="0" xMax="1221" yMax="1937">
      <component glyphName="E" x="0" y="0" flags="0x1204"/>
      <component glyphName="dieresis" x="265" y="571" flags="0x1004"/>
    </TTGlyph>
    <TTGlyph name="Edieresis.sc" xMin="24" yMin="0" xMax="862" yMax="1277">
      <component glyphName="E.sc" x="0" y="0" flags="0x1204"/>
      <component glyphName="Dieresis.sc" x="-79" y="0" flags="0x1004"/>
    </TTGlyph>
    <TTGlyph name="Edotaccent" xMin="7" yMin="0" xMax="1221" yMax="1937">
      <component glyphName="E" x="0" y="0" flags="0x1204"/>
      <component glyphName="dotaccent" x="285" y="571" flags="0x1004"/>
    </TTGlyph>
    <TTGlyph name="Egrave" xMin="7" yMin="0" xMax="1221" yMax="1970">
      <component glyphName="E" x="0" y="0" flags="0x1204"/>
      <component glyphName="grave" x="270" y="498" flags="0x1004"/>
    </TTGlyph>
    <TTGlyph name="Egrave.sc" xMin="24" yMin="0" xMax="862" yMax="1327">
      <component glyphName="E.sc" x="0" y="0" flags="0x1204"/>
      <component glyphName="Gravesmall" x="-139" y="0" flags="0x1004"/>
    </TTGlyph>
    <TTGlyph name="Emacron" xMin="7" yMin="0" xMax="1221" yMax="1884">
      <component glyphName="E" x="0" y="0" flags="0x1204"/>
      <component glyphName="macron" x="255" y="542" flags="0x1004"/>
    </TTGlyph>
    <TTGlyph name="Emacron.sc" xMin="24" yMin="0" xMax="862" yMax="1240">
      <component glyphName="E.sc" x="0" y="0" flags="0x1204"/>
      <component glyphName="Macron.sc" x="-79" y="0" flags="0x1004"/>
    </TTGlyph>
    <TTGlyph name="Eng" xMin="60" yMin="-620" xMax="1742" yMax="1410">
      <contour>
        <pt x="1285" y="-523" on="1"/>
        <pt x="1316" y="-523" on="0"/>
        <pt x="1361" y="-474" on="0"/>
        <pt x="1388" y="-404" on="0"/>
        <pt x="1401" y="-326" on="0"/>
        <pt x="1401" y="-297" on="1"/>
        <pt x="1401" y="0" on="1"/>
        <pt x="423" y="1081" on="1"/>
        <pt x="416" y="1088" on="0"/>
        <pt x="410" y="1091" on="0"/>
        <pt x="405" y="1091" on="1"/>
        <pt x="400" y="1091" on="0"/>
        <pt x="400" y="1081" on="1"/>
        <pt x="400" y="188" on="1"/>
        <pt x="400" y="160" on="0"/>
        <pt x="427" y="119" on="0"/>
        <pt x="469" y="90" on="0"/>
        <pt x="520" y="73" on="0"/>
        <pt x="569" y="63" on="0"/>
        <pt x="608" y="60" on="0"/>
        <pt x="618" y="60" on="1"/>
        <pt x="623" y="60" on="0"/>
        <pt x="625" y="56" on="1"/>
        <pt x="626" y="54" on="0"/>
        <pt x="626" y="52" on="1"/>
        <pt x="626" y="8" on="1"/>
        <pt x="626" y="6" on="0"/>
        <pt x="623" y="0" on="0"/>
        <pt x="618" y="0" on="1"/>
        <pt x="68" y="0" on="1"/>
        <pt x="66" y="0" on="0"/>
        <pt x="60" y="5" on="0"/>
        <pt x="60" y="8" on="1"/>
        <pt x="60" y="52" on="1"/>
        <pt x="60" y="60" on="0"/>
        <pt x="68" y="60" on="1"/>
        <pt x="79" y="60" on="0"/>
        <pt x="107" y="60" on="0"/>
        <pt x="134" y="62" on="0"/>
        <pt x="156" y="64" on="0"/>
        <pt x="162" y="67" on="1"/>
        <pt x="187" y="79" on="0"/>
        <pt x="219" y="119" on="0"/>
        <pt x="236" y="171" on="0"/>
        <pt x="242" y="233" on="0"/>
        <pt x="242" y="268" on="1"/>
        <pt x="242" y="1267" on="1"/>
        <pt x="242" y="1294" on="0"/>
        <pt x="199" y="1327" on="0"/>
        <pt x="142" y="1344" on="0"/>
        <pt x="83" y="1350" on="0"/>
        <pt x="68" y="1350" on="1"/>
        <pt x="63" y="1350" on="0"/>
        <pt x="60" y="1356" on="0"/>
        <pt x="60" y="1358" on="1"/>
        <pt x="60" y="1402" on="1"/>
        <pt x="60" y="1404" on="0"/>
        <pt x="63" y="1410" on="0"/>
        <pt x="68" y="1410" on="1"/>
        <pt x="521" y="1410" on="1"/>
        <pt x="1383" y="456" on="1"/>
        <pt x="1388" y="451" on="0"/>
        <pt x="1392" y="446" on="0"/>
        <pt x="1395" y="446" on="1"/>
        <pt x="1399" y="446" on="0"/>
        <pt x="1401" y="452" on="0"/>
        <pt x="1401" y="455" on="1"/>
        <pt x="1401" y="1049" on="1"/>
        <pt x="1401" y="1148" on="0"/>
        <pt x="1387" y="1267" on="0"/>
        <pt x="1349" y="1330" on="0"/>
        <pt x="1285" y="1350" on="0"/>
        <pt x="1235" y="1350" on="1"/>
        <pt x="1184" y="1350" on="1"/>
        <pt x="1179" y="1350" on="0"/>
        <pt x="1176" y="1356" on="0"/>
        <pt x="1176" y="1358" on="1"/>
        <pt x="1176" y="1402" on="1"/>
        <pt x="1176" y="1404" on="0"/>
        <pt x="1179" y="1410" on="0"/>
        <pt x="1184" y="1410" on="1"/>
        <pt x="1734" y="1410" on="1"/>
        <pt x="1740" y="1410" on="0"/>
        <pt x="1742" y="1404" on="0"/>
        <pt x="1742" y="1402" on="1"/>
        <pt x="1742" y="1358" on="1"/>
        <pt x="1742" y="1356" on="0"/>
        <pt x="1739" y="1350" on="0"/>
        <pt x="1734" y="1350" on="1"/>
        <pt x="1714" y="1350" on="0"/>
        <pt x="1651" y="1334" on="0"/>
        <pt x="1591" y="1304" on="0"/>
        <pt x="1548" y="1260" on="0"/>
        <pt x="1548" y="1232" on="1"/>
        <pt x="1548" y="-139" on="1"/>
        <pt x="1548" y="-240" on="0"/>
        <pt x="1511" y="-415" on="0"/>
        <pt x="1420" y="-545" on="0"/>
        <pt x="1268" y="-620" on="0"/>
        <pt x="1153" y="-620" on="1"/>
        <pt x="1110" y="-620" on="0"/>
        <pt x="1032" y="-598" on="0"/>
        <pt x="974" y="-562" on="0"/>
        <pt x="939" y="-516" on="0"/>
        <pt x="939" y="-492" on="1"/>
        <pt x="939" y="-477" on="0"/>
        <pt x="952" y="-445" on="0"/>
        <pt x="976" y="-420" on="0"/>
        <pt x="1009" y="-404" on="0"/>
        <pt x="1029" y="-404" on="1"/>
        <pt x="1052" y="-404" on="0"/>
        <pt x="1105" y="-441" on="0"/>
        <pt x="1168" y="-486" on="0"/>
        <pt x="1241" y="-523" on="0"/>
      </contour>
    </TTGlyph>
    <TTGlyph name="Eogonek" xMin="7" yMin="-532" xMax="1221" yMax="1410">
      <component glyphName="E" x="0" y="0" flags="0x1204"/>
      <component glyphName="ogonek" x="595" y="0" flags="0x1004"/>
    </TTGlyph>
    <TTGlyph name="Epsilon" xMin="7" yMin="0" xMax="1221" yMax="1410">
      <component glyphName="E" x="0" y="0" flags="0x1204"/>
    </TTGlyph>
    <TTGlyph name="Epsilontonos" xMin="-5" yMin="0" xMax="1528" yMax="1453">
      <component glyphName="E" x="307" y="0" flags="0x1004"/>
      <component glyphName="tonos" x="-247" y="-69" flags="0x1004"/>
    </TTGlyph>
    <TTGlyph name="Eta" xMin="60" yMin="0" xMax="1742" yMax="1410">
      <component glyphName="H" x="0" y="0" flags="0x1204"/>
    </TTGlyph>
    <TTGlyph name="Etatonos" xMin="7" yMin="0" xMax="1971" yMax="1453">
      <component glyphName="H" x="229" y="0" flags="0x1004"/>
      <component glyphName="tonos" x="-235" y="-69" flags="0x1004"/>
    </TTGlyph>
    <TTGlyph name="Eth" xMin="39" yMin="0" xMax="1664" yMax="1422">
      <contour>
        <pt x="60" y="644" on="1"/>
        <pt x="39" y="644" on="0"/>
        <pt x="39" y="669" on="1"/>
        <pt x="39" y="745" on="1"/>
        <pt x="39" y="770" on="0"/>
        <pt x="60" y="770" on="1"/>
        <pt x="257" y="770" on="1"/>
        <pt x="257" y="1241" on="1"/>
        <pt x="257" y="1272" on="0"/>
        <pt x="230" y="1315" on="0"/>
        <pt x="189" y="1342" on="0"/>
        <pt x="139" y="1354" on="0"/>
        <pt x="117" y="1354" on="1"/>
        <pt x="53" y="1354" on="1"/>
        <pt x="47" y="1354" on="0"/>
        <pt x="45" y="1361" on="0"/>
        <pt x="45" y="1362" on="1"/>
        <pt x="45" y="1405" on="1"/>
        <pt x="45" y="1406" on="0"/>
        <pt x="47" y="1413" on="0"/>
        <pt x="53" y="1413" on="1"/>
        <pt x="75" y="1413" on="1"/>
        <pt x="486" y="1420" on="1"/>
        <pt x="544" y="1421" on="0"/>
        <pt x="679" y="1422" on="0"/>
        <pt x="737" y="1422" on="1"/>
        <pt x="800" y="1422" on="0"/>
        <pt x="900" y="1419" on="0"/>
        <pt x="992" y="1410" on="0"/>
        <pt x="1086" y="1396" on="0"/>
        <pt x="1144" y="1384" on="1"/>
        <pt x="1255" y="1361" on="0"/>
        <pt x="1446" y="1237" on="0"/>
        <pt x="1585" y="1061" on="0"/>
        <pt x="1664" y="847" on="0"/>
        <pt x="1664" y="735" on="1"/>
        <pt x="1664" y="627" on="0"/>
        <pt x="1604" y="434" on="0"/>
        <pt x="1497" y="271" on="0"/>
        <pt x="1350" y="140" on="0"/>
        <pt x="1174" y="49" on="0"/>
        <pt x="976" y="0" on="0"/>
        <pt x="872" y="0" on="1"/>
        <pt x="53" y="0" on="1"/>
        <pt x="47" y="0" on="0"/>
        <pt x="45" y="7" on="0"/>
        <pt x="45" y="8" on="1"/>
        <pt x="45" y="51" on="1"/>
        <pt x="45" y="52" on="0"/>
        <pt x="47" y="59" on="0"/>
        <pt x="53" y="59" on="1"/>
        <pt x="75" y="59" on="1"/>
        <pt x="96" y="59" on="0"/>
        <pt x="158" y="64" on="0"/>
        <pt x="216" y="87" on="0"/>
        <pt x="257" y="134" on="0"/>
        <pt x="257" y="175" on="1"/>
        <pt x="257" y="644" on="1"/>
      </contour>
      <contour>
        <pt x="542" y="155" on="1"/>
        <pt x="542" y="126" on="0"/>
        <pt x="579" y="94" on="0"/>
        <pt x="640" y="79" on="0"/>
        <pt x="722" y="77" on="0"/>
        <pt x="767" y="77" on="1"/>
        <pt x="1064" y="77" on="0"/>
        <pt x="1361" y="405" on="0"/>
        <pt x="1361" y="719" on="1"/>
        <pt x="1361" y="857" on="0"/>
        <pt x="1294" y="1087" on="0"/>
        <pt x="1157" y="1253" on="0"/>
        <pt x="950" y="1345" on="0"/>
        <pt x="809" y="1345" on="1"/>
        <pt x="567" y="1345" on="1"/>
        <pt x="552" y="1345" on="0"/>
        <pt x="542" y="1332" on="0"/>
        <pt x="542" y="1318" on="1"/>
        <pt x="542" y="770" on="1"/>
        <pt x="870" y="770" on="1"/>
        <pt x="880" y="770" on="0"/>
        <pt x="891" y="755" on="0"/>
        <pt x="891" y="745" on="1"/>
        <pt x="891" y="669" on="1"/>
        <pt x="891" y="658" on="0"/>
        <pt x="879" y="644" on="0"/>
        <pt x="870" y="644" on="1"/>
        <pt x="542" y="644" on="1"/>
      </contour>
    </TTGlyph>
    <TTGlyph name="Eth.sc" xMin="47" yMin="0" xMax="1130" yMax="973">
      <contour>
        <pt x="61" y="456" on="1"/>
        <pt x="47" y="456" on="0"/>
        <pt x="47" y="472" on="1"/>
        <pt x="47" y="518" on="1"/>
        <pt x="47" y="533" on="0"/>
        <pt x="61" y="533" on="1"/>
        <pt x="194" y="533" on="1"/>
        <pt x="194" y="831" on="1"/>
        <pt x="194" y="852" on="0"/>
        <pt x="176" y="880" on="0"/>
        <pt x="149" y="898" on="0"/>
        <pt x="116" y="906" on="0"/>
        <pt x="101" y="906" on="1"/>
        <pt x="58" y="906" on="1"/>
        <pt x="54" y="906" on="0"/>
        <pt x="53" y="911" on="0"/>
        <pt x="53" y="912" on="1"/>
        <pt x="53" y="951" on="1"/>
        <pt x="53" y="955" on="0"/>
        <pt x="58" y="955" on="1"/>
        <pt x="320" y="967" on="1"/>
        <pt x="359" y="969" on="0"/>
        <pt x="450" y="973" on="0"/>
        <pt x="488" y="973" on="1"/>
        <pt x="531" y="973" on="0"/>
        <pt x="604" y="971" on="0"/>
        <pt x="673" y="966" on="0"/>
        <pt x="742" y="956" on="0"/>
        <pt x="781" y="948" on="1"/>
        <pt x="856" y="933" on="0"/>
        <pt x="984" y="843" on="0"/>
        <pt x="1077" y="717" on="0"/>
        <pt x="1130" y="567" on="0"/>
        <pt x="1130" y="492" on="1"/>
        <pt x="1130" y="384" on="0"/>
        <pt x="1042" y="203" on="0"/>
        <pt x="895" y="72" on="0"/>
        <pt x="704" y="0" on="0"/>
        <pt x="600" y="0" on="1"/>
        <pt x="58" y="0" on="1"/>
        <pt x="54" y="0" on="0"/>
        <pt x="53" y="4" on="0"/>
        <pt x="53" y="5" on="1"/>
        <pt x="53" y="45" on="1"/>
        <pt x="53" y="46" on="0"/>
        <pt x="54" y="50" on="0"/>
        <pt x="58" y="50" on="1"/>
        <pt x="72" y="50" on="1"/>
        <pt x="86" y="50" on="0"/>
        <pt x="128" y="54" on="0"/>
        <pt x="167" y="69" on="0"/>
        <pt x="194" y="101" on="0"/>
        <pt x="194" y="128" on="1"/>
        <pt x="194" y="456" on="1"/>
      </contour>
      <contour>
        <pt x="357" y="115" on="1"/>
        <pt x="357" y="95" on="0"/>
        <pt x="382" y="74" on="0"/>
        <pt x="423" y="65" on="0"/>
        <pt x="478" y="63" on="0"/>
        <pt x="508" y="63" on="1"/>
        <pt x="615" y="63" on="0"/>
        <pt x="782" y="115" on="0"/>
        <pt x="896" y="220" on="0"/>
        <pt x="956" y="377" on="0"/>
        <pt x="956" y="482" on="1"/>
        <pt x="956" y="574" on="0"/>
        <pt x="902" y="731" on="0"/>
        <pt x="799" y="845" on="0"/>
        <pt x="651" y="910" on="0"/>
        <pt x="557" y="910" on="1"/>
        <pt x="374" y="910" on="1"/>
        <pt x="357" y="910" on="0"/>
        <pt x="357" y="892" on="1"/>
        <pt x="357" y="533" on="1"/>
        <pt x="576" y="533" on="1"/>
        <pt x="590" y="533" on="0"/>
        <pt x="590" y="518" on="1"/>
        <pt x="590" y="472" on="1"/>
        <pt x="590" y="456" on="0"/>
        <pt x="576" y="456" on="1"/>
        <pt x="357" y="456" on="1"/>
      </contour>
    </TTGlyph>
    <TTGlyph name="Euro" xMin="25" yMin="-27" xMax="1144" yMax="1379">
      <contour>
        <pt x="169" y="660" on="1"/>
        <pt x="169" y="718" on="0"/>
        <pt x="175" y="774" on="1"/>
        <pt x="52" y="774" on="1"/>
        <pt x="40" y="774" on="0"/>
        <pt x="25" y="788" on="0"/>
        <pt x="25" y="799" on="1"/>
        <pt x="25" y="835" on="1"/>
        <pt x="25" y="846" on="0"/>
        <pt x="40" y="860" on="0"/>
        <pt x="52" y="860" on="1"/>
        <pt x="189" y="860" on="1"/>
        <pt x="214" y="978" on="0"/>
        <pt x="320" y="1169" on="0"/>
        <pt x="467" y="1305" on="0"/>
        <pt x="649" y="1379" on="0"/>
        <pt x="751" y="1379" on="1"/>
        <pt x="797" y="1379" on="0"/>
        <pt x="896" y="1357" on="0"/>
        <pt x="985" y="1329" on="0"/>
        <pt x="1056" y="1302" on="0"/>
        <pt x="1075" y="1296" on="1"/>
        <pt x="1080" y="1294" on="0"/>
        <pt x="1087" y="1292" on="0"/>
        <pt x="1090" y="1292" on="1"/>
        <pt x="1091" y="1292" on="0"/>
        <pt x="1109" y="1299" on="0"/>
        <pt x="1112" y="1299" on="1"/>
        <pt x="1135" y="1299" on="1"/>
        <pt x="1144" y="1299" on="0"/>
        <pt x="1144" y="1283" on="1"/>
        <pt x="1144" y="988" on="1"/>
        <pt x="1144" y="982" on="0"/>
        <pt x="1137" y="978" on="0"/>
        <pt x="1126" y="978" on="1"/>
        <pt x="1124" y="978" on="0"/>
        <pt x="1116" y="979" on="0"/>
        <pt x="1114" y="984" on="1"/>
        <pt x="1112" y="991" on="0"/>
        <pt x="1099" y="1021" on="0"/>
        <pt x="1097" y="1027" on="1"/>
        <pt x="1040" y="1170" on="0"/>
        <pt x="876" y="1314" on="0"/>
        <pt x="763" y="1314" on="1"/>
        <pt x="672" y="1314" on="0"/>
        <pt x="523" y="1247" on="0"/>
        <pt x="414" y="1127" on="0"/>
        <pt x="347" y="960" on="0"/>
        <pt x="338" y="860" on="1"/>
        <pt x="991" y="860" on="1"/>
        <pt x="1003" y="860" on="0"/>
        <pt x="1018" y="846" on="0"/>
        <pt x="1018" y="835" on="1"/>
        <pt x="1018" y="799" on="1"/>
        <pt x="1018" y="788" on="0"/>
        <pt x="1003" y="774" on="0"/>
        <pt x="991" y="774" on="1"/>
        <pt x="333" y="774" on="1"/>
        <pt x="332" y="759" on="0"/>
        <pt x="332" y="728" on="0"/>
        <pt x="332" y="712" on="1"/>
        <pt x="332" y="681" on="0"/>
        <pt x="334" y="619" on="0"/>
        <pt x="336" y="589" on="1"/>
        <pt x="880" y="589" on="1"/>
        <pt x="892" y="589" on="0"/>
        <pt x="907" y="575" on="0"/>
        <pt x="907" y="564" on="1"/>
        <pt x="907" y="528" on="1"/>
        <pt x="907" y="517" on="0"/>
        <pt x="892" y="503" on="0"/>
        <pt x="880" y="503" on="1"/>
        <pt x="345" y="503" on="1"/>
        <pt x="359" y="404" on="0"/>
        <pt x="424" y="235" on="0"/>
        <pt x="527" y="111" on="0"/>
        <pt x="669" y="40" on="0"/>
        <pt x="760" y="40" on="1"/>
        <pt x="824" y="40" on="0"/>
        <pt x="928" y="88" on="0"/>
        <pt x="1014" y="172" on="0"/>
        <pt x="1085" y="285" on="0"/>
        <pt x="1116" y="351" on="1"/>
        <pt x="1118" y="356" on="0"/>
        <pt x="1122" y="357" on="0"/>
        <pt x="1125" y="357" on="1"/>
        <pt x="1135" y="357" on="1"/>
        <pt x="1137" y="357" on="0"/>
        <pt x="1142" y="352" on="0"/>
        <pt x="1142" y="344" on="1"/>
        <pt x="1142" y="342" on="0"/>
        <pt x="1139" y="326" on="0"/>
        <pt x="1138" y="324" on="1"/>
        <pt x="1034" y="35" on="1"/>
        <pt x="1032" y="28" on="0"/>
        <pt x="1025" y="28" on="1"/>
        <pt x="1007" y="34" on="0"/>
        <pt x="993" y="36" on="0"/>
        <pt x="985" y="36" on="1"/>
        <pt x="967" y="36" on="0"/>
        <pt x="907" y="16" on="0"/>
        <pt x="834" y="-7" on="0"/>
        <pt x="750" y="-27" on="0"/>
        <pt x="708" y="-27" on="1"/>
        <pt x="605" y="-27" on="0"/>
        <pt x="428" y="47" on="0"/>
        <pt x="291" y="184" on="0"/>
        <pt x="198" y="380" on="0"/>
        <pt x="180" y="503" on="1"/>
        <pt x="52" y="503" on="1"/>
        <pt x="40" y="503" on="0"/>
        <pt x="25" y="517" on="0"/>
        <pt x="25" y="528" on="1"/>
        <pt x="25" y="564" on="1"/>
        <pt x="25" y="575" on="0"/>
        <pt x="40" y="589" on="0"/>
        <pt x="52" y="589" on="1"/>
        <pt x="171" y="589" on="1"/>
        <pt x="169" y="606" on="0"/>
        <pt x="169" y="642" on="0"/>
      </contour>
    </TTGlyph>
    <TTGlyph name="F" xMin="86" yMin="0" xMax="1107" yMax="1410">
      <contour>
        <pt x="888" y="819" on="1"/>
        <pt x="902" y="819" on="0"/>
        <pt x="948" y="824" on="0"/>
        <pt x="991" y="849" on="0"/>
        <pt x="1022" y="902" on="0"/>
        <pt x="1022" y="950" on="1"/>
        <pt x="1022" y="958" on="0"/>
        <pt x="1030" y="958" on="1"/>
        <pt x="1069" y="958" on="1"/>
        <pt x="1077" y="958" on="0"/>
        <pt x="1077" y="950" on="1"/>
        <pt x="1077" y="548" on="1"/>
        <pt x="1077" y="543" on="0"/>
        <pt x="1071" y="540" on="0"/>
        <pt x="1069" y="540" on="1"/>
        <pt x="1030" y="540" on="1"/>
        <pt x="1025" y="540" on="0"/>
        <pt x="1022" y="546" on="0"/>
        <pt x="1022" y="548" on="1"/>
        <pt x="1022" y="602" on="0"/>
        <pt x="991" y="661" on="0"/>
        <pt x="949" y="689" on="0"/>
        <pt x="904" y="694" on="0"/>
        <pt x="890" y="694" on="1"/>
        <pt x="556" y="694" on="1"/>
        <pt x="544" y="694" on="0"/>
        <pt x="532" y="679" on="0"/>
        <pt x="532" y="667" on="1"/>
        <pt x="532" y="188" on="1"/>
        <pt x="532" y="161" on="0"/>
        <pt x="553" y="124" on="0"/>
        <pt x="590" y="97" on="0"/>
        <pt x="640" y="77" on="0"/>
        <pt x="670" y="68" on="1"/>
        <pt x="685" y="63" on="0"/>
        <pt x="719" y="55" on="0"/>
        <pt x="730" y="55" on="1"/>
        <pt x="736" y="55" on="0"/>
        <pt x="738" y="48" on="0"/>
        <pt x="738" y="47" on="1"/>
        <pt x="738" y="8" on="1"/>
        <pt x="738" y="6" on="0"/>
        <pt x="735" y="0" on="0"/>
        <pt x="730" y="0" on="1"/>
        <pt x="94" y="0" on="1"/>
        <pt x="89" y="0" on="0"/>
        <pt x="86" y="6" on="0"/>
        <pt x="86" y="8" on="1"/>
        <pt x="86" y="47" on="1"/>
        <pt x="86" y="49" on="0"/>
        <pt x="88" y="55" on="0"/>
        <pt x="94" y="55" on="1"/>
        <pt x="105" y="55" on="0"/>
        <pt x="140" y="64" on="0"/>
        <pt x="149" y="68" on="1"/>
        <pt x="192" y="87" on="0"/>
        <pt x="247" y="150" on="0"/>
        <pt x="247" y="195" on="1"/>
        <pt x="247" y="1260" on="1"/>
        <pt x="247" y="1298" on="0"/>
        <pt x="205" y="1342" on="0"/>
        <pt x="152" y="1364" on="0"/>
        <pt x="105" y="1370" on="0"/>
        <pt x="99" y="1370" on="1"/>
        <pt x="95" y="1370" on="1"/>
        <pt x="90" y="1370" on="0"/>
        <pt x="87" y="1376" on="0"/>
        <pt x="87" y="1378" on="1"/>
        <pt x="87" y="1402" on="1"/>
        <pt x="87" y="1404" on="0"/>
        <pt x="90" y="1410" on="0"/>
        <pt x="95" y="1410" on="1"/>
        <pt x="1083" y="1410" on="1"/>
        <pt x="1095" y="1408" on="0"/>
        <pt x="1107" y="1401" on="0"/>
        <pt x="1107" y="1387" on="1"/>
        <pt x="1107" y="1115" on="1"/>
        <pt x="1107" y="1103" on="0"/>
        <pt x="1093" y="1097" on="0"/>
        <pt x="1084" y="1097" on="1"/>
        <pt x="1064" y="1097" on="1"/>
        <pt x="1062" y="1098" on="0"/>
        <pt x="1055" y="1131" on="0"/>
        <pt x="1043" y="1176" on="0"/>
        <pt x="1026" y="1221" on="0"/>
        <pt x="1015" y="1234" on="1"/>
        <pt x="1001" y="1249" on="0"/>
        <pt x="975" y="1269" on="0"/>
        <pt x="943" y="1281" on="0"/>
        <pt x="901" y="1285" on="0"/>
        <pt x="871" y="1285" on="1"/>
        <pt x="552" y="1285" on="1"/>
        <pt x="532" y="1285" on="0"/>
        <pt x="532" y="1265" on="1"/>
        <pt x="532" y="842" on="1"/>
        <pt x="532" y="819" on="0"/>
        <pt x="556" y="819" on="1"/>
        <pt x="888" y="819" on="1"/>
      </contour>
    </TTGlyph>
    <TTGlyph name="F.sc" xMin="83" yMin="0" xMax="792" yMax="945">
      <contour>
        <pt x="633" y="547" on="1"/>
        <pt x="643" y="547" on="0"/>
        <pt x="673" y="550" on="0"/>
        <pt x="702" y="567" on="0"/>
        <pt x="723" y="603" on="0"/>
        <pt x="723" y="635" on="1"/>
        <pt x="723" y="640" on="0"/>
        <pt x="729" y="640" on="1"/>
        <pt x="765" y="640" on="1"/>
        <pt x="770" y="640" on="0"/>
        <pt x="771" y="637" on="0"/>
        <pt x="771" y="635" on="1"/>
        <pt x="771" y="375" on="1"/>
        <pt x="771" y="370" on="0"/>
        <pt x="765" y="370" on="1"/>
        <pt x="729" y="370" on="1"/>
        <pt x="726" y="370" on="0"/>
        <pt x="723" y="374" on="0"/>
        <pt x="723" y="375" on="1"/>
        <pt x="723" y="411" on="0"/>
        <pt x="703" y="451" on="0"/>
        <pt x="674" y="470" on="0"/>
        <pt x="644" y="474" on="0"/>
        <pt x="635" y="474" on="1"/>
        <pt x="371" y="474" on="1"/>
        <pt x="355" y="474" on="0"/>
        <pt x="355" y="455" on="1"/>
        <pt x="355" y="126" on="1"/>
        <pt x="355" y="107" on="0"/>
        <pt x="380" y="78" on="0"/>
        <pt x="419" y="58" on="0"/>
        <pt x="466" y="48" on="0"/>
        <pt x="487" y="48" on="1"/>
        <pt x="491" y="48" on="0"/>
        <pt x="492" y="43" on="0"/>
        <pt x="492" y="42" on="1"/>
        <pt x="492" y="5" on="1"/>
        <pt x="492" y="0" on="0"/>
        <pt x="487" y="0" on="1"/>
        <pt x="88" y="0" on="1"/>
        <pt x="85" y="0" on="0"/>
        <pt x="83" y="4" on="0"/>
        <pt x="83" y="5" on="1"/>
        <pt x="83" y="42" on="1"/>
        <pt x="83" y="44" on="0"/>
        <pt x="84" y="48" on="0"/>
        <pt x="88" y="48" on="1"/>
        <pt x="107" y="48" on="0"/>
        <pt x="145" y="60" on="0"/>
        <pt x="173" y="83" on="0"/>
        <pt x="191" y="113" on="0"/>
        <pt x="191" y="131" on="1"/>
        <pt x="191" y="823" on="1"/>
        <pt x="191" y="848" on="0"/>
        <pt x="163" y="878" on="0"/>
        <pt x="127" y="893" on="0"/>
        <pt x="95" y="897" on="0"/>
        <pt x="91" y="897" on="1"/>
        <pt x="89" y="897" on="1"/>
        <pt x="84" y="897" on="0"/>
        <pt x="84" y="902" on="1"/>
        <pt x="84" y="939" on="1"/>
        <pt x="84" y="941" on="0"/>
        <pt x="86" y="945" on="0"/>
        <pt x="89" y="945" on="1"/>
        <pt x="775" y="945" on="1"/>
        <pt x="783" y="943" on="0"/>
        <pt x="792" y="939" on="0"/>
        <pt x="792" y="929" on="1"/>
        <pt x="792" y="757" on="1"/>
        <pt x="792" y="748" on="0"/>
        <pt x="781" y="744" on="0"/>
        <pt x="775" y="744" on="1"/>
        <pt x="752" y="744" on="1"/>
        <pt x="751" y="744" on="0"/>
        <pt x="746" y="767" on="0"/>
        <pt x="738" y="797" on="0"/>
        <pt x="726" y="828" on="0"/>
        <pt x="718" y="836" on="1"/>
        <pt x="709" y="846" on="0"/>
        <pt x="692" y="860" on="0"/>
        <pt x="671" y="867" on="0"/>
        <pt x="643" y="870" on="0"/>
        <pt x="623" y="870" on="1"/>
        <pt x="369" y="870" on="1"/>
        <pt x="355" y="870" on="0"/>
        <pt x="355" y="857" on="1"/>
        <pt x="355" y="563" on="1"/>
        <pt x="355" y="547" on="0"/>
        <pt x="371" y="547" on="1"/>
        <pt x="633" y="547" on="1"/>
      </contour>
    </TTGlyph>
    <TTGlyph name="Fraktur-ph" xMin="125" yMin="0" xMax="1799" yMax="1645">
      <contour>
        <pt x="125" y="1245" on="1"/>
        <pt x="125" y="1328" on="0"/>
        <pt x="188" y="1474" on="0"/>
        <pt x="296" y="1582" on="0"/>
        <pt x="442" y="1645" on="0"/>
        <pt x="525" y="1645" on="1"/>
        <pt x="1399" y="1645" on="1"/>
        <pt x="1482" y="1645" on="0"/>
        <pt x="1628" y="1582" on="0"/>
        <pt x="1736" y="1474" on="0"/>
        <pt x="1799" y="1328" on="0"/>
        <pt x="1799" y="1245" on="1"/>
        <pt x="1799" y="400" on="1"/>
        <pt x="1799" y="317" on="0"/>
        <pt x="1736" y="171" on="0"/>
        <pt x="1627" y="63" on="0"/>
        <pt x="1481" y="0" on="0"/>
        <pt x="1398" y="0" on="1"/>
        <pt x="526" y="0" on="1"/>
        <pt x="443" y="0" on="0"/>
        <pt x="297" y="63" on="0"/>
        <pt x="188" y="171" on="0"/>
        <pt x="125" y="317" on="0"/>
        <pt x="125" y="400" on="1"/>
      </contour>
      <contour>
        <pt x="526" y="1495" on="1"/>
        <pt x="474" y="1495" on="0"/>
        <pt x="383" y="1456" on="0"/>
        <pt x="315" y="1388" on="0"/>
        <pt x="275" y="1297" on="0"/>
        <pt x="275" y="1245" on="1"/>
        <pt x="275" y="400" on="1"/>
        <pt x="275" y="348" on="0"/>
        <pt x="315" y="257" on="0"/>
        <pt x="384" y="189" on="0"/>
        <pt x="475" y="150" on="0"/>
        <pt x="526" y="150" on="1"/>
        <pt x="1398" y="150" on="1"/>
        <pt x="1449" y="150" on="0"/>
        <pt x="1540" y="189" on="0"/>
        <pt x="1609" y="257" on="0"/>
        <pt x="1649" y="348" on="0"/>
        <pt x="1649" y="400" on="1"/>
        <pt x="1649" y="1245" on="1"/>
        <pt x="1649" y="1297" on="0"/>
        <pt x="1609" y="1388" on="0"/>
        <pt x="1541" y="1456" on="0"/>
        <pt x="1450" y="1495" on="0"/>
        <pt x="1398" y="1495" on="1"/>
      </contour>
      <contour>
        <pt x="539" y="418" on="1"/>
        <pt x="532" y="418" on="0"/>
        <pt x="522" y="409" on="0"/>
        <pt x="512" y="398" on="0"/>
        <pt x="501" y="389" on="0"/>
        <pt x="494" y="389" on="1"/>
        <pt x="488" y="389" on="0"/>
        <pt x="479" y="395" on="0"/>
        <pt x="479" y="403" on="1"/>
        <pt x="479" y="404" on="0"/>
        <pt x="502" y="439" on="0"/>
        <pt x="535" y="480" on="0"/>
        <pt x="573" y="513" on="0"/>
        <pt x="588" y="513" on="1"/>
        <pt x="601" y="513" on="0"/>
        <pt x="630" y="499" on="0"/>
        <pt x="657" y="481" on="0"/>
        <pt x="683" y="464" on="0"/>
        <pt x="695" y="461" on="1"/>
        <pt x="725" y="482" on="0"/>
        <pt x="761" y="544" on="0"/>
        <pt x="782" y="616" on="0"/>
        <pt x="789" y="692" on="0"/>
        <pt x="789" y="727" on="1"/>
        <pt x="789" y="786" on="0"/>
        <pt x="776" y="893" on="0"/>
        <pt x="769" y="950" on="1"/>
        <pt x="764" y="979" on="0"/>
        <pt x="740" y="1055" on="0"/>
        <pt x="691" y="1122" on="0"/>
        <pt x="611" y="1169" on="0"/>
        <pt x="551" y="1169" on="1"/>
        <pt x="523" y="1169" on="0"/>
        <pt x="477" y="1137" on="0"/>
        <pt x="444" y="1088" on="0"/>
        <pt x="425" y="1030" on="0"/>
        <pt x="425" y="1004" on="1"/>
        <pt x="425" y="947" on="0"/>
        <pt x="475" y="857" on="0"/>
        <pt x="527" y="826" on="1"/>
        <pt x="533" y="822" on="0"/>
        <pt x="550" y="815" on="0"/>
        <pt x="565" y="806" on="0"/>
        <pt x="575" y="794" on="0"/>
        <pt x="575" y="786" on="1"/>
        <pt x="575" y="782" on="0"/>
        <pt x="568" y="777" on="0"/>
        <pt x="566" y="777" on="1"/>
        <pt x="531" y="777" on="0"/>
        <pt x="466" y="822" on="0"/>
        <pt x="417" y="892" on="0"/>
        <pt x="387" y="976" on="0"/>
        <pt x="387" y="1014" on="1"/>
        <pt x="387" y="1063" on="0"/>
        <pt x="423" y="1153" on="0"/>
        <pt x="486" y="1221" on="0"/>
        <pt x="573" y="1261" on="0"/>
        <pt x="624" y="1261" on="1"/>
        <pt x="670" y="1261" on="0"/>
        <pt x="754" y="1227" on="0"/>
        <pt x="783" y="1189" on="1"/>
        <pt x="784" y="1187" on="0"/>
        <pt x="791" y="1178" on="0"/>
        <pt x="797" y="1168" on="0"/>
        <pt x="802" y="1160" on="0"/>
        <pt x="802" y="1160" on="1"/>
        <pt x="804" y="1160" on="0"/>
        <pt x="821" y="1197" on="0"/>
        <pt x="857" y="1240" on="0"/>
        <pt x="915" y="1277" on="0"/>
        <pt x="958" y="1277" on="1"/>
        <pt x="958" y="1276" on="0"/>
        <pt x="959" y="1276" on="1"/>
        <pt x="960" y="1276" on="1"/>
        <pt x="1045" y="1271" on="0"/>
        <pt x="1097" y="1189" on="1"/>
        <pt x="1098" y="1186" on="0"/>
        <pt x="1105" y="1170" on="0"/>
        <pt x="1114" y="1153" on="0"/>
        <pt x="1123" y="1140" on="0"/>
        <pt x="1127" y="1140" on="1"/>
        <pt x="1144" y="1193" on="0"/>
        <pt x="1237" y="1258" on="0"/>
        <pt x="1326" y="1258" on="1"/>
        <pt x="1351" y="1258" on="0"/>
        <pt x="1399" y="1242" on="0"/>
        <pt x="1441" y="1213" on="0"/>
        <pt x="1474" y="1174" on="0"/>
        <pt x="1483" y="1151" on="1"/>
        <pt x="1495" y="1122" on="0"/>
        <pt x="1499" y="1062" on="0"/>
        <pt x="1499" y="1033" on="1"/>
        <pt x="1499" y="1022" on="0"/>
        <pt x="1506" y="1004" on="0"/>
        <pt x="1520" y="985" on="1"/>
        <pt x="1520" y="975" on="0"/>
        <pt x="1509" y="965" on="0"/>
        <pt x="1493" y="961" on="0"/>
        <pt x="1475" y="960" on="0"/>
        <pt x="1468" y="959" on="1"/>
        <pt x="1435" y="952" on="0"/>
        <pt x="1397" y="913" on="0"/>
        <pt x="1377" y="858" on="0"/>
        <pt x="1371" y="792" on="0"/>
        <pt x="1371" y="758" on="1"/>
        <pt x="1371" y="695" on="0"/>
        <pt x="1372" y="584" on="0"/>
        <pt x="1374" y="522" on="1"/>
        <pt x="1375" y="511" on="0"/>
        <pt x="1389" y="487" on="0"/>
        <pt x="1409" y="466" on="0"/>
        <pt x="1431" y="452" on="0"/>
        <pt x="1440" y="452" on="1"/>
        <pt x="1446" y="452" on="0"/>
        <pt x="1462" y="463" on="0"/>
        <pt x="1479" y="477" on="0"/>
        <pt x="1496" y="488" on="0"/>
        <pt x="1503" y="488" on="1"/>
        <pt x="1508" y="488" on="0"/>
        <pt x="1513" y="481" on="0"/>
        <pt x="1513" y="476" on="1"/>
        <pt x="1513" y="468" on="0"/>
        <pt x="1502" y="455" on="0"/>
        <pt x="1473" y="431" on="0"/>
        <pt x="1423" y="392" on="0"/>
        <pt x="1383" y="360" on="1"/>
        <pt x="1365" y="360" on="0"/>
        <pt x="1325" y="384" on="0"/>
        <pt x="1292" y="420" on="0"/>
        <pt x="1270" y="461" on="0"/>
        <pt x="1270" y="478" on="1"/>
        <pt x="1270" y="807" on="1"/>
        <pt x="1270" y="840" on="0"/>
        <pt x="1296" y="891" on="0"/>
        <pt x="1336" y="928" on="0"/>
        <pt x="1384" y="954" on="0"/>
        <pt x="1406" y="963" on="1"/>
        <pt x="1406" y="989" on="0"/>
        <pt x="1407" y="1014" on="0"/>
        <pt x="1407" y="1024" on="1"/>
        <pt x="1407" y="1074" on="0"/>
        <pt x="1389" y="1138" on="0"/>
        <pt x="1350" y="1175" on="0"/>
        <pt x="1289" y="1189" on="0"/>
        <pt x="1246" y="1189" on="1"/>
        <pt x="1226" y="1183" on="0"/>
        <pt x="1197" y="1170" on="0"/>
        <pt x="1174" y="1152" on="0"/>
        <pt x="1155" y="1127" on="0"/>
        <pt x="1145" y="1109" on="1"/>
        <pt x="1142" y="1104" on="0"/>
        <pt x="1135" y="1094" on="0"/>
        <pt x="1135" y="1089" on="1"/>
        <pt x="1135" y="1081" on="0"/>
        <pt x="1145" y="1069" on="0"/>
        <pt x="1146" y="1061" on="1"/>
        <pt x="1155" y="1017" on="0"/>
        <pt x="1165" y="925" on="0"/>
        <pt x="1165" y="878" on="1"/>
        <pt x="1165" y="786" on="0"/>
        <pt x="1122" y="607" on="0"/>
        <pt x="1071" y="526" on="1"/>
        <pt x="1068" y="521" on="0"/>
        <pt x="1048" y="492" on="0"/>
        <pt x="1021" y="455" on="0"/>
        <pt x="991" y="415" on="0"/>
        <pt x="963" y="382" on="0"/>
        <pt x="940" y="360" on="0"/>
        <pt x="934" y="360" on="1"/>
        <pt x="926" y="360" on="0"/>
        <pt x="908" y="378" on="0"/>
        <pt x="884" y="400" on="0"/>
        <pt x="852" y="418" on="0"/>
        <pt x="832" y="418" on="1"/>
        <pt x="820" y="418" on="0"/>
        <pt x="799" y="391" on="0"/>
        <pt x="789" y="384" on="1"/>
        <pt x="772" y="384" on="0"/>
        <pt x="772" y="394" on="1"/>
        <pt x="772" y="405" on="0"/>
        <pt x="795" y="444" on="0"/>
        <pt x="828" y="482" on="0"/>
        <pt x="864" y="510" on="0"/>
        <pt x="876" y="510" on="1"/>
        <pt x="893" y="510" on="0"/>
        <pt x="937" y="484" on="0"/>
        <pt x="977" y="459" on="1"/>
        <pt x="999" y="470" on="0"/>
        <pt x="1034" y="546" on="0"/>
        <pt x="1058" y="641" on="0"/>
        <pt x="1070" y="738" on="0"/>
        <pt x="1070" y="770" on="1"/>
        <pt x="1070" y="815" on="0"/>
        <pt x="1063" y="924" on="0"/>
        <pt x="1041" y="1035" on="0"/>
        <pt x="1000" y="1135" on="0"/>
        <pt x="966" y="1171" on="1"/>
        <pt x="953" y="1184" on="0"/>
        <pt x="922" y="1201" on="0"/>
        <pt x="905" y="1201" on="1"/>
        <pt x="869" y="1201" on="0"/>
        <pt x="832" y="1158" on="0"/>
        <pt x="832" y="1127" on="1"/>
        <pt x="832" y="1118" on="0"/>
        <pt x="836" y="1100" on="0"/>
        <pt x="839" y="1089" on="1"/>
        <pt x="850" y="1057" on="0"/>
        <pt x="864" y="997" on="0"/>
        <pt x="873" y="934" on="0"/>
        <pt x="877" y="864" on="0"/>
        <pt x="877" y="823" on="1"/>
        <pt x="877" y="781" on="0"/>
        <pt x="857" y="669" on="0"/>
        <pt x="812" y="552" on="0"/>
        <pt x="738" y="440" on="0"/>
        <pt x="683" y="398" on="1"/>
        <pt x="680" y="393" on="0"/>
        <pt x="668" y="380" on="0"/>
        <pt x="653" y="368" on="0"/>
        <pt x="639" y="360" on="0"/>
        <pt x="633" y="360" on="1"/>
        <pt x="630" y="360" on="0"/>
        <pt x="616" y="378" on="0"/>
        <pt x="593" y="400" on="0"/>
        <pt x="560" y="418" on="0"/>
      </contour>
    </TTGlyph>
    <TTGlyph name="G" xMin="115" yMin="-27" xMax="1616" yMax="1448">
      <contour>
        <pt x="115" y="717" on="1"/>
        <pt x="115" y="818" on="0"/>
        <pt x="169" y="1004" on="0"/>
        <pt x="267" y="1167" on="0"/>
        <pt x="404" y="1300" on="0"/>
        <pt x="568" y="1396" on="0"/>
        <pt x="755" y="1448" on="0"/>
        <pt x="854" y="1448" on="1"/>
        <pt x="907" y="1448" on="0"/>
        <pt x="1017" y="1435" on="0"/>
        <pt x="1122" y="1415" on="0"/>
        <pt x="1216" y="1391" on="0"/>
        <pt x="1287" y="1371" on="0"/>
        <pt x="1332" y="1358" on="0"/>
        <pt x="1335" y="1358" on="1"/>
        <pt x="1347" y="1358" on="1"/>
        <pt x="1355" y="1358" on="0"/>
        <pt x="1364" y="1361" on="0"/>
        <pt x="1371" y="1365" on="0"/>
        <pt x="1379" y="1368" on="0"/>
        <pt x="1387" y="1368" on="1"/>
        <pt x="1427" y="1368" on="1"/>
        <pt x="1429" y="1368" on="0"/>
        <pt x="1438" y="1365" on="0"/>
        <pt x="1438" y="1357" on="1"/>
        <pt x="1438" y="1024" on="1"/>
        <pt x="1438" y="1013" on="0"/>
        <pt x="1419" y="1005" on="0"/>
        <pt x="1412" y="1005" on="1"/>
        <pt x="1403" y="1006" on="0"/>
        <pt x="1389" y="1024" on="0"/>
        <pt x="1377" y="1046" on="0"/>
        <pt x="1369" y="1066" on="0"/>
        <pt x="1368" y="1071" on="1"/>
        <pt x="1343" y="1149" on="0"/>
        <pt x="1252" y="1256" on="0"/>
        <pt x="1129" y="1324" on="0"/>
        <pt x="982" y="1354" on="0"/>
        <pt x="901" y="1354" on="1"/>
        <pt x="762" y="1354" on="0"/>
        <pt x="576" y="1252" on="0"/>
        <pt x="463" y="1080" on="0"/>
        <pt x="416" y="855" on="0"/>
        <pt x="416" y="731" on="1"/>
        <pt x="416" y="646" on="0"/>
        <pt x="450" y="482" on="0"/>
        <pt x="513" y="335" on="0"/>
        <pt x="603" y="212" on="0"/>
        <pt x="714" y="123" on="0"/>
        <pt x="843" y="73" on="0"/>
        <pt x="915" y="73" on="1"/>
        <pt x="996" y="73" on="0"/>
        <pt x="1119" y="108" on="0"/>
        <pt x="1157" y="159" on="1"/>
        <pt x="1157" y="380" on="1"/>
        <pt x="1157" y="423" on="0"/>
        <pt x="1136" y="490" on="0"/>
        <pt x="1080" y="536" on="0"/>
        <pt x="984" y="560" on="0"/>
        <pt x="909" y="560" on="1"/>
        <pt x="903" y="560" on="0"/>
        <pt x="898" y="583" on="0"/>
        <pt x="898" y="591" on="1"/>
        <pt x="898" y="596" on="0"/>
        <pt x="903" y="620" on="0"/>
        <pt x="909" y="620" on="1"/>
        <pt x="1605" y="620" on="1"/>
        <pt x="1613" y="620" on="0"/>
        <pt x="1616" y="597" on="0"/>
        <pt x="1616" y="591" on="1"/>
        <pt x="1616" y="586" on="0"/>
        <pt x="1612" y="564" on="0"/>
        <pt x="1605" y="560" on="1"/>
        <pt x="1578" y="549" on="0"/>
        <pt x="1521" y="533" on="0"/>
        <pt x="1473" y="507" on="0"/>
        <pt x="1442" y="462" on="0"/>
        <pt x="1442" y="423" on="1"/>
        <pt x="1442" y="131" on="1"/>
        <pt x="1442" y="123" on="0"/>
        <pt x="1429" y="113" on="0"/>
        <pt x="1415" y="107" on="1"/>
        <pt x="1359" y="80" on="0"/>
        <pt x="1217" y="32" on="0"/>
        <pt x="1067" y="-5" on="0"/>
        <pt x="919" y="-27" on="0"/>
        <pt x="858" y="-27" on="1"/>
        <pt x="703" y="-27" on="0"/>
        <pt x="433" y="76" on="0"/>
        <pt x="231" y="269" on="0"/>
        <pt x="115" y="545" on="0"/>
      </contour>
    </TTGlyph>
    <TTGlyph name="G.sc" xMin="104" yMin="-18" xMax="1121" yMax="970">
      <contour>
        <pt x="104" y="480" on="1"/>
        <pt x="104" y="582" on="0"/>
        <pt x="191" y="760" on="0"/>
        <pt x="335" y="893" on="0"/>
        <pt x="521" y="970" on="0"/>
        <pt x="621" y="970" on="1"/>
        <pt x="673" y="970" on="0"/>
        <pt x="775" y="951" on="0"/>
        <pt x="857" y="928" on="0"/>
        <pt x="909" y="909" on="0"/>
        <pt x="912" y="909" on="1"/>
        <pt x="921" y="909" on="1"/>
        <pt x="927" y="909" on="0"/>
        <pt x="932" y="911" on="0"/>
        <pt x="937" y="914" on="0"/>
        <pt x="942" y="917" on="0"/>
        <pt x="947" y="917" on="1"/>
        <pt x="985" y="917" on="1"/>
        <pt x="986" y="917" on="0"/>
        <pt x="992" y="915" on="0"/>
        <pt x="992" y="909" on="1"/>
        <pt x="992" y="686" on="1"/>
        <pt x="992" y="673" on="0"/>
        <pt x="978" y="673" on="1"/>
        <pt x="954" y="673" on="1"/>
        <pt x="948" y="674" on="0"/>
        <pt x="942" y="686" on="0"/>
        <pt x="938" y="701" on="0"/>
        <pt x="936" y="714" on="0"/>
        <pt x="935" y="717" on="1"/>
        <pt x="918" y="769" on="0"/>
        <pt x="866" y="838" on="0"/>
        <pt x="795" y="879" on="0"/>
        <pt x="706" y="896" on="0"/>
        <pt x="652" y="896" on="1"/>
        <pt x="562" y="896" on="0"/>
        <pt x="427" y="831" on="0"/>
        <pt x="338" y="720" on="0"/>
        <pt x="294" y="572" on="0"/>
        <pt x="294" y="489" on="1"/>
        <pt x="294" y="403" on="0"/>
        <pt x="338" y="248" on="0"/>
        <pt x="428" y="130" on="0"/>
        <pt x="567" y="60" on="0"/>
        <pt x="662" y="60" on="1"/>
        <pt x="684" y="60" on="0"/>
        <pt x="735" y="62" on="0"/>
        <pt x="785" y="71" on="0"/>
        <pt x="827" y="90" on="0"/>
        <pt x="840" y="107" on="1"/>
        <pt x="840" y="249" on="1"/>
        <pt x="840" y="277" on="0"/>
        <pt x="826" y="322" on="0"/>
        <pt x="789" y="354" on="0"/>
        <pt x="725" y="370" on="0"/>
        <pt x="674" y="370" on="1"/>
        <pt x="670" y="370" on="0"/>
        <pt x="667" y="388" on="0"/>
        <pt x="667" y="393" on="1"/>
        <pt x="667" y="397" on="0"/>
        <pt x="670" y="416" on="0"/>
        <pt x="674" y="416" on="1"/>
        <pt x="1114" y="416" on="1"/>
        <pt x="1119" y="416" on="0"/>
        <pt x="1121" y="397" on="0"/>
        <pt x="1121" y="393" on="1"/>
        <pt x="1121" y="389" on="0"/>
        <pt x="1119" y="372" on="0"/>
        <pt x="1114" y="370" on="1"/>
        <pt x="1096" y="362" on="0"/>
        <pt x="1058" y="352" on="0"/>
        <pt x="1026" y="334" on="0"/>
        <pt x="1005" y="305" on="0"/>
        <pt x="1005" y="278" on="1"/>
        <pt x="1005" y="91" on="1"/>
        <pt x="1005" y="83" on="0"/>
        <pt x="987" y="76" on="1"/>
        <pt x="949" y="58" on="0"/>
        <pt x="857" y="24" on="0"/>
        <pt x="760" y="-2" on="0"/>
        <pt x="664" y="-18" on="0"/>
        <pt x="623" y="-18" on="1"/>
        <pt x="520" y="-18" on="0"/>
        <pt x="332" y="51" on="0"/>
        <pt x="189" y="180" on="0"/>
        <pt x="104" y="365" on="0"/>
      </contour>
    </TTGlyph>
    <TTGlyph name="Gamma" xMin="86" yMin="0" xMax="1107" yMax="1410">
      <contour>
        <pt x="532" y="188" on="1"/>
        <pt x="532" y="161" on="0"/>
        <pt x="553" y="124" on="0"/>
        <pt x="590" y="97" on="0"/>
        <pt x="640" y="77" on="0"/>
        <pt x="670" y="68" on="1"/>
        <pt x="685" y="63" on="0"/>
        <pt x="719" y="55" on="0"/>
        <pt x="730" y="55" on="1"/>
        <pt x="736" y="55" on="0"/>
        <pt x="738" y="48" on="0"/>
        <pt x="738" y="47" on="1"/>
        <pt x="738" y="8" on="1"/>
        <pt x="738" y="6" on="0"/>
        <pt x="735" y="0" on="0"/>
        <pt x="730" y="0" on="1"/>
        <pt x="94" y="0" on="1"/>
        <pt x="89" y="0" on="0"/>
        <pt x="86" y="6" on="0"/>
        <pt x="86" y="8" on="1"/>
        <pt x="86" y="47" on="1"/>
        <pt x="86" y="49" on="0"/>
        <pt x="88" y="55" on="0"/>
        <pt x="94" y="55" on="1"/>
        <pt x="105" y="55" on="0"/>
        <pt x="140" y="64" on="0"/>
        <pt x="149" y="68" on="1"/>
        <pt x="192" y="87" on="0"/>
        <pt x="247" y="150" on="0"/>
        <pt x="247" y="195" on="1"/>
        <pt x="247" y="1245" on="1"/>
        <pt x="247" y="1283" on="0"/>
        <pt x="205" y="1327" on="0"/>
        <pt x="152" y="1349" on="0"/>
        <pt x="105" y="1355" on="0"/>
        <pt x="99" y="1355" on="1"/>
        <pt x="95" y="1355" on="1"/>
        <pt x="90" y="1355" on="0"/>
        <pt x="87" y="1361" on="0"/>
        <pt x="87" y="1363" on="1"/>
        <pt x="87" y="1402" on="1"/>
        <pt x="87" y="1404" on="0"/>
        <pt x="90" y="1410" on="0"/>
        <pt x="95" y="1410" on="1"/>
        <pt x="1083" y="1410" on="1"/>
        <pt x="1095" y="1408" on="0"/>
        <pt x="1107" y="1401" on="0"/>
        <pt x="1107" y="1387" on="1"/>
        <pt x="1107" y="1115" on="1"/>
        <pt x="1107" y="1103" on="0"/>
        <pt x="1093" y="1097" on="0"/>
        <pt x="1084" y="1097" on="1"/>
        <pt x="1064" y="1097" on="1"/>
        <pt x="1062" y="1098" on="0"/>
        <pt x="1055" y="1131" on="0"/>
        <pt x="1043" y="1176" on="0"/>
        <pt x="1026" y="1221" on="0"/>
        <pt x="1015" y="1234" on="1"/>
        <pt x="1001" y="1249" on="0"/>
        <pt x="975" y="1269" on="0"/>
        <pt x="943" y="1281" on="0"/>
        <pt x="901" y="1285" on="0"/>
        <pt x="871" y="1285" on="1"/>
        <pt x="552" y="1285" on="1"/>
        <pt x="532" y="1285" on="0"/>
        <pt x="532" y="1265" on="1"/>
      </contour>
    </TTGlyph>
    <TTGlyph name="Gbar" xMin="115" yMin="-27" xMax="1618" yMax="1448">
      <contour>
        <pt x="835" y="274" on="1"/>
        <pt x="814" y="274" on="0"/>
        <pt x="814" y="299" on="1"/>
        <pt x="814" y="375" on="1"/>
        <pt x="814" y="400" on="0"/>
        <pt x="835" y="400" on="1"/>
        <pt x="1156" y="400" on="1"/>
        <pt x="1154" y="438" on="0"/>
        <pt x="1129" y="497" on="0"/>
        <pt x="1073" y="538" on="0"/>
        <pt x="979" y="560" on="0"/>
        <pt x="909" y="560" on="1"/>
        <pt x="903" y="560" on="0"/>
        <pt x="898" y="583" on="0"/>
        <pt x="898" y="591" on="1"/>
        <pt x="898" y="596" on="0"/>
        <pt x="903" y="620" on="0"/>
        <pt x="909" y="620" on="1"/>
        <pt x="1605" y="620" on="1"/>
        <pt x="1613" y="620" on="0"/>
        <pt x="1616" y="597" on="0"/>
        <pt x="1616" y="591" on="1"/>
        <pt x="1616" y="586" on="0"/>
        <pt x="1612" y="564" on="0"/>
        <pt x="1605" y="560" on="1"/>
        <pt x="1578" y="549" on="0"/>
        <pt x="1521" y="533" on="0"/>
        <pt x="1473" y="507" on="0"/>
        <pt x="1442" y="462" on="0"/>
        <pt x="1442" y="423" on="1"/>
        <pt x="1442" y="400" on="1"/>
        <pt x="1597" y="400" on="1"/>
        <pt x="1606" y="400" on="0"/>
        <pt x="1618" y="386" on="0"/>
        <pt x="1618" y="375" on="1"/>
        <pt x="1618" y="299" on="1"/>
        <pt x="1618" y="288" on="0"/>
        <pt x="1606" y="274" on="0"/>
        <pt x="1597" y="274" on="1"/>
        <pt x="1442" y="274" on="1"/>
        <pt x="1442" y="131" on="1"/>
        <pt x="1442" y="123" on="0"/>
        <pt x="1429" y="113" on="0"/>
        <pt x="1415" y="107" on="1"/>
        <pt x="1359" y="80" on="0"/>
        <pt x="1217" y="32" on="0"/>
        <pt x="1067" y="-5" on="0"/>
        <pt x="919" y="-27" on="0"/>
        <pt x="858" y="-27" on="1"/>
        <pt x="703" y="-27" on="0"/>
        <pt x="433" y="76" on="0"/>
        <pt x="231" y="269" on="0"/>
        <pt x="115" y="545" on="0"/>
        <pt x="115" y="717" on="1"/>
        <pt x="115" y="818" on="0"/>
        <pt x="169" y="1004" on="0"/>
        <pt x="267" y="1167" on="0"/>
        <pt x="404" y="1300" on="0"/>
        <pt x="568" y="1396" on="0"/>
        <pt x="755" y="1448" on="0"/>
        <pt x="854" y="1448" on="1"/>
        <pt x="907" y="1448" on="0"/>
        <pt x="1017" y="1435" on="0"/>
        <pt x="1122" y="1415" on="0"/>
        <pt x="1216" y="1391" on="0"/>
        <pt x="1287" y="1371" on="0"/>
        <pt x="1332" y="1358" on="0"/>
        <pt x="1335" y="1358" on="1"/>
        <pt x="1347" y="1358" on="1"/>
        <pt x="1355" y="1358" on="0"/>
        <pt x="1364" y="1361" on="0"/>
        <pt x="1371" y="1365" on="0"/>
        <pt x="1379" y="1368" on="0"/>
        <pt x="1387" y="1368" on="1"/>
        <pt x="1427" y="1368" on="1"/>
        <pt x="1429" y="1368" on="0"/>
        <pt x="1438" y="1365" on="0"/>
        <pt x="1438" y="1357" on="1"/>
        <pt x="1438" y="1024" on="1"/>
        <pt x="1438" y="1013" on="0"/>
        <pt x="1419" y="1005" on="0"/>
        <pt x="1412" y="1005" on="1"/>
        <pt x="1403" y="1006" on="0"/>
        <pt x="1389" y="1024" on="0"/>
        <pt x="1377" y="1046" on="0"/>
        <pt x="1369" y="1066" on="0"/>
        <pt x="1368" y="1071" on="1"/>
        <pt x="1343" y="1149" on="0"/>
        <pt x="1252" y="1256" on="0"/>
        <pt x="1129" y="1324" on="0"/>
        <pt x="982" y="1354" on="0"/>
        <pt x="901" y="1354" on="1"/>
        <pt x="762" y="1354" on="0"/>
        <pt x="576" y="1252" on="0"/>
        <pt x="463" y="1080" on="0"/>
        <pt x="416" y="855" on="0"/>
        <pt x="416" y="731" on="1"/>
        <pt x="416" y="646" on="0"/>
        <pt x="450" y="482" on="0"/>
        <pt x="513" y="335" on="0"/>
        <pt x="603" y="212" on="0"/>
        <pt x="714" y="123" on="0"/>
        <pt x="843" y="73" on="0"/>
        <pt x="915" y="73" on="1"/>
        <pt x="996" y="73" on="0"/>
        <pt x="1119" y="108" on="0"/>
        <pt x="1157" y="159" on="1"/>
        <pt x="1157" y="274" on="1"/>
        <pt x="835" y="274" on="1"/>
      </contour>
    </TTGlyph>
    <TTGlyph name="Gbreve" xMin="115" yMin="-27" xMax="1616" yMax="1971">
      <component glyphName="G" x="0" y="0" flags="0x1204"/>
      <component glyphName="breve" x="499" y="543" flags="0x1004"/>
    </TTGlyph>
    <TTGlyph name="Gcaron" xMin="115" yMin="-27" xMax="1616" yMax="1970">
      <component glyphName="G" x="0" y="0" flags="0x1204"/>
      <component glyphName="caron" x="550" y="497" flags="0x1004"/>
    </TTGlyph>
    <TTGlyph name="Gcircumflex" xMin="115" yMin="-27" xMax="1616" yMax="1970">
      <component glyphName="G" x="0" y="0" flags="0x1204"/>
      <component glyphName="circumflex" x="560" y="497" flags="0x1004"/>
    </TTGlyph>
    <TTGlyph name="Gcommaaccent" xMin="115" yMin="-654" xMax="1616" yMax="1448">
      <component glyphName="G" x="0" y="0" flags="0x1204"/>
      <component glyphName="commaaccent" x="546" y="0" flags="0x1004"/>
    </TTGlyph>
    <TTGlyph name="Gdotaccent" xMin="115" yMin="-27" xMax="1616" yMax="1937">
      <component glyphName="G" x="0" y="0" flags="0x1204"/>
      <component glyphName="dotaccent" x="520" y="571" flags="0x1004"/>
    </TTGlyph>
    <TTGlyph name="Germandbls.sc" xMin="86" yMin="-18" xMax="1473" yMax="972">
      <component glyphName="S.sc" x="781" y="0" flags="0x1004"/>
      <component glyphName="S.sc" x="1" y="0" flags="0x1004"/>
    </TTGlyph>
    <TTGlyph name="Goth-ph" xMin="125" yMin="0" xMax="1799" yMax="1645">
      <contour>
        <pt x="963" y="597" on="1"/>
        <pt x="1044" y="597" on="1"/>
        <pt x="1055" y="603" on="0"/>
        <pt x="1079" y="618" on="0"/>
        <pt x="1085" y="638" on="1"/>
        <pt x="1083" y="654" on="0"/>
        <pt x="1066" y="708" on="0"/>
        <pt x="1046" y="764" on="0"/>
        <pt x="1027" y="811" on="0"/>
        <pt x="1022" y="821" on="1"/>
        <pt x="1016" y="827" on="0"/>
        <pt x="1005" y="868" on="0"/>
        <pt x="989" y="914" on="0"/>
        <pt x="965" y="950" on="0"/>
        <pt x="946" y="950" on="1"/>
        <pt x="932" y="950" on="0"/>
        <pt x="911" y="932" on="0"/>
        <pt x="906" y="911" on="1"/>
        <pt x="901" y="624" on="1"/>
        <pt x="903" y="616" on="0"/>
        <pt x="917" y="605" on="0"/>
        <pt x="935" y="599" on="0"/>
        <pt x="954" y="597" on="0"/>
      </contour>
      <contour>
        <pt x="721" y="221" on="1"/>
        <pt x="695" y="221" on="0"/>
        <pt x="667" y="231" on="0"/>
        <pt x="667" y="248" on="1"/>
        <pt x="667" y="271" on="0"/>
        <pt x="688" y="305" on="0"/>
        <pt x="690" y="319" on="1"/>
        <pt x="743" y="906" on="1"/>
        <pt x="784" y="947" on="1"/>
        <pt x="812" y="954" on="0"/>
        <pt x="863" y="981" on="0"/>
        <pt x="900" y="1017" on="0"/>
        <pt x="922" y="1062" on="0"/>
        <pt x="922" y="1088" on="1"/>
        <pt x="922" y="1118" on="0"/>
        <pt x="894" y="1179" on="0"/>
        <pt x="835" y="1232" on="0"/>
        <pt x="744" y="1273" on="0"/>
        <pt x="681" y="1283" on="1"/>
        <pt x="673" y="1291" on="0"/>
        <pt x="673" y="1301" on="1"/>
        <pt x="673" y="1311" on="0"/>
        <pt x="693" y="1319" on="0"/>
        <pt x="704" y="1324" on="1"/>
        <pt x="1018" y="1311" on="1"/>
        <pt x="1032" y="1304" on="0"/>
        <pt x="1045" y="1286" on="0"/>
        <pt x="1048" y="1279" on="1"/>
        <pt x="1107" y="1140" on="0"/>
        <pt x="1191" y="941" on="0"/>
        <pt x="1249" y="803" on="0"/>
        <pt x="1284" y="719" on="0"/>
        <pt x="1305" y="668" on="0"/>
        <pt x="1315" y="642" on="0"/>
        <pt x="1318" y="633" on="1"/>
        <pt x="1328" y="605" on="0"/>
        <pt x="1328" y="583" on="1"/>
        <pt x="1321" y="563" on="0"/>
        <pt x="1297" y="549" on="0"/>
        <pt x="1287" y="544" on="1"/>
        <pt x="902" y="530" on="1"/>
        <pt x="889" y="524" on="0"/>
        <pt x="886" y="506" on="0"/>
        <pt x="884" y="500" on="1"/>
        <pt x="838" y="337" on="1"/>
        <pt x="834" y="323" on="0"/>
        <pt x="830" y="293" on="0"/>
        <pt x="825" y="284" on="1"/>
        <pt x="811" y="256" on="0"/>
        <pt x="775" y="221" on="0"/>
        <pt x="749" y="221" on="1"/>
      </contour>
      <contour>
        <pt x="125" y="1245" on="1"/>
        <pt x="125" y="1328" on="0"/>
        <pt x="188" y="1474" on="0"/>
        <pt x="296" y="1582" on="0"/>
        <pt x="442" y="1645" on="0"/>
        <pt x="525" y="1645" on="1"/>
        <pt x="1399" y="1645" on="1"/>
        <pt x="1482" y="1645" on="0"/>
        <pt x="1628" y="1582" on="0"/>
        <pt x="1736" y="1474" on="0"/>
        <pt x="1799" y="1328" on="0"/>
        <pt x="1799" y="1245" on="1"/>
        <pt x="1799" y="400" on="1"/>
        <pt x="1799" y="317" on="0"/>
        <pt x="1736" y="171" on="0"/>
        <pt x="1627" y="63" on="0"/>
        <pt x="1481" y="0" on="0"/>
        <pt x="1398" y="0" on="1"/>
        <pt x="526" y="0" on="1"/>
        <pt x="443" y="0" on="0"/>
        <pt x="297" y="63" on="0"/>
        <pt x="188" y="171" on="0"/>
        <pt x="125" y="317" on="0"/>
        <pt x="125" y="400" on="1"/>
      </contour>
      <contour>
        <pt x="526" y="1495" on="1"/>
        <pt x="474" y="1495" on="0"/>
        <pt x="383" y="1456" on="0"/>
        <pt x="315" y="1388" on="0"/>
        <pt x="275" y="1297" on="0"/>
        <pt x="275" y="1245" on="1"/>
        <pt x="275" y="400" on="1"/>
        <pt x="275" y="348" on="0"/>
        <pt x="315" y="257" on="0"/>
        <pt x="384" y="189" on="0"/>
        <pt x="475" y="150" on="0"/>
        <pt x="526" y="150" on="1"/>
        <pt x="1398" y="150" on="1"/>
        <pt x="1449" y="150" on="0"/>
        <pt x="1540" y="189" on="0"/>
        <pt x="1609" y="257" on="0"/>
        <pt x="1649" y="348" on="0"/>
        <pt x="1649" y="400" on="1"/>
        <pt x="1649" y="1245" on="1"/>
        <pt x="1649" y="1297" on="0"/>
        <pt x="1609" y="1388" on="0"/>
        <pt x="1541" y="1456" on="0"/>
        <pt x="1450" y="1495" on="0"/>
        <pt x="1398" y="1495" on="1"/>
      </contour>
    </TTGlyph>
    <TTGlyph name="Grave" xMin="140" yMin="1561" xMax="504" yMax="1950">
      <contour>
        <pt x="478" y="1565" on="1"/>
        <pt x="474" y="1561" on="0"/>
        <pt x="470" y="1561" on="1"/>
        <pt x="468" y="1561" on="0"/>
        <pt x="464" y="1565" on="1"/>
        <pt x="195" y="1782" on="1"/>
        <pt x="175" y="1799" on="0"/>
        <pt x="140" y="1845" on="0"/>
        <pt x="140" y="1876" on="1"/>
        <pt x="140" y="1905" on="0"/>
        <pt x="181" y="1950" on="0"/>
        <pt x="212" y="1950" on="1"/>
        <pt x="230" y="1950" on="0"/>
        <pt x="268" y="1927" on="0"/>
        <pt x="287" y="1901" on="1"/>
        <pt x="500" y="1606" on="1"/>
        <pt x="504" y="1602" on="0"/>
        <pt x="504" y="1600" on="1"/>
        <pt x="504" y="1598" on="0"/>
        <pt x="500" y="1594" on="1"/>
      </contour>
    </TTGlyph>
    <TTGlyph name="Gravesmall" xMin="402" yMin="1067" xMax="647" yMax="1327">
      <contour>
        <pt x="629" y="1070" on="1"/>
        <pt x="627" y="1067" on="0"/>
        <pt x="624" y="1067" on="1"/>
        <pt x="622" y="1067" on="0"/>
        <pt x="619" y="1070" on="1"/>
        <pt x="439" y="1215" on="1"/>
        <pt x="425" y="1226" on="0"/>
        <pt x="402" y="1258" on="0"/>
        <pt x="402" y="1278" on="1"/>
        <pt x="402" y="1298" on="0"/>
        <pt x="430" y="1327" on="0"/>
        <pt x="450" y="1327" on="1"/>
        <pt x="463" y="1327" on="0"/>
        <pt x="488" y="1312" on="0"/>
        <pt x="501" y="1295" on="1"/>
        <pt x="644" y="1097" on="1"/>
        <pt x="647" y="1094" on="0"/>
        <pt x="647" y="1093" on="1"/>
        <pt x="647" y="1092" on="0"/>
        <pt x="645" y="1091" on="0"/>
        <pt x="644" y="1089" on="1"/>
      </contour>
    </TTGlyph>
    <TTGlyph name="H" xMin="60" yMin="0" xMax="1742" yMax="1410">
      <contour>
        <pt x="68" y="0" on="1"/>
        <pt x="63" y="0" on="0"/>
        <pt x="60" y="6" on="0"/>
        <pt x="60" y="8" on="1"/>
        <pt x="60" y="62" on="1"/>
        <pt x="60" y="64" on="0"/>
        <pt x="63" y="70" on="0"/>
        <pt x="68" y="70" on="1"/>
        <pt x="99" y="70" on="0"/>
        <pt x="162" y="79" on="0"/>
        <pt x="214" y="109" on="0"/>
        <pt x="247" y="165" on="0"/>
        <pt x="247" y="213" on="1"/>
        <pt x="247" y="1215" on="1"/>
        <pt x="247" y="1249" on="0"/>
        <pt x="225" y="1295" on="0"/>
        <pt x="185" y="1324" on="0"/>
        <pt x="129" y="1338" on="0"/>
        <pt x="95" y="1340" on="1"/>
        <pt x="87" y="1340" on="0"/>
        <pt x="87" y="1348" on="1"/>
        <pt x="87" y="1402" on="1"/>
        <pt x="87" y="1410" on="0"/>
        <pt x="94" y="1410" on="1"/>
        <pt x="686" y="1410" on="1"/>
        <pt x="691" y="1410" on="0"/>
        <pt x="694" y="1404" on="0"/>
        <pt x="694" y="1402" on="1"/>
        <pt x="694" y="1348" on="1"/>
        <pt x="694" y="1342" on="0"/>
        <pt x="686" y="1342" on="1"/>
        <pt x="656" y="1342" on="0"/>
        <pt x="600" y="1331" on="0"/>
        <pt x="558" y="1301" on="0"/>
        <pt x="532" y="1246" on="0"/>
        <pt x="532" y="1201" on="1"/>
        <pt x="532" y="789" on="1"/>
        <pt x="532" y="779" on="0"/>
        <pt x="538" y="773" on="0"/>
        <pt x="548" y="773" on="1"/>
        <pt x="1246" y="773" on="1"/>
        <pt x="1256" y="773" on="0"/>
        <pt x="1262" y="779" on="0"/>
        <pt x="1262" y="789" on="1"/>
        <pt x="1262" y="1217" on="1"/>
        <pt x="1262" y="1252" on="0"/>
        <pt x="1218" y="1298" on="0"/>
        <pt x="1151" y="1325" on="0"/>
        <pt x="1073" y="1338" on="0"/>
        <pt x="1040" y="1340" on="1"/>
        <pt x="1032" y="1340" on="0"/>
        <pt x="1032" y="1348" on="1"/>
        <pt x="1032" y="1402" on="1"/>
        <pt x="1032" y="1410" on="0"/>
        <pt x="1039" y="1410" on="1"/>
        <pt x="1706" y="1410" on="1"/>
        <pt x="1711" y="1410" on="0"/>
        <pt x="1714" y="1404" on="0"/>
        <pt x="1714" y="1402" on="1"/>
        <pt x="1714" y="1348" on="1"/>
        <pt x="1714" y="1342" on="0"/>
        <pt x="1706" y="1342" on="1"/>
        <pt x="1676" y="1342" on="0"/>
        <pt x="1619" y="1331" on="0"/>
        <pt x="1574" y="1301" on="0"/>
        <pt x="1547" y="1246" on="0"/>
        <pt x="1547" y="1201" on="1"/>
        <pt x="1547" y="211" on="1"/>
        <pt x="1547" y="185" on="0"/>
        <pt x="1562" y="144" on="0"/>
        <pt x="1578" y="124" on="1"/>
        <pt x="1594" y="102" on="0"/>
        <pt x="1667" y="72" on="0"/>
        <pt x="1734" y="70" on="1"/>
        <pt x="1742" y="70" on="0"/>
        <pt x="1742" y="62" on="1"/>
        <pt x="1742" y="8" on="1"/>
        <pt x="1742" y="0" on="0"/>
        <pt x="1734" y="0" on="1"/>
        <pt x="1008" y="0" on="1"/>
        <pt x="1003" y="0" on="0"/>
        <pt x="1000" y="6" on="0"/>
        <pt x="1000" y="8" on="1"/>
        <pt x="1000" y="62" on="1"/>
        <pt x="1000" y="64" on="0"/>
        <pt x="1003" y="70" on="0"/>
        <pt x="1008" y="70" on="1"/>
        <pt x="1038" y="70" on="0"/>
        <pt x="1124" y="78" on="0"/>
        <pt x="1205" y="105" on="0"/>
        <pt x="1262" y="156" on="0"/>
        <pt x="1262" y="200" on="1"/>
        <pt x="1262" y="632" on="1"/>
        <pt x="1262" y="642" on="0"/>
        <pt x="1256" y="648" on="0"/>
        <pt x="1246" y="648" on="1"/>
        <pt x="548" y="648" on="1"/>
        <pt x="538" y="648" on="0"/>
        <pt x="532" y="642" on="0"/>
        <pt x="532" y="632" on="1"/>
        <pt x="532" y="190" on="1"/>
        <pt x="532" y="156" on="0"/>
        <pt x="562" y="110" on="0"/>
        <pt x="611" y="82" on="0"/>
        <pt x="675" y="70" on="0"/>
        <pt x="709" y="70" on="1"/>
        <pt x="715" y="70" on="0"/>
        <pt x="717" y="64" on="0"/>
        <pt x="717" y="62" on="1"/>
        <pt x="717" y="8" on="1"/>
        <pt x="717" y="6" on="0"/>
        <pt x="715" y="0" on="0"/>
        <pt x="710" y="0" on="1"/>
        <pt x="68" y="0" on="1"/>
      </contour>
    </TTGlyph>
    <TTGlyph name="H.sc" xMin="63" yMin="0" xMax="1195" yMax="945">
      <contour>
        <pt x="68" y="0" on="1"/>
        <pt x="63" y="0" on="0"/>
        <pt x="63" y="5" on="1"/>
        <pt x="63" y="42" on="1"/>
        <pt x="63" y="44" on="0"/>
        <pt x="65" y="48" on="0"/>
        <pt x="68" y="48" on="1"/>
        <pt x="89" y="48" on="0"/>
        <pt x="132" y="54" on="0"/>
        <pt x="167" y="74" on="0"/>
        <pt x="189" y="112" on="0"/>
        <pt x="189" y="144" on="1"/>
        <pt x="189" y="816" on="1"/>
        <pt x="189" y="862" on="0"/>
        <pt x="132" y="898" on="0"/>
        <pt x="87" y="900" on="1"/>
        <pt x="82" y="900" on="0"/>
        <pt x="82" y="905" on="1"/>
        <pt x="82" y="939" on="1"/>
        <pt x="82" y="945" on="0"/>
        <pt x="86" y="945" on="1"/>
        <pt x="456" y="945" on="1"/>
        <pt x="460" y="945" on="0"/>
        <pt x="461" y="941" on="0"/>
        <pt x="461" y="939" on="1"/>
        <pt x="461" y="905" on="1"/>
        <pt x="461" y="902" on="0"/>
        <pt x="456" y="902" on="1"/>
        <pt x="436" y="902" on="0"/>
        <pt x="398" y="895" on="0"/>
        <pt x="370" y="874" on="0"/>
        <pt x="353" y="837" on="0"/>
        <pt x="353" y="807" on="1"/>
        <pt x="353" y="529" on="1"/>
        <pt x="353" y="519" on="0"/>
        <pt x="363" y="519" on="1"/>
        <pt x="891" y="519" on="1"/>
        <pt x="902" y="519" on="0"/>
        <pt x="902" y="529" on="1"/>
        <pt x="902" y="818" on="1"/>
        <pt x="902" y="841" on="0"/>
        <pt x="874" y="872" on="0"/>
        <pt x="831" y="890" on="0"/>
        <pt x="779" y="899" on="0"/>
        <pt x="754" y="900" on="1"/>
        <pt x="748" y="900" on="0"/>
        <pt x="748" y="905" on="1"/>
        <pt x="748" y="939" on="1"/>
        <pt x="748" y="945" on="0"/>
        <pt x="753" y="945" on="1"/>
        <pt x="1171" y="945" on="1"/>
        <pt x="1174" y="945" on="0"/>
        <pt x="1176" y="941" on="0"/>
        <pt x="1176" y="939" on="1"/>
        <pt x="1176" y="905" on="1"/>
        <pt x="1176" y="902" on="0"/>
        <pt x="1171" y="902" on="1"/>
        <pt x="1151" y="902" on="0"/>
        <pt x="1113" y="895" on="0"/>
        <pt x="1083" y="874" on="0"/>
        <pt x="1065" y="837" on="0"/>
        <pt x="1065" y="807" on="1"/>
        <pt x="1065" y="121" on="1"/>
        <pt x="1065" y="89" on="0"/>
        <pt x="1085" y="63" on="1"/>
        <pt x="1096" y="48" on="0"/>
        <pt x="1145" y="28" on="0"/>
        <pt x="1190" y="27" on="1"/>
        <pt x="1195" y="27" on="0"/>
        <pt x="1195" y="21" on="1"/>
        <pt x="1195" y="5" on="1"/>
        <pt x="1195" y="0" on="0"/>
        <pt x="1190" y="0" on="1"/>
        <pt x="732" y="0" on="1"/>
        <pt x="727" y="0" on="0"/>
        <pt x="727" y="5" on="1"/>
        <pt x="727" y="21" on="1"/>
        <pt x="727" y="23" on="0"/>
        <pt x="729" y="27" on="0"/>
        <pt x="732" y="27" on="1"/>
        <pt x="752" y="27" on="0"/>
        <pt x="810" y="32" on="0"/>
        <pt x="864" y="50" on="0"/>
        <pt x="902" y="84" on="0"/>
        <pt x="902" y="113" on="1"/>
        <pt x="902" y="434" on="1"/>
        <pt x="902" y="444" on="0"/>
        <pt x="891" y="444" on="1"/>
        <pt x="363" y="444" on="1"/>
        <pt x="353" y="444" on="0"/>
        <pt x="353" y="434" on="1"/>
        <pt x="353" y="128" on="1"/>
        <pt x="353" y="105" on="0"/>
        <pt x="373" y="75" on="0"/>
        <pt x="406" y="56" on="0"/>
        <pt x="449" y="48" on="0"/>
        <pt x="471" y="48" on="1"/>
        <pt x="476" y="48" on="0"/>
        <pt x="477" y="44" on="0"/>
        <pt x="477" y="42" on="1"/>
        <pt x="477" y="5" on="1"/>
        <pt x="477" y="4" on="0"/>
        <pt x="475" y="0" on="0"/>
        <pt x="473" y="0" on="1"/>
        <pt x="68" y="0" on="1"/>
      </contour>
    </TTGlyph>
    <TTGlyph name="Hbar" xMin="60" yMin="0" xMax="1742" yMax="1410">
      <contour>
        <pt x="98" y="1012" on="1"/>
        <pt x="77" y="1012" on="0"/>
        <pt x="77" y="1037" on="1"/>
        <pt x="77" y="1113" on="1"/>
        <pt x="77" y="1138" on="0"/>
        <pt x="98" y="1138" on="1"/>
        <pt x="247" y="1138" on="1"/>
        <pt x="247" y="1215" on="1"/>
        <pt x="247" y="1249" on="0"/>
        <pt x="225" y="1295" on="0"/>
        <pt x="185" y="1324" on="0"/>
        <pt x="129" y="1338" on="0"/>
        <pt x="95" y="1340" on="1"/>
        <pt x="87" y="1340" on="0"/>
        <pt x="87" y="1348" on="1"/>
        <pt x="87" y="1402" on="1"/>
        <pt x="87" y="1410" on="0"/>
        <pt x="94" y="1410" on="1"/>
        <pt x="686" y="1410" on="1"/>
        <pt x="691" y="1410" on="0"/>
        <pt x="694" y="1404" on="0"/>
        <pt x="694" y="1402" on="1"/>
        <pt x="694" y="1348" on="1"/>
        <pt x="694" y="1342" on="0"/>
        <pt x="686" y="1342" on="1"/>
        <pt x="656" y="1342" on="0"/>
        <pt x="600" y="1331" on="0"/>
        <pt x="558" y="1301" on="0"/>
        <pt x="532" y="1246" on="0"/>
        <pt x="532" y="1201" on="1"/>
        <pt x="532" y="1138" on="1"/>
        <pt x="1262" y="1138" on="1"/>
        <pt x="1262" y="1217" on="1"/>
        <pt x="1262" y="1252" on="0"/>
        <pt x="1218" y="1298" on="0"/>
        <pt x="1151" y="1325" on="0"/>
        <pt x="1073" y="1338" on="0"/>
        <pt x="1040" y="1340" on="1"/>
        <pt x="1032" y="1340" on="0"/>
        <pt x="1032" y="1348" on="1"/>
        <pt x="1032" y="1402" on="1"/>
        <pt x="1032" y="1410" on="0"/>
        <pt x="1039" y="1410" on="1"/>
        <pt x="1706" y="1410" on="1"/>
        <pt x="1711" y="1410" on="0"/>
        <pt x="1714" y="1404" on="0"/>
        <pt x="1714" y="1402" on="1"/>
        <pt x="1714" y="1348" on="1"/>
        <pt x="1714" y="1342" on="0"/>
        <pt x="1706" y="1342" on="1"/>
        <pt x="1676" y="1342" on="0"/>
        <pt x="1619" y="1331" on="0"/>
        <pt x="1574" y="1301" on="0"/>
        <pt x="1547" y="1246" on="0"/>
        <pt x="1547" y="1201" on="1"/>
        <pt x="1547" y="1138" on="1"/>
        <pt x="1703" y="1138" on="1"/>
        <pt x="1713" y="1138" on="0"/>
        <pt x="1724" y="1123" on="0"/>
        <pt x="1724" y="1113" on="1"/>
        <pt x="1724" y="1037" on="1"/>
        <pt x="1724" y="1026" on="0"/>
        <pt x="1712" y="1012" on="0"/>
        <pt x="1703" y="1012" on="1"/>
        <pt x="1547" y="1012" on="1"/>
        <pt x="1547" y="211" on="1"/>
        <pt x="1547" y="185" on="0"/>
        <pt x="1562" y="144" on="0"/>
        <pt x="1578" y="124" on="1"/>
        <pt x="1594" y="102" on="0"/>
        <pt x="1667" y="72" on="0"/>
        <pt x="1734" y="70" on="1"/>
        <pt x="1742" y="70" on="0"/>
        <pt x="1742" y="62" on="1"/>
        <pt x="1742" y="8" on="1"/>
        <pt x="1742" y="0" on="0"/>
        <pt x="1734" y="0" on="1"/>
        <pt x="1008" y="0" on="1"/>
        <pt x="1003" y="0" on="0"/>
        <pt x="1000" y="6" on="0"/>
        <pt x="1000" y="8" on="1"/>
        <pt x="1000" y="62" on="1"/>
        <pt x="1000" y="64" on="0"/>
        <pt x="1003" y="70" on="0"/>
        <pt x="1008" y="70" on="1"/>
        <pt x="1038" y="70" on="0"/>
        <pt x="1124" y="78" on="0"/>
        <pt x="1205" y="105" on="0"/>
        <pt x="1262" y="156" on="0"/>
        <pt x="1262" y="200" on="1"/>
        <pt x="1262" y="632" on="1"/>
        <pt x="1262" y="642" on="0"/>
        <pt x="1256" y="648" on="0"/>
        <pt x="1246" y="648" on="1"/>
        <pt x="548" y="648" on="1"/>
        <pt x="538" y="648" on="0"/>
        <pt x="532" y="642" on="0"/>
        <pt x="532" y="632" on="1"/>
        <pt x="532" y="190" on="1"/>
        <pt x="532" y="156" on="0"/>
        <pt x="562" y="110" on="0"/>
        <pt x="611" y="82" on="0"/>
        <pt x="675" y="70" on="0"/>
        <pt x="709" y="70" on="1"/>
        <pt x="715" y="70" on="0"/>
        <pt x="717" y="64" on="0"/>
        <pt x="717" y="62" on="1"/>
        <pt x="717" y="8" on="1"/>
        <pt x="717" y="6" on="0"/>
        <pt x="715" y="0" on="0"/>
        <pt x="710" y="0" on="1"/>
        <pt x="68" y="0" on="1"/>
        <pt x="63" y="0" on="0"/>
        <pt x="60" y="6" on="0"/>
        <pt x="60" y="8" on="1"/>
        <pt x="60" y="62" on="1"/>
        <pt x="60" y="64" on="0"/>
        <pt x="63" y="70" on="0"/>
        <pt x="68" y="70" on="1"/>
        <pt x="99" y="70" on="0"/>
        <pt x="162" y="79" on="0"/>
        <pt x="214" y="109" on="0"/>
        <pt x="247" y="165" on="0"/>
        <pt x="247" y="213" on="1"/>
        <pt x="247" y="1012" on="1"/>
      </contour>
      <contour>
        <pt x="1246" y="773" on="1"/>
        <pt x="1256" y="773" on="0"/>
        <pt x="1262" y="779" on="0"/>
        <pt x="1262" y="789" on="1"/>
        <pt x="1262" y="1012" on="1"/>
        <pt x="532" y="1012" on="1"/>
        <pt x="532" y="789" on="1"/>
        <pt x="532" y="779" on="0"/>
        <pt x="538" y="773" on="0"/>
        <pt x="548" y="773" on="1"/>
      </contour>
    </TTGlyph>
    <TTGlyph name="Hcircumflex" xMin="60" yMin="0" xMax="1742" yMax="1970">
      <component glyphName="H" x="0" y="0" flags="0x1204"/>
      <component glyphName="circumflex" x="575" y="497" flags="0x1004"/>
    </TTGlyph>
    <TTGlyph name="Hebrew-ph" xMin="125" yMin="0" xMax="1799" yMax="1645">
      <contour>
        <pt x="125" y="1245" on="1"/>
        <pt x="125" y="1328" on="0"/>
        <pt x="188" y="1474" on="0"/>
        <pt x="296" y="1582" on="0"/>
        <pt x="442" y="1645" on="0"/>
        <pt x="525" y="1645" on="1"/>
        <pt x="1399" y="1645" on="1"/>
        <pt x="1482" y="1645" on="0"/>
        <pt x="1628" y="1582" on="0"/>
        <pt x="1736" y="1474" on="0"/>
        <pt x="1799" y="1328" on="0"/>
        <pt x="1799" y="1245" on="1"/>
        <pt x="1799" y="400" on="1"/>
        <pt x="1799" y="317" on="0"/>
        <pt x="1736" y="171" on="0"/>
        <pt x="1627" y="63" on="0"/>
        <pt x="1481" y="0" on="0"/>
        <pt x="1398" y="0" on="1"/>
        <pt x="526" y="0" on="1"/>
        <pt x="443" y="0" on="0"/>
        <pt x="297" y="63" on="0"/>
        <pt x="188" y="171" on="0"/>
        <pt x="125" y="317" on="0"/>
        <pt x="125" y="400" on="1"/>
      </contour>
      <contour>
        <pt x="526" y="1495" on="1"/>
        <pt x="474" y="1495" on="0"/>
        <pt x="383" y="1456" on="0"/>
        <pt x="315" y="1388" on="0"/>
        <pt x="275" y="1297" on="0"/>
        <pt x="275" y="1245" on="1"/>
        <pt x="275" y="400" on="1"/>
        <pt x="275" y="348" on="0"/>
        <pt x="315" y="257" on="0"/>
        <pt x="384" y="189" on="0"/>
        <pt x="475" y="150" on="0"/>
        <pt x="526" y="150" on="1"/>
        <pt x="1398" y="150" on="1"/>
        <pt x="1449" y="150" on="0"/>
        <pt x="1540" y="189" on="0"/>
        <pt x="1609" y="257" on="0"/>
        <pt x="1649" y="348" on="0"/>
        <pt x="1649" y="400" on="1"/>
        <pt x="1649" y="1245" on="1"/>
        <pt x="1649" y="1297" on="0"/>
        <pt x="1609" y="1388" on="0"/>
        <pt x="1541" y="1456" on="0"/>
        <pt x="1450" y="1495" on="0"/>
        <pt x="1398" y="1495" on="1"/>
      </contour>
      <contour>
        <pt x="1253" y="648" on="1"/>
        <pt x="1285" y="616" on="0"/>
        <pt x="1313" y="556" on="0"/>
        <pt x="1313" y="530" on="1"/>
        <pt x="1313" y="500" on="0"/>
        <pt x="1285" y="452" on="0"/>
        <pt x="1237" y="417" on="0"/>
        <pt x="1175" y="397" on="0"/>
        <pt x="1141" y="397" on="1"/>
        <pt x="1143" y="406" on="0"/>
        <pt x="1154" y="433" on="0"/>
        <pt x="1154" y="446" on="1"/>
        <pt x="1154" y="489" on="0"/>
        <pt x="1101" y="544" on="1"/>
        <pt x="772" y="874" on="1"/>
        <pt x="719" y="821" on="0"/>
        <pt x="719" y="781" on="1"/>
        <pt x="719" y="760" on="0"/>
        <pt x="744" y="719" on="0"/>
        <pt x="781" y="680" on="0"/>
        <pt x="825" y="640" on="0"/>
        <pt x="862" y="600" on="0"/>
        <pt x="887" y="558" on="0"/>
        <pt x="887" y="537" on="1"/>
        <pt x="887" y="479" on="0"/>
        <pt x="802" y="419" on="1"/>
        <pt x="592" y="419" on="1"/>
        <pt x="592" y="442" on="1"/>
        <pt x="657" y="457" on="0"/>
        <pt x="707" y="486" on="0"/>
        <pt x="707" y="503" on="1"/>
        <pt x="698" y="527" on="0"/>
        <pt x="660" y="572" on="0"/>
        <pt x="621" y="617" on="0"/>
        <pt x="592" y="665" on="0"/>
        <pt x="592" y="692" on="1"/>
        <pt x="592" y="728" on="0"/>
        <pt x="623" y="785" on="0"/>
        <pt x="670" y="834" on="0"/>
        <pt x="723" y="878" on="0"/>
        <pt x="746" y="900" on="1"/>
        <pt x="655" y="992" on="1"/>
        <pt x="623" y="1024" on="0"/>
        <pt x="594" y="1084" on="0"/>
        <pt x="594" y="1113" on="1"/>
        <pt x="594" y="1138" on="0"/>
        <pt x="622" y="1183" on="0"/>
        <pt x="666" y="1217" on="0"/>
        <pt x="716" y="1237" on="0"/>
        <pt x="739" y="1237" on="1"/>
        <pt x="737" y="1232" on="0"/>
        <pt x="735" y="1218" on="0"/>
        <pt x="735" y="1212" on="1"/>
        <pt x="735" y="1167" on="0"/>
        <pt x="805" y="1098" on="1"/>
        <pt x="1015" y="888" on="1"/>
        <pt x="1090" y="993" on="1"/>
        <pt x="1059" y="1022" on="0"/>
        <pt x="1019" y="1082" on="0"/>
        <pt x="1019" y="1113" on="1"/>
        <pt x="1019" y="1138" on="0"/>
        <pt x="1049" y="1183" on="0"/>
        <pt x="1094" y="1217" on="0"/>
        <pt x="1146" y="1237" on="0"/>
        <pt x="1167" y="1237" on="1"/>
        <pt x="1166" y="1229" on="0"/>
        <pt x="1164" y="1215" on="0"/>
        <pt x="1164" y="1209" on="1"/>
        <pt x="1164" y="1179" on="0"/>
        <pt x="1208" y="1132" on="0"/>
        <pt x="1240" y="1101" on="1"/>
        <pt x="1324" y="1032" on="0"/>
        <pt x="1324" y="973" on="1"/>
        <pt x="1324" y="949" on="0"/>
        <pt x="1297" y="911" on="0"/>
        <pt x="1257" y="884" on="0"/>
        <pt x="1210" y="868" on="0"/>
        <pt x="1190" y="865" on="1"/>
        <pt x="1188" y="882" on="0"/>
        <pt x="1182" y="902" on="0"/>
        <pt x="1169" y="917" on="0"/>
        <pt x="1150" y="934" on="0"/>
        <pt x="1136" y="949" on="1"/>
        <pt x="1064" y="837" on="1"/>
      </contour>
    </TTGlyph>
    <TTGlyph name="Hungarumlaut" xMin="-6" yMin="1542" xMax="713" yMax="1970">
      <component glyphName="hungarumlaut" x="-39" y="498" flags="0x1004"/>
    </TTGlyph>
    <TTGlyph name="Hungarumlaut.sc" xMin="296" yMin="1221" xMax="753" yMax="1480">
      <contour>
        <pt x="299" y="1242" on="1"/>
        <pt x="296" y="1245" on="0"/>
        <pt x="296" y="1246" on="1"/>
        <pt x="296" y="1248" on="0"/>
        <pt x="299" y="1251" on="1"/>
        <pt x="441" y="1448" on="1"/>
        <pt x="454" y="1465" on="0"/>
        <pt x="480" y="1480" on="0"/>
        <pt x="491" y="1480" on="1"/>
        <pt x="513" y="1480" on="0"/>
        <pt x="540" y="1451" on="0"/>
        <pt x="540" y="1431" on="1"/>
        <pt x="540" y="1411" on="0"/>
        <pt x="517" y="1379" on="0"/>
        <pt x="503" y="1368" on="1"/>
        <pt x="323" y="1223" on="1"/>
        <pt x="321" y="1221" on="0"/>
        <pt x="318" y="1221" on="1"/>
        <pt x="315" y="1221" on="0"/>
        <pt x="314" y="1223" on="1"/>
      </contour>
      <contour>
        <pt x="511" y="1242" on="1"/>
        <pt x="510" y="1244" on="0"/>
        <pt x="508" y="1245" on="0"/>
        <pt x="508" y="1246" on="1"/>
        <pt x="508" y="1247" on="0"/>
        <pt x="510" y="1249" on="0"/>
        <pt x="511" y="1251" on="1"/>
        <pt x="654" y="1448" on="1"/>
        <pt x="667" y="1465" on="0"/>
        <pt x="692" y="1480" on="0"/>
        <pt x="705" y="1480" on="1"/>
        <pt x="725" y="1480" on="0"/>
        <pt x="753" y="1451" on="0"/>
        <pt x="753" y="1431" on="1"/>
        <pt x="753" y="1411" on="0"/>
        <pt x="729" y="1379" on="0"/>
        <pt x="715" y="1368" on="1"/>
        <pt x="535" y="1223" on="1"/>
        <pt x="533" y="1221" on="0"/>
        <pt x="530" y="1221" on="1"/>
        <pt x="527" y="1221" on="0"/>
        <pt x="526" y="1223" on="1"/>
      </contour>
    </TTGlyph>
    <TTGlyph name="I" xMin="90" yMin="0" xMax="699" yMax="1410">
      <contour>
        <pt x="537" y="190" on="1"/>
        <pt x="537" y="156" on="0"/>
        <pt x="558" y="110" on="0"/>
        <pt x="597" y="82" on="0"/>
        <pt x="654" y="70" on="0"/>
        <pt x="689" y="70" on="1"/>
        <pt x="697" y="70" on="0"/>
        <pt x="697" y="62" on="1"/>
        <pt x="697" y="8" on="1"/>
        <pt x="697" y="5" on="0"/>
        <pt x="695" y="0" on="0"/>
        <pt x="689" y="0" on="1"/>
        <pt x="98" y="0" on="1"/>
        <pt x="93" y="0" on="0"/>
        <pt x="90" y="6" on="0"/>
        <pt x="90" y="8" on="1"/>
        <pt x="90" y="62" on="1"/>
        <pt x="90" y="64" on="0"/>
        <pt x="93" y="70" on="0"/>
        <pt x="98" y="70" on="1"/>
        <pt x="133" y="70" on="0"/>
        <pt x="190" y="79" on="0"/>
        <pt x="230" y="109" on="0"/>
        <pt x="252" y="165" on="0"/>
        <pt x="252" y="213" on="1"/>
        <pt x="252" y="1220" on="1"/>
        <pt x="252" y="1254" on="0"/>
        <pt x="231" y="1300" on="0"/>
        <pt x="192" y="1328" on="0"/>
        <pt x="135" y="1340" on="0"/>
        <pt x="100" y="1340" on="1"/>
        <pt x="92" y="1340" on="0"/>
        <pt x="92" y="1348" on="1"/>
        <pt x="92" y="1402" on="1"/>
        <pt x="92" y="1410" on="0"/>
        <pt x="100" y="1410" on="1"/>
        <pt x="691" y="1410" on="1"/>
        <pt x="696" y="1410" on="0"/>
        <pt x="699" y="1404" on="0"/>
        <pt x="699" y="1402" on="1"/>
        <pt x="699" y="1348" on="1"/>
        <pt x="699" y="1346" on="0"/>
        <pt x="696" y="1340" on="0"/>
        <pt x="691" y="1340" on="1"/>
        <pt x="656" y="1340" on="0"/>
        <pt x="599" y="1331" on="0"/>
        <pt x="559" y="1301" on="0"/>
        <pt x="537" y="1245" on="0"/>
        <pt x="537" y="1197" on="1"/>
        <pt x="537" y="190" on="1"/>
      </contour>
    </TTGlyph>
    <TTGlyph name="I.sc" xMin="85" yMin="0" xMax="467" yMax="945">
      <contour>
        <pt x="358" y="128" on="1"/>
        <pt x="358" y="83" on="0"/>
        <pt x="412" y="48" on="0"/>
        <pt x="460" y="48" on="1"/>
        <pt x="465" y="48" on="0"/>
        <pt x="465" y="42" on="1"/>
        <pt x="465" y="5" on="1"/>
        <pt x="465" y="0" on="0"/>
        <pt x="460" y="0" on="1"/>
        <pt x="91" y="0" on="1"/>
        <pt x="85" y="0" on="0"/>
        <pt x="85" y="5" on="1"/>
        <pt x="85" y="42" on="1"/>
        <pt x="85" y="44" on="0"/>
        <pt x="87" y="48" on="0"/>
        <pt x="91" y="48" on="1"/>
        <pt x="114" y="48" on="0"/>
        <pt x="152" y="54" on="0"/>
        <pt x="179" y="74" on="0"/>
        <pt x="194" y="112" on="0"/>
        <pt x="194" y="144" on="1"/>
        <pt x="194" y="816" on="1"/>
        <pt x="194" y="862" on="0"/>
        <pt x="140" y="897" on="0"/>
        <pt x="92" y="897" on="1"/>
        <pt x="87" y="897" on="0"/>
        <pt x="87" y="902" on="1"/>
        <pt x="87" y="939" on="1"/>
        <pt x="87" y="945" on="0"/>
        <pt x="92" y="945" on="1"/>
        <pt x="461" y="945" on="1"/>
        <pt x="465" y="945" on="0"/>
        <pt x="467" y="941" on="0"/>
        <pt x="467" y="939" on="1"/>
        <pt x="467" y="902" on="1"/>
        <pt x="467" y="897" on="0"/>
        <pt x="461" y="897" on="1"/>
        <pt x="437" y="897" on="0"/>
        <pt x="399" y="891" on="0"/>
        <pt x="372" y="871" on="0"/>
        <pt x="358" y="833" on="0"/>
        <pt x="358" y="801" on="1"/>
        <pt x="358" y="128" on="1"/>
      </contour>
    </TTGlyph>
    <TTGlyph name="IJ" xMin="90" yMin="-640" xMax="1528" yMax="1410">
      <component glyphName="I" x="0" y="0" flags="0x1004"/>
      <component glyphName="J" x="835" y="0" flags="0x1004"/>
    </TTGlyph>
    <TTGlyph name="Iacute" xMin="90" yMin="0" xMax="699" yMax="1970">
      <component glyphName="I" x="0" y="0" flags="0x1204"/>
      <component glyphName="acute" x="88" y="498" flags="0x1004"/>
    </TTGlyph>
    <TTGlyph name="Iacute.sc" xMin="85" yMin="0" xMax="508" yMax="1327">
      <component glyphName="I.sc" x="0" y="0" flags="0x1204"/>
      <component glyphName="Acute.sc" x="-159" y="0" flags="0x1004"/>
    </TTGlyph>
    <TTGlyph name="Ibreve" xMin="90" yMin="0" xMax="699" yMax="1971">
      <component glyphName="I" x="0" y="0" flags="0x1204"/>
      <component glyphName="breve" x="23" y="543" flags="0x1004"/>
    </TTGlyph>
    <TTGlyph name="Icircumflex" xMin="90" yMin="0" xMax="699" yMax="1970">
      <component glyphName="I" x="0" y="0" flags="0x1204"/>
      <component glyphName="circumflex" x="64" y="497" flags="0x1004"/>
    </TTGlyph>
    <TTGlyph name="Icircumflex.sc" xMin="85" yMin="0" xMax="467" yMax="1327">
      <component glyphName="I.sc" x="0" y="0" flags="0x1204"/>
      <component glyphName="Circumflex.sc" x="-244" y="0" flags="0x1004"/>
    </TTGlyph>
    <TTGlyph name="Idieresis" xMin="33" yMin="0" xMax="746" yMax="1937">
      <component glyphName="I" x="0" y="0" flags="0x1204"/>
      <component glyphName="dieresis" x="0" y="571" flags="0x1004"/>
    </TTGlyph>
    <TTGlyph name="Idieresis.sc" xMin="66" yMin="0" xMax="490" yMax="1277">
      <component glyphName="I.sc" x="0" y="0" flags="0x1204"/>
      <component glyphName="Dieresis.sc" x="-247" y="0" flags="0x1004"/>
    </TTGlyph>
    <TTGlyph name="Idotaccent" xMin="90" yMin="0" xMax="699" yMax="1937">
      <component glyphName="I" x="0" y="0" flags="0x1204"/>
      <component glyphName="dotaccent" x="24" y="571" flags="0x1004"/>
    </TTGlyph>
    <TTGlyph name="Igrave" xMin="90" yMin="0" xMax="699" yMax="1970">
      <component glyphName="I" x="0" y="0" flags="0x1204"/>
      <component glyphName="grave" x="18" y="498" flags="0x1004"/>
    </TTGlyph>
    <TTGlyph name="Igrave.sc" xMin="56" yMin="0" xMax="467" yMax="1327">
      <component glyphName="I.sc" x="0" y="0" flags="0x1204"/>
      <component glyphName="Gravesmall" x="-346" y="0" flags="0x1004"/>
    </TTGlyph>
    <TTGlyph name="Imacron" xMin="51" yMin="0" xMax="738" yMax="1884">
      <component glyphName="I" x="0" y="0" flags="0x1204"/>
      <component glyphName="macron" x="25" y="542" flags="0x1004"/>
    </TTGlyph>
    <TTGlyph name="Imacron.sc" xMin="66" yMin="0" xMax="498" yMax="1240">
      <component glyphName="I.sc" x="0" y="0" flags="0x1204"/>
      <component glyphName="Macron.sc" x="-243" y="0" flags="0x1004"/>
    </TTGlyph>
    <TTGlyph name="Iogonek" xMin="90" yMin="-532" xMax="699" yMax="1410">
      <component glyphName="I" x="0" y="0" flags="0x1204"/>
      <component glyphName="ogonek" x="8" y="0" flags="0x1004"/>
    </TTGlyph>
    <TTGlyph name="Iota" xMin="90" yMin="0" xMax="699" yMax="1410">
      <component glyphName="I" x="0" y="0" flags="0x1204"/>
    </TTGlyph>
    <TTGlyph name="Iotadieresis" xMin="33" yMin="0" xMax="746" yMax="1937">
      <component glyphName="I" x="0" y="0" flags="0x1200"/>
      <component glyphName="dieresis" x="0" y="571" flags="0x1000"/>
    </TTGlyph>
    <TTGlyph name="Iotatonos" xMin="-49" yMin="0" xMax="929" yMax="1453">
      <component glyphName="I" x="230" y="0" flags="0x1004"/>
      <component glyphName="tonos" x="-291" y="-69" flags="0x1004"/>
    </TTGlyph>
    <TTGlyph name="Itilde" xMin="90" yMin="0" xMax="699" yMax="1948">
      <component glyphName="I" x="0" y="0" flags="0x1204"/>
      <component glyphName="tilde" x="41" y="560" flags="0x1004"/>
    </TTGlyph>
    <TTGlyph name="J" xMin="-250" yMin="-640" xMax="693" yMax="1410">
      <contour>
        <pt x="246" y="1235" on="1"/>
        <pt x="246" y="1273" on="0"/>
        <pt x="219" y="1320" on="0"/>
        <pt x="169" y="1346" on="0"/>
        <pt x="97" y="1355" on="0"/>
        <pt x="52" y="1355" on="1"/>
        <pt x="44" y="1355" on="0"/>
        <pt x="44" y="1363" on="1"/>
        <pt x="44" y="1402" on="1"/>
        <pt x="44" y="1410" on="0"/>
        <pt x="52" y="1410" on="1"/>
        <pt x="685" y="1410" on="1"/>
        <pt x="690" y="1410" on="0"/>
        <pt x="693" y="1404" on="0"/>
        <pt x="693" y="1402" on="1"/>
        <pt x="693" y="1363" on="1"/>
        <pt x="693" y="1361" on="0"/>
        <pt x="690" y="1355" on="0"/>
        <pt x="685" y="1355" on="1"/>
        <pt x="654" y="1355" on="0"/>
        <pt x="598" y="1346" on="0"/>
        <pt x="556" y="1316" on="0"/>
        <pt x="531" y="1260" on="0"/>
        <pt x="531" y="1212" on="1"/>
        <pt x="531" y="-10" on="1"/>
        <pt x="531" y="-84" on="0"/>
        <pt x="502" y="-235" on="0"/>
        <pt x="443" y="-375" on="0"/>
        <pt x="353" y="-497" on="0"/>
        <pt x="233" y="-588" on="0"/>
        <pt x="82" y="-640" on="0"/>
        <pt x="-10" y="-640" on="1"/>
        <pt x="-135" y="-640" on="0"/>
        <pt x="-249" y="-581" on="0"/>
        <pt x="-250" y="-535" on="1"/>
        <pt x="-250" y="-514" on="0"/>
        <pt x="-231" y="-477" on="0"/>
        <pt x="-202" y="-449" on="0"/>
        <pt x="-166" y="-433" on="0"/>
        <pt x="-148" y="-433" on="1"/>
        <pt x="-118" y="-433" on="0"/>
        <pt x="-74" y="-447" on="0"/>
        <pt x="-41" y="-468" on="0"/>
        <pt x="-16" y="-493" on="0"/>
        <pt x="11" y="-514" on="0"/>
        <pt x="40" y="-528" on="0"/>
        <pt x="61" y="-528" on="1"/>
        <pt x="106" y="-528" on="0"/>
        <pt x="169" y="-492" on="0"/>
        <pt x="210" y="-429" on="0"/>
        <pt x="233" y="-345" on="0"/>
        <pt x="244" y="-250" on="0"/>
        <pt x="246" y="-149" on="0"/>
        <pt x="246" y="-100" on="1"/>
        <pt x="246" y="1235" on="1"/>
      </contour>
    </TTGlyph>
    <TTGlyph name="J.sc" xMin="-145" yMin="-428" xMax="461" yMax="945">
      <contour>
        <pt x="188" y="816" on="1"/>
        <pt x="188" y="842" on="0"/>
        <pt x="170" y="874" on="0"/>
        <pt x="137" y="891" on="0"/>
        <pt x="88" y="897" on="0"/>
        <pt x="58" y="897" on="1"/>
        <pt x="53" y="897" on="0"/>
        <pt x="53" y="902" on="1"/>
        <pt x="53" y="939" on="1"/>
        <pt x="53" y="945" on="0"/>
        <pt x="58" y="945" on="1"/>
        <pt x="456" y="945" on="1"/>
        <pt x="459" y="945" on="0"/>
        <pt x="461" y="941" on="0"/>
        <pt x="461" y="939" on="1"/>
        <pt x="461" y="902" on="1"/>
        <pt x="461" y="897" on="0"/>
        <pt x="456" y="897" on="1"/>
        <pt x="435" y="897" on="0"/>
        <pt x="397" y="891" on="0"/>
        <pt x="369" y="871" on="0"/>
        <pt x="352" y="833" on="0"/>
        <pt x="352" y="801" on="1"/>
        <pt x="352" y="-6" on="1"/>
        <pt x="352" y="-51" on="0"/>
        <pt x="328" y="-148" on="0"/>
        <pt x="283" y="-242" on="0"/>
        <pt x="218" y="-326" on="0"/>
        <pt x="138" y="-390" on="0"/>
        <pt x="43" y="-428" on="0"/>
        <pt x="-10" y="-428" on="1"/>
        <pt x="-29" y="-428" on="0"/>
        <pt x="-76" y="-418" on="0"/>
        <pt x="-117" y="-399" on="0"/>
        <pt x="-145" y="-373" on="0"/>
        <pt x="-145" y="-358" on="1"/>
        <pt x="-145" y="-344" on="0"/>
        <pt x="-132" y="-322" on="0"/>
        <pt x="-112" y="-306" on="0"/>
        <pt x="-88" y="-297" on="0"/>
        <pt x="-76" y="-297" on="1"/>
        <pt x="-46" y="-297" on="0"/>
        <pt x="-9" y="-317" on="0"/>
        <pt x="18" y="-340" on="0"/>
        <pt x="44" y="-360" on="0"/>
        <pt x="64" y="-360" on="1"/>
        <pt x="94" y="-360" on="0"/>
        <pt x="137" y="-335" on="0"/>
        <pt x="164" y="-291" on="0"/>
        <pt x="179" y="-233" on="0"/>
        <pt x="187" y="-168" on="0"/>
        <pt x="188" y="-100" on="0"/>
        <pt x="188" y="-67" on="1"/>
        <pt x="188" y="816" on="1"/>
      </contour>
    </TTGlyph>
    <TTGlyph name="Jcircumflex" xMin="-250" yMin="-640" xMax="693" yMax="1970">
      <component glyphName="J" x="0" y="0" flags="0x1204"/>
      <component glyphName="circumflex" x="40" y="497" flags="0x1004"/>
    </TTGlyph>
    <TTGlyph name="K" xMin="40" yMin="0" xMax="1654" yMax="1410">
      <contour>
        <pt x="248" y="1235" on="1"/>
        <pt x="248" y="1269" on="0"/>
        <pt x="211" y="1315" on="0"/>
        <pt x="153" y="1344" on="0"/>
        <pt x="82" y="1358" on="0"/>
        <pt x="48" y="1360" on="1"/>
        <pt x="40" y="1360" on="0"/>
        <pt x="40" y="1368" on="1"/>
        <pt x="40" y="1402" on="1"/>
        <pt x="40" y="1410" on="0"/>
        <pt x="47" y="1410" on="1"/>
        <pt x="725" y="1410" on="1"/>
        <pt x="730" y="1410" on="0"/>
        <pt x="733" y="1404" on="0"/>
        <pt x="733" y="1402" on="1"/>
        <pt x="733" y="1368" on="1"/>
        <pt x="733" y="1362" on="0"/>
        <pt x="725" y="1362" on="1"/>
        <pt x="696" y="1362" on="0"/>
        <pt x="629" y="1352" on="0"/>
        <pt x="571" y="1324" on="0"/>
        <pt x="533" y="1274" on="0"/>
        <pt x="533" y="1233" on="1"/>
        <pt x="533" y="822" on="1"/>
        <pt x="533" y="780" on="0"/>
        <pt x="539" y="734" on="0"/>
        <pt x="550" y="734" on="1"/>
        <pt x="556" y="734" on="0"/>
        <pt x="567" y="735" on="0"/>
        <pt x="572" y="738" on="1"/>
        <pt x="629" y="764" on="0"/>
        <pt x="720" y="838" on="0"/>
        <pt x="797" y="926" on="0"/>
        <pt x="864" y="1024" on="0"/>
        <pt x="897" y="1075" on="1"/>
        <pt x="915" y="1103" on="0"/>
        <pt x="955" y="1158" on="0"/>
        <pt x="988" y="1210" on="0"/>
        <pt x="1010" y="1259" on="0"/>
        <pt x="1010" y="1283" on="1"/>
        <pt x="1010" y="1310" on="0"/>
        <pt x="984" y="1341" on="0"/>
        <pt x="944" y="1356" on="0"/>
        <pt x="898" y="1360" on="0"/>
        <pt x="878" y="1360" on="1"/>
        <pt x="868" y="1360" on="1"/>
        <pt x="863" y="1360" on="0"/>
        <pt x="860" y="1366" on="0"/>
        <pt x="860" y="1368" on="1"/>
        <pt x="860" y="1402" on="1"/>
        <pt x="860" y="1404" on="0"/>
        <pt x="862" y="1410" on="0"/>
        <pt x="868" y="1410" on="1"/>
        <pt x="1476" y="1410" on="1"/>
        <pt x="1481" y="1410" on="0"/>
        <pt x="1484" y="1404" on="0"/>
        <pt x="1484" y="1402" on="1"/>
        <pt x="1484" y="1368" on="1"/>
        <pt x="1484" y="1365" on="0"/>
        <pt x="1478" y="1356" on="0"/>
        <pt x="1472" y="1356" on="1"/>
        <pt x="1411" y="1354" on="0"/>
        <pt x="1312" y="1338" on="0"/>
        <pt x="1230" y="1300" on="0"/>
        <pt x="1161" y="1233" on="0"/>
        <pt x="1130" y="1181" on="1"/>
        <pt x="1077" y="1091" on="0"/>
        <pt x="993" y="963" on="0"/>
        <pt x="928" y="875" on="0"/>
        <pt x="882" y="821" on="0"/>
        <pt x="851" y="786" on="0"/>
        <pt x="834" y="763" on="0"/>
        <pt x="832" y="752" on="1"/>
        <pt x="837" y="742" on="0"/>
        <pt x="873" y="709" on="0"/>
        <pt x="932" y="655" on="0"/>
        <pt x="1014" y="575" on="0"/>
        <pt x="1118" y="458" on="0"/>
        <pt x="1244" y="299" on="0"/>
        <pt x="1317" y="195" on="1"/>
        <pt x="1352" y="144" on="0"/>
        <pt x="1458" y="82" on="0"/>
        <pt x="1524" y="68" on="1"/>
        <pt x="1558" y="60" on="0"/>
        <pt x="1598" y="52" on="0"/>
        <pt x="1622" y="49" on="0"/>
        <pt x="1637" y="48" on="0"/>
        <pt x="1646" y="48" on="1"/>
        <pt x="1651" y="48" on="0"/>
        <pt x="1654" y="42" on="0"/>
        <pt x="1654" y="40" on="1"/>
        <pt x="1654" y="8" on="1"/>
        <pt x="1654" y="0" on="0"/>
        <pt x="1646" y="0" on="1"/>
        <pt x="902" y="0" on="1"/>
        <pt x="894" y="0" on="0"/>
        <pt x="894" y="8" on="1"/>
        <pt x="894" y="42" on="1"/>
        <pt x="894" y="49" on="0"/>
        <pt x="902" y="50" on="1"/>
        <pt x="915" y="52" on="0"/>
        <pt x="962" y="51" on="0"/>
        <pt x="1007" y="57" on="0"/>
        <pt x="1041" y="79" on="0"/>
        <pt x="1041" y="104" on="1"/>
        <pt x="1039" y="121" on="0"/>
        <pt x="998" y="187" on="0"/>
        <pt x="938" y="266" on="0"/>
        <pt x="869" y="348" on="0"/>
        <pt x="840" y="381" on="1"/>
        <pt x="805" y="420" on="0"/>
        <pt x="742" y="501" on="0"/>
        <pt x="676" y="568" on="0"/>
        <pt x="604" y="610" on="0"/>
        <pt x="562" y="610" on="1"/>
        <pt x="543" y="610" on="1"/>
        <pt x="535" y="610" on="0"/>
        <pt x="533" y="603" on="0"/>
        <pt x="533" y="596" on="1"/>
        <pt x="533" y="173" on="1"/>
        <pt x="533" y="128" on="0"/>
        <pt x="570" y="78" on="0"/>
        <pt x="627" y="54" on="0"/>
        <pt x="695" y="48" on="0"/>
        <pt x="725" y="48" on="1"/>
        <pt x="730" y="48" on="0"/>
        <pt x="733" y="42" on="0"/>
        <pt x="733" y="40" on="1"/>
        <pt x="733" y="8" on="1"/>
        <pt x="733" y="6" on="0"/>
        <pt x="730" y="0" on="0"/>
        <pt x="725" y="0" on="1"/>
        <pt x="47" y="0" on="1"/>
        <pt x="40" y="0" on="0"/>
        <pt x="40" y="8" on="1"/>
        <pt x="40" y="42" on="1"/>
        <pt x="40" y="50" on="0"/>
        <pt x="48" y="50" on="1"/>
        <pt x="82" y="51" on="0"/>
        <pt x="153" y="66" on="0"/>
        <pt x="211" y="95" on="0"/>
        <pt x="248" y="141" on="0"/>
        <pt x="248" y="175" on="1"/>
      </contour>
    </TTGlyph>
    <TTGlyph name="K.sc" xMin="49" yMin="0" xMax="1093" yMax="945">
      <contour>
        <pt x="188" y="816" on="1"/>
        <pt x="188" y="839" on="0"/>
        <pt x="163" y="870" on="0"/>
        <pt x="124" y="890" on="0"/>
        <pt x="77" y="899" on="0"/>
        <pt x="55" y="900" on="1"/>
        <pt x="50" y="900" on="0"/>
        <pt x="49" y="903" on="0"/>
        <pt x="49" y="905" on="1"/>
        <pt x="49" y="939" on="1"/>
        <pt x="49" y="945" on="0"/>
        <pt x="54" y="945" on="1"/>
        <pt x="480" y="945" on="1"/>
        <pt x="484" y="945" on="0"/>
        <pt x="485" y="941" on="0"/>
        <pt x="485" y="939" on="1"/>
        <pt x="485" y="905" on="1"/>
        <pt x="485" y="902" on="0"/>
        <pt x="480" y="902" on="1"/>
        <pt x="460" y="902" on="0"/>
        <pt x="416" y="895" on="0"/>
        <pt x="377" y="876" on="0"/>
        <pt x="352" y="842" on="0"/>
        <pt x="352" y="815" on="1"/>
        <pt x="352" y="551" on="1"/>
        <pt x="352" y="522" on="0"/>
        <pt x="355" y="492" on="0"/>
        <pt x="362" y="492" on="1"/>
        <pt x="367" y="492" on="0"/>
        <pt x="374" y="493" on="0"/>
        <pt x="378" y="495" on="1"/>
        <pt x="454" y="530" on="0"/>
        <pt x="565" y="647" on="0"/>
        <pt x="610" y="715" on="1"/>
        <pt x="623" y="734" on="0"/>
        <pt x="648" y="773" on="0"/>
        <pt x="668" y="807" on="0"/>
        <pt x="681" y="835" on="0"/>
        <pt x="681" y="843" on="1"/>
        <pt x="681" y="864" on="0"/>
        <pt x="663" y="887" on="0"/>
        <pt x="637" y="898" on="0"/>
        <pt x="605" y="900" on="0"/>
        <pt x="592" y="900" on="1"/>
        <pt x="586" y="900" on="1"/>
        <pt x="582" y="900" on="0"/>
        <pt x="581" y="904" on="0"/>
        <pt x="581" y="905" on="1"/>
        <pt x="581" y="939" on="1"/>
        <pt x="581" y="941" on="0"/>
        <pt x="582" y="945" on="0"/>
        <pt x="586" y="945" on="1"/>
        <pt x="994" y="945" on="1"/>
        <pt x="998" y="945" on="0"/>
        <pt x="1000" y="941" on="0"/>
        <pt x="1000" y="939" on="1"/>
        <pt x="1000" y="905" on="1"/>
        <pt x="1000" y="903" on="0"/>
        <pt x="995" y="898" on="0"/>
        <pt x="991" y="898" on="1"/>
        <pt x="950" y="896" on="0"/>
        <pt x="883" y="890" on="0"/>
        <pt x="826" y="870" on="0"/>
        <pt x="779" y="830" on="0"/>
        <pt x="758" y="795" on="1"/>
        <pt x="705" y="704" on="0"/>
        <pt x="626" y="599" on="0"/>
        <pt x="573" y="541" on="0"/>
        <pt x="545" y="515" on="0"/>
        <pt x="543" y="504" on="1"/>
        <pt x="548" y="494" on="0"/>
        <pt x="593" y="457" on="0"/>
        <pt x="671" y="378" on="0"/>
        <pt x="784" y="246" on="0"/>
        <pt x="857" y="141" on="1"/>
        <pt x="880" y="107" on="0"/>
        <pt x="961" y="66" on="0"/>
        <pt x="1006" y="57" on="1"/>
        <pt x="1029" y="52" on="0"/>
        <pt x="1056" y="46" on="0"/>
        <pt x="1072" y="43" on="0"/>
        <pt x="1082" y="43" on="0"/>
        <pt x="1088" y="43" on="1"/>
        <pt x="1093" y="43" on="0"/>
        <pt x="1093" y="38" on="1"/>
        <pt x="1093" y="5" on="1"/>
        <pt x="1093" y="0" on="0"/>
        <pt x="1088" y="0" on="1"/>
        <pt x="629" y="0" on="1"/>
        <pt x="624" y="0" on="0"/>
        <pt x="624" y="5" on="1"/>
        <pt x="624" y="39" on="1"/>
        <pt x="624" y="44" on="0"/>
        <pt x="629" y="44" on="1"/>
        <pt x="638" y="45" on="0"/>
        <pt x="664" y="48" on="0"/>
        <pt x="688" y="56" on="0"/>
        <pt x="706" y="73" on="0"/>
        <pt x="706" y="90" on="1"/>
        <pt x="705" y="102" on="0"/>
        <pt x="684" y="142" on="0"/>
        <pt x="652" y="189" on="0"/>
        <pt x="612" y="238" on="0"/>
        <pt x="592" y="260" on="1"/>
        <pt x="569" y="286" on="0"/>
        <pt x="515" y="345" on="0"/>
        <pt x="458" y="395" on="0"/>
        <pt x="399" y="428" on="0"/>
        <pt x="371" y="428" on="1"/>
        <pt x="358" y="428" on="1"/>
        <pt x="353" y="428" on="0"/>
        <pt x="352" y="424" on="0"/>
        <pt x="352" y="419" on="1"/>
        <pt x="352" y="136" on="1"/>
        <pt x="352" y="106" on="0"/>
        <pt x="377" y="70" on="0"/>
        <pt x="415" y="50" on="0"/>
        <pt x="460" y="43" on="0"/>
        <pt x="480" y="43" on="1"/>
        <pt x="485" y="43" on="0"/>
        <pt x="485" y="38" on="1"/>
        <pt x="485" y="5" on="1"/>
        <pt x="485" y="0" on="0"/>
        <pt x="480" y="0" on="1"/>
        <pt x="54" y="0" on="1"/>
        <pt x="49" y="0" on="0"/>
        <pt x="49" y="5" on="1"/>
        <pt x="49" y="39" on="1"/>
        <pt x="49" y="41" on="0"/>
        <pt x="50" y="44" on="0"/>
        <pt x="55" y="44" on="1"/>
        <pt x="77" y="45" on="0"/>
        <pt x="124" y="55" on="0"/>
        <pt x="163" y="74" on="0"/>
        <pt x="188" y="105" on="0"/>
        <pt x="188" y="128" on="1"/>
      </contour>
    </TTGlyph>
    <TTGlyph name="Kappa" xMin="40" yMin="0" xMax="1654" yMax="1410">
      <component glyphName="K" x="0" y="0" flags="0x1204"/>
    </TTGlyph>
    <TTGlyph name="Kcommaaccent" xMin="40" yMin="-654" xMax="1654" yMax="1410">
      <component glyphName="K" x="0" y="0" flags="0x1204"/>
      <component glyphName="commaaccent" x="506" y="0" flags="0x1004"/>
    </TTGlyph>
    <TTGlyph name="L" xMin="40" yMin="0" xMax="1292" yMax="1410">
      <contour>
        <pt x="48" y="0" on="1"/>
        <pt x="43" y="0" on="0"/>
        <pt x="40" y="6" on="0"/>
        <pt x="40" y="8" on="1"/>
        <pt x="40" y="62" on="1"/>
        <pt x="40" y="64" on="0"/>
        <pt x="42" y="70" on="0"/>
        <pt x="48" y="70" on="1"/>
        <pt x="72" y="70" on="1"/>
        <pt x="75" y="70" on="0"/>
        <pt x="108" y="73" on="0"/>
        <pt x="151" y="80" on="0"/>
        <pt x="197" y="92" on="0"/>
        <pt x="213" y="101" on="1"/>
        <pt x="248" y="121" on="0"/>
        <pt x="282" y="184" on="0"/>
        <pt x="282" y="223" on="1"/>
        <pt x="282" y="1221" on="1"/>
        <pt x="282" y="1257" on="0"/>
        <pt x="235" y="1303" on="0"/>
        <pt x="170" y="1330" on="0"/>
        <pt x="103" y="1340" on="0"/>
        <pt x="83" y="1340" on="1"/>
        <pt x="61" y="1340" on="1"/>
        <pt x="56" y="1340" on="0"/>
        <pt x="53" y="1347" on="0"/>
        <pt x="53" y="1348" on="1"/>
        <pt x="53" y="1402" on="1"/>
        <pt x="53" y="1404" on="0"/>
        <pt x="56" y="1410" on="0"/>
        <pt x="61" y="1410" on="1"/>
        <pt x="828" y="1410" on="1"/>
        <pt x="833" y="1410" on="0"/>
        <pt x="836" y="1404" on="0"/>
        <pt x="836" y="1402" on="1"/>
        <pt x="836" y="1348" on="1"/>
        <pt x="836" y="1346" on="0"/>
        <pt x="833" y="1340" on="0"/>
        <pt x="828" y="1340" on="1"/>
        <pt x="785" y="1340" on="1"/>
        <pt x="729" y="1340" on="0"/>
        <pt x="633" y="1322" on="0"/>
        <pt x="603" y="1311" on="1"/>
        <pt x="580" y="1303" on="0"/>
        <pt x="567" y="1266" on="0"/>
        <pt x="567" y="1221" on="1"/>
        <pt x="567" y="172" on="1"/>
        <pt x="569" y="155" on="0"/>
        <pt x="601" y="125" on="0"/>
        <pt x="621" y="125" on="1"/>
        <pt x="971" y="125" on="1"/>
        <pt x="1006" y="125" on="0"/>
        <pt x="1069" y="155" on="0"/>
        <pt x="1123" y="202" on="0"/>
        <pt x="1169" y="258" on="0"/>
        <pt x="1207" y="310" on="0"/>
        <pt x="1237" y="351" on="0"/>
        <pt x="1248" y="360" on="1"/>
        <pt x="1253" y="363" on="0"/>
        <pt x="1266" y="369" on="0"/>
        <pt x="1275" y="369" on="1"/>
        <pt x="1292" y="369" on="0"/>
        <pt x="1292" y="356" on="1"/>
        <pt x="1292" y="350" on="0"/>
        <pt x="1289" y="344" on="1"/>
        <pt x="1123" y="18" on="1"/>
        <pt x="1119" y="10" on="0"/>
        <pt x="1109" y="0" on="0"/>
        <pt x="1102" y="0" on="1"/>
        <pt x="48" y="0" on="1"/>
      </contour>
    </TTGlyph>
</ttFont>
